%TF.GenerationSoftware,KiCad,Pcbnew,9.0.2*%
%TF.CreationDate,2025-07-06T23:36:38+02:00*%
%TF.ProjectId,wireless-nes-adapter,77697265-6c65-4737-932d-6e65732d6164,rev?*%
%TF.SameCoordinates,Original*%
%TF.FileFunction,Legend,Top*%
%TF.FilePolarity,Positive*%
%FSLAX46Y46*%
G04 Gerber Fmt 4.6, Leading zero omitted, Abs format (unit mm)*
G04 Created by KiCad (PCBNEW 9.0.2) date 2025-07-06 23:36:38*
%MOMM*%
%LPD*%
G01*
G04 APERTURE LIST*
%ADD10C,0.100000*%
%ADD11C,0.150000*%
%ADD12C,0.120000*%
G04 APERTURE END LIST*
D10*
X118523809Y-124518693D02*
X118857142Y-124518693D01*
X118999999Y-125042503D02*
X118523809Y-125042503D01*
X118523809Y-125042503D02*
X118523809Y-124042503D01*
X118523809Y-124042503D02*
X118999999Y-124042503D01*
X119380952Y-124994884D02*
X119523809Y-125042503D01*
X119523809Y-125042503D02*
X119761904Y-125042503D01*
X119761904Y-125042503D02*
X119857142Y-124994884D01*
X119857142Y-124994884D02*
X119904761Y-124947264D01*
X119904761Y-124947264D02*
X119952380Y-124852026D01*
X119952380Y-124852026D02*
X119952380Y-124756788D01*
X119952380Y-124756788D02*
X119904761Y-124661550D01*
X119904761Y-124661550D02*
X119857142Y-124613931D01*
X119857142Y-124613931D02*
X119761904Y-124566312D01*
X119761904Y-124566312D02*
X119571428Y-124518693D01*
X119571428Y-124518693D02*
X119476190Y-124471074D01*
X119476190Y-124471074D02*
X119428571Y-124423455D01*
X119428571Y-124423455D02*
X119380952Y-124328217D01*
X119380952Y-124328217D02*
X119380952Y-124232979D01*
X119380952Y-124232979D02*
X119428571Y-124137741D01*
X119428571Y-124137741D02*
X119476190Y-124090122D01*
X119476190Y-124090122D02*
X119571428Y-124042503D01*
X119571428Y-124042503D02*
X119809523Y-124042503D01*
X119809523Y-124042503D02*
X119952380Y-124090122D01*
X120380952Y-125042503D02*
X120380952Y-124042503D01*
X120380952Y-124042503D02*
X120761904Y-124042503D01*
X120761904Y-124042503D02*
X120857142Y-124090122D01*
X120857142Y-124090122D02*
X120904761Y-124137741D01*
X120904761Y-124137741D02*
X120952380Y-124232979D01*
X120952380Y-124232979D02*
X120952380Y-124375836D01*
X120952380Y-124375836D02*
X120904761Y-124471074D01*
X120904761Y-124471074D02*
X120857142Y-124518693D01*
X120857142Y-124518693D02*
X120761904Y-124566312D01*
X120761904Y-124566312D02*
X120380952Y-124566312D01*
X121285714Y-124042503D02*
X121904761Y-124042503D01*
X121904761Y-124042503D02*
X121571428Y-124423455D01*
X121571428Y-124423455D02*
X121714285Y-124423455D01*
X121714285Y-124423455D02*
X121809523Y-124471074D01*
X121809523Y-124471074D02*
X121857142Y-124518693D01*
X121857142Y-124518693D02*
X121904761Y-124613931D01*
X121904761Y-124613931D02*
X121904761Y-124852026D01*
X121904761Y-124852026D02*
X121857142Y-124947264D01*
X121857142Y-124947264D02*
X121809523Y-124994884D01*
X121809523Y-124994884D02*
X121714285Y-125042503D01*
X121714285Y-125042503D02*
X121428571Y-125042503D01*
X121428571Y-125042503D02*
X121333333Y-124994884D01*
X121333333Y-124994884D02*
X121285714Y-124947264D01*
X122285714Y-124137741D02*
X122333333Y-124090122D01*
X122333333Y-124090122D02*
X122428571Y-124042503D01*
X122428571Y-124042503D02*
X122666666Y-124042503D01*
X122666666Y-124042503D02*
X122761904Y-124090122D01*
X122761904Y-124090122D02*
X122809523Y-124137741D01*
X122809523Y-124137741D02*
X122857142Y-124232979D01*
X122857142Y-124232979D02*
X122857142Y-124328217D01*
X122857142Y-124328217D02*
X122809523Y-124471074D01*
X122809523Y-124471074D02*
X122238095Y-125042503D01*
X122238095Y-125042503D02*
X122857142Y-125042503D01*
X124047619Y-125042503D02*
X124047619Y-124042503D01*
X124047619Y-124042503D02*
X124619047Y-125042503D01*
X124619047Y-125042503D02*
X124619047Y-124042503D01*
X125095238Y-124518693D02*
X125428571Y-124518693D01*
X125571428Y-125042503D02*
X125095238Y-125042503D01*
X125095238Y-125042503D02*
X125095238Y-124042503D01*
X125095238Y-124042503D02*
X125571428Y-124042503D01*
X125952381Y-124994884D02*
X126095238Y-125042503D01*
X126095238Y-125042503D02*
X126333333Y-125042503D01*
X126333333Y-125042503D02*
X126428571Y-124994884D01*
X126428571Y-124994884D02*
X126476190Y-124947264D01*
X126476190Y-124947264D02*
X126523809Y-124852026D01*
X126523809Y-124852026D02*
X126523809Y-124756788D01*
X126523809Y-124756788D02*
X126476190Y-124661550D01*
X126476190Y-124661550D02*
X126428571Y-124613931D01*
X126428571Y-124613931D02*
X126333333Y-124566312D01*
X126333333Y-124566312D02*
X126142857Y-124518693D01*
X126142857Y-124518693D02*
X126047619Y-124471074D01*
X126047619Y-124471074D02*
X126000000Y-124423455D01*
X126000000Y-124423455D02*
X125952381Y-124328217D01*
X125952381Y-124328217D02*
X125952381Y-124232979D01*
X125952381Y-124232979D02*
X126000000Y-124137741D01*
X126000000Y-124137741D02*
X126047619Y-124090122D01*
X126047619Y-124090122D02*
X126142857Y-124042503D01*
X126142857Y-124042503D02*
X126380952Y-124042503D01*
X126380952Y-124042503D02*
X126523809Y-124090122D01*
X118857142Y-126128637D02*
X118999999Y-126176256D01*
X118999999Y-126176256D02*
X119047618Y-126223875D01*
X119047618Y-126223875D02*
X119095237Y-126319113D01*
X119095237Y-126319113D02*
X119095237Y-126461970D01*
X119095237Y-126461970D02*
X119047618Y-126557208D01*
X119047618Y-126557208D02*
X118999999Y-126604828D01*
X118999999Y-126604828D02*
X118904761Y-126652447D01*
X118904761Y-126652447D02*
X118523809Y-126652447D01*
X118523809Y-126652447D02*
X118523809Y-125652447D01*
X118523809Y-125652447D02*
X118857142Y-125652447D01*
X118857142Y-125652447D02*
X118952380Y-125700066D01*
X118952380Y-125700066D02*
X118999999Y-125747685D01*
X118999999Y-125747685D02*
X119047618Y-125842923D01*
X119047618Y-125842923D02*
X119047618Y-125938161D01*
X119047618Y-125938161D02*
X118999999Y-126033399D01*
X118999999Y-126033399D02*
X118952380Y-126081018D01*
X118952380Y-126081018D02*
X118857142Y-126128637D01*
X118857142Y-126128637D02*
X118523809Y-126128637D01*
X119999999Y-126652447D02*
X119523809Y-126652447D01*
X119523809Y-126652447D02*
X119523809Y-125652447D01*
X120333333Y-125652447D02*
X120333333Y-126461970D01*
X120333333Y-126461970D02*
X120380952Y-126557208D01*
X120380952Y-126557208D02*
X120428571Y-126604828D01*
X120428571Y-126604828D02*
X120523809Y-126652447D01*
X120523809Y-126652447D02*
X120714285Y-126652447D01*
X120714285Y-126652447D02*
X120809523Y-126604828D01*
X120809523Y-126604828D02*
X120857142Y-126557208D01*
X120857142Y-126557208D02*
X120904761Y-126461970D01*
X120904761Y-126461970D02*
X120904761Y-125652447D01*
X121380952Y-126128637D02*
X121714285Y-126128637D01*
X121857142Y-126652447D02*
X121380952Y-126652447D01*
X121380952Y-126652447D02*
X121380952Y-125652447D01*
X121380952Y-125652447D02*
X121857142Y-125652447D01*
X122142857Y-125652447D02*
X122714285Y-125652447D01*
X122428571Y-126652447D02*
X122428571Y-125652447D01*
X123238095Y-125652447D02*
X123428571Y-125652447D01*
X123428571Y-125652447D02*
X123523809Y-125700066D01*
X123523809Y-125700066D02*
X123619047Y-125795304D01*
X123619047Y-125795304D02*
X123666666Y-125985780D01*
X123666666Y-125985780D02*
X123666666Y-126319113D01*
X123666666Y-126319113D02*
X123619047Y-126509589D01*
X123619047Y-126509589D02*
X123523809Y-126604828D01*
X123523809Y-126604828D02*
X123428571Y-126652447D01*
X123428571Y-126652447D02*
X123238095Y-126652447D01*
X123238095Y-126652447D02*
X123142857Y-126604828D01*
X123142857Y-126604828D02*
X123047619Y-126509589D01*
X123047619Y-126509589D02*
X123000000Y-126319113D01*
X123000000Y-126319113D02*
X123000000Y-125985780D01*
X123000000Y-125985780D02*
X123047619Y-125795304D01*
X123047619Y-125795304D02*
X123142857Y-125700066D01*
X123142857Y-125700066D02*
X123238095Y-125652447D01*
X124285714Y-125652447D02*
X124476190Y-125652447D01*
X124476190Y-125652447D02*
X124571428Y-125700066D01*
X124571428Y-125700066D02*
X124666666Y-125795304D01*
X124666666Y-125795304D02*
X124714285Y-125985780D01*
X124714285Y-125985780D02*
X124714285Y-126319113D01*
X124714285Y-126319113D02*
X124666666Y-126509589D01*
X124666666Y-126509589D02*
X124571428Y-126604828D01*
X124571428Y-126604828D02*
X124476190Y-126652447D01*
X124476190Y-126652447D02*
X124285714Y-126652447D01*
X124285714Y-126652447D02*
X124190476Y-126604828D01*
X124190476Y-126604828D02*
X124095238Y-126509589D01*
X124095238Y-126509589D02*
X124047619Y-126319113D01*
X124047619Y-126319113D02*
X124047619Y-125985780D01*
X124047619Y-125985780D02*
X124095238Y-125795304D01*
X124095238Y-125795304D02*
X124190476Y-125700066D01*
X124190476Y-125700066D02*
X124285714Y-125652447D01*
X125000000Y-125652447D02*
X125571428Y-125652447D01*
X125285714Y-126652447D02*
X125285714Y-125652447D01*
X125904762Y-126652447D02*
X125904762Y-125652447D01*
X125904762Y-126128637D02*
X126476190Y-126128637D01*
X126476190Y-126652447D02*
X126476190Y-125652447D01*
X119500000Y-127976676D02*
X119976190Y-127976676D01*
X119404762Y-128262391D02*
X119738095Y-127262391D01*
X119738095Y-127262391D02*
X120071428Y-128262391D01*
X120404762Y-128262391D02*
X120404762Y-127262391D01*
X120404762Y-127262391D02*
X120642857Y-127262391D01*
X120642857Y-127262391D02*
X120785714Y-127310010D01*
X120785714Y-127310010D02*
X120880952Y-127405248D01*
X120880952Y-127405248D02*
X120928571Y-127500486D01*
X120928571Y-127500486D02*
X120976190Y-127690962D01*
X120976190Y-127690962D02*
X120976190Y-127833819D01*
X120976190Y-127833819D02*
X120928571Y-128024295D01*
X120928571Y-128024295D02*
X120880952Y-128119533D01*
X120880952Y-128119533D02*
X120785714Y-128214772D01*
X120785714Y-128214772D02*
X120642857Y-128262391D01*
X120642857Y-128262391D02*
X120404762Y-128262391D01*
X121357143Y-127976676D02*
X121833333Y-127976676D01*
X121261905Y-128262391D02*
X121595238Y-127262391D01*
X121595238Y-127262391D02*
X121928571Y-128262391D01*
X122261905Y-128262391D02*
X122261905Y-127262391D01*
X122261905Y-127262391D02*
X122642857Y-127262391D01*
X122642857Y-127262391D02*
X122738095Y-127310010D01*
X122738095Y-127310010D02*
X122785714Y-127357629D01*
X122785714Y-127357629D02*
X122833333Y-127452867D01*
X122833333Y-127452867D02*
X122833333Y-127595724D01*
X122833333Y-127595724D02*
X122785714Y-127690962D01*
X122785714Y-127690962D02*
X122738095Y-127738581D01*
X122738095Y-127738581D02*
X122642857Y-127786200D01*
X122642857Y-127786200D02*
X122261905Y-127786200D01*
X123119048Y-127262391D02*
X123690476Y-127262391D01*
X123404762Y-128262391D02*
X123404762Y-127262391D01*
X124023810Y-127738581D02*
X124357143Y-127738581D01*
X124500000Y-128262391D02*
X124023810Y-128262391D01*
X124023810Y-128262391D02*
X124023810Y-127262391D01*
X124023810Y-127262391D02*
X124500000Y-127262391D01*
X125500000Y-128262391D02*
X125166667Y-127786200D01*
X124928572Y-128262391D02*
X124928572Y-127262391D01*
X124928572Y-127262391D02*
X125309524Y-127262391D01*
X125309524Y-127262391D02*
X125404762Y-127310010D01*
X125404762Y-127310010D02*
X125452381Y-127357629D01*
X125452381Y-127357629D02*
X125500000Y-127452867D01*
X125500000Y-127452867D02*
X125500000Y-127595724D01*
X125500000Y-127595724D02*
X125452381Y-127690962D01*
X125452381Y-127690962D02*
X125404762Y-127738581D01*
X125404762Y-127738581D02*
X125309524Y-127786200D01*
X125309524Y-127786200D02*
X124928572Y-127786200D01*
X117476191Y-128872335D02*
X118047619Y-128872335D01*
X117761905Y-129872335D02*
X117761905Y-128872335D01*
X118380953Y-129872335D02*
X118380953Y-128872335D01*
X118380953Y-129348525D02*
X118952381Y-129348525D01*
X118952381Y-129872335D02*
X118952381Y-128872335D01*
X119428572Y-129872335D02*
X119428572Y-128872335D01*
X119904762Y-129872335D02*
X119904762Y-128872335D01*
X119904762Y-128872335D02*
X120476190Y-129872335D01*
X120476190Y-129872335D02*
X120476190Y-128872335D01*
X121476190Y-128919954D02*
X121380952Y-128872335D01*
X121380952Y-128872335D02*
X121238095Y-128872335D01*
X121238095Y-128872335D02*
X121095238Y-128919954D01*
X121095238Y-128919954D02*
X121000000Y-129015192D01*
X121000000Y-129015192D02*
X120952381Y-129110430D01*
X120952381Y-129110430D02*
X120904762Y-129300906D01*
X120904762Y-129300906D02*
X120904762Y-129443763D01*
X120904762Y-129443763D02*
X120952381Y-129634239D01*
X120952381Y-129634239D02*
X121000000Y-129729477D01*
X121000000Y-129729477D02*
X121095238Y-129824716D01*
X121095238Y-129824716D02*
X121238095Y-129872335D01*
X121238095Y-129872335D02*
X121333333Y-129872335D01*
X121333333Y-129872335D02*
X121476190Y-129824716D01*
X121476190Y-129824716D02*
X121523809Y-129777096D01*
X121523809Y-129777096D02*
X121523809Y-129443763D01*
X121523809Y-129443763D02*
X121333333Y-129443763D01*
X121904762Y-129586620D02*
X122380952Y-129586620D01*
X121809524Y-129872335D02*
X122142857Y-128872335D01*
X122142857Y-128872335D02*
X122476190Y-129872335D01*
X122809524Y-129872335D02*
X122809524Y-128872335D01*
X122809524Y-128872335D02*
X123142857Y-129586620D01*
X123142857Y-129586620D02*
X123476190Y-128872335D01*
X123476190Y-128872335D02*
X123476190Y-129872335D01*
X123904762Y-129586620D02*
X124380952Y-129586620D01*
X123809524Y-129872335D02*
X124142857Y-128872335D01*
X124142857Y-128872335D02*
X124476190Y-129872335D01*
X125142857Y-129348525D02*
X125285714Y-129396144D01*
X125285714Y-129396144D02*
X125333333Y-129443763D01*
X125333333Y-129443763D02*
X125380952Y-129539001D01*
X125380952Y-129539001D02*
X125380952Y-129681858D01*
X125380952Y-129681858D02*
X125333333Y-129777096D01*
X125333333Y-129777096D02*
X125285714Y-129824716D01*
X125285714Y-129824716D02*
X125190476Y-129872335D01*
X125190476Y-129872335D02*
X124809524Y-129872335D01*
X124809524Y-129872335D02*
X124809524Y-128872335D01*
X124809524Y-128872335D02*
X125142857Y-128872335D01*
X125142857Y-128872335D02*
X125238095Y-128919954D01*
X125238095Y-128919954D02*
X125285714Y-128967573D01*
X125285714Y-128967573D02*
X125333333Y-129062811D01*
X125333333Y-129062811D02*
X125333333Y-129158049D01*
X125333333Y-129158049D02*
X125285714Y-129253287D01*
X125285714Y-129253287D02*
X125238095Y-129300906D01*
X125238095Y-129300906D02*
X125142857Y-129348525D01*
X125142857Y-129348525D02*
X124809524Y-129348525D01*
X126000000Y-128872335D02*
X126190476Y-128872335D01*
X126190476Y-128872335D02*
X126285714Y-128919954D01*
X126285714Y-128919954D02*
X126380952Y-129015192D01*
X126380952Y-129015192D02*
X126428571Y-129205668D01*
X126428571Y-129205668D02*
X126428571Y-129539001D01*
X126428571Y-129539001D02*
X126380952Y-129729477D01*
X126380952Y-129729477D02*
X126285714Y-129824716D01*
X126285714Y-129824716D02*
X126190476Y-129872335D01*
X126190476Y-129872335D02*
X126000000Y-129872335D01*
X126000000Y-129872335D02*
X125904762Y-129824716D01*
X125904762Y-129824716D02*
X125809524Y-129729477D01*
X125809524Y-129729477D02*
X125761905Y-129539001D01*
X125761905Y-129539001D02*
X125761905Y-129205668D01*
X125761905Y-129205668D02*
X125809524Y-129015192D01*
X125809524Y-129015192D02*
X125904762Y-128919954D01*
X125904762Y-128919954D02*
X126000000Y-128872335D01*
X127190476Y-129348525D02*
X127333333Y-129396144D01*
X127333333Y-129396144D02*
X127380952Y-129443763D01*
X127380952Y-129443763D02*
X127428571Y-129539001D01*
X127428571Y-129539001D02*
X127428571Y-129681858D01*
X127428571Y-129681858D02*
X127380952Y-129777096D01*
X127380952Y-129777096D02*
X127333333Y-129824716D01*
X127333333Y-129824716D02*
X127238095Y-129872335D01*
X127238095Y-129872335D02*
X126857143Y-129872335D01*
X126857143Y-129872335D02*
X126857143Y-128872335D01*
X126857143Y-128872335D02*
X127190476Y-128872335D01*
X127190476Y-128872335D02*
X127285714Y-128919954D01*
X127285714Y-128919954D02*
X127333333Y-128967573D01*
X127333333Y-128967573D02*
X127380952Y-129062811D01*
X127380952Y-129062811D02*
X127380952Y-129158049D01*
X127380952Y-129158049D02*
X127333333Y-129253287D01*
X127333333Y-129253287D02*
X127285714Y-129300906D01*
X127285714Y-129300906D02*
X127190476Y-129348525D01*
X127190476Y-129348525D02*
X126857143Y-129348525D01*
D11*
X114285714Y-121722438D02*
X114190476Y-121674819D01*
X114190476Y-121674819D02*
X114047619Y-121674819D01*
X114047619Y-121674819D02*
X113904762Y-121722438D01*
X113904762Y-121722438D02*
X113809524Y-121817676D01*
X113809524Y-121817676D02*
X113761905Y-121912914D01*
X113761905Y-121912914D02*
X113714286Y-122103390D01*
X113714286Y-122103390D02*
X113714286Y-122246247D01*
X113714286Y-122246247D02*
X113761905Y-122436723D01*
X113761905Y-122436723D02*
X113809524Y-122531961D01*
X113809524Y-122531961D02*
X113904762Y-122627200D01*
X113904762Y-122627200D02*
X114047619Y-122674819D01*
X114047619Y-122674819D02*
X114142857Y-122674819D01*
X114142857Y-122674819D02*
X114285714Y-122627200D01*
X114285714Y-122627200D02*
X114333333Y-122579580D01*
X114333333Y-122579580D02*
X114333333Y-122246247D01*
X114333333Y-122246247D02*
X114142857Y-122246247D01*
X115285714Y-122674819D02*
X114714286Y-122674819D01*
X115000000Y-122674819D02*
X115000000Y-121674819D01*
X115000000Y-121674819D02*
X114904762Y-121817676D01*
X114904762Y-121817676D02*
X114809524Y-121912914D01*
X114809524Y-121912914D02*
X114714286Y-121960533D01*
X101738095Y-126674819D02*
X101738095Y-125674819D01*
X101738095Y-125674819D02*
X102309523Y-126674819D01*
X102309523Y-126674819D02*
X102309523Y-125674819D01*
X102738095Y-125770057D02*
X102785714Y-125722438D01*
X102785714Y-125722438D02*
X102880952Y-125674819D01*
X102880952Y-125674819D02*
X103119047Y-125674819D01*
X103119047Y-125674819D02*
X103214285Y-125722438D01*
X103214285Y-125722438D02*
X103261904Y-125770057D01*
X103261904Y-125770057D02*
X103309523Y-125865295D01*
X103309523Y-125865295D02*
X103309523Y-125960533D01*
X103309523Y-125960533D02*
X103261904Y-126103390D01*
X103261904Y-126103390D02*
X102690476Y-126674819D01*
X102690476Y-126674819D02*
X103309523Y-126674819D01*
X105738095Y-126674819D02*
X105738095Y-125674819D01*
X105738095Y-125674819D02*
X106309523Y-126674819D01*
X106309523Y-126674819D02*
X106309523Y-125674819D01*
X107309523Y-126674819D02*
X106738095Y-126674819D01*
X107023809Y-126674819D02*
X107023809Y-125674819D01*
X107023809Y-125674819D02*
X106928571Y-125817676D01*
X106928571Y-125817676D02*
X106833333Y-125912914D01*
X106833333Y-125912914D02*
X106738095Y-125960533D01*
X101761905Y-122674819D02*
X101761905Y-121674819D01*
X101761905Y-121674819D02*
X102000000Y-121674819D01*
X102000000Y-121674819D02*
X102142857Y-121722438D01*
X102142857Y-121722438D02*
X102238095Y-121817676D01*
X102238095Y-121817676D02*
X102285714Y-121912914D01*
X102285714Y-121912914D02*
X102333333Y-122103390D01*
X102333333Y-122103390D02*
X102333333Y-122246247D01*
X102333333Y-122246247D02*
X102285714Y-122436723D01*
X102285714Y-122436723D02*
X102238095Y-122531961D01*
X102238095Y-122531961D02*
X102142857Y-122627200D01*
X102142857Y-122627200D02*
X102000000Y-122674819D01*
X102000000Y-122674819D02*
X101761905Y-122674819D01*
X103285714Y-122674819D02*
X102714286Y-122674819D01*
X103000000Y-122674819D02*
X103000000Y-121674819D01*
X103000000Y-121674819D02*
X102904762Y-121817676D01*
X102904762Y-121817676D02*
X102809524Y-121912914D01*
X102809524Y-121912914D02*
X102714286Y-121960533D01*
X106333333Y-122674819D02*
X105857143Y-122674819D01*
X105857143Y-122674819D02*
X105857143Y-121674819D01*
X107190476Y-122674819D02*
X106619048Y-122674819D01*
X106904762Y-122674819D02*
X106904762Y-121674819D01*
X106904762Y-121674819D02*
X106809524Y-121817676D01*
X106809524Y-121817676D02*
X106714286Y-121912914D01*
X106714286Y-121912914D02*
X106619048Y-121960533D01*
X110333333Y-122579580D02*
X110285714Y-122627200D01*
X110285714Y-122627200D02*
X110142857Y-122674819D01*
X110142857Y-122674819D02*
X110047619Y-122674819D01*
X110047619Y-122674819D02*
X109904762Y-122627200D01*
X109904762Y-122627200D02*
X109809524Y-122531961D01*
X109809524Y-122531961D02*
X109761905Y-122436723D01*
X109761905Y-122436723D02*
X109714286Y-122246247D01*
X109714286Y-122246247D02*
X109714286Y-122103390D01*
X109714286Y-122103390D02*
X109761905Y-121912914D01*
X109761905Y-121912914D02*
X109809524Y-121817676D01*
X109809524Y-121817676D02*
X109904762Y-121722438D01*
X109904762Y-121722438D02*
X110047619Y-121674819D01*
X110047619Y-121674819D02*
X110142857Y-121674819D01*
X110142857Y-121674819D02*
X110285714Y-121722438D01*
X110285714Y-121722438D02*
X110333333Y-121770057D01*
X111285714Y-122674819D02*
X110714286Y-122674819D01*
X111000000Y-122674819D02*
X111000000Y-121674819D01*
X111000000Y-121674819D02*
X110904762Y-121817676D01*
X110904762Y-121817676D02*
X110809524Y-121912914D01*
X110809524Y-121912914D02*
X110714286Y-121960533D01*
X108690476Y-125674819D02*
X109023809Y-126674819D01*
X109023809Y-126674819D02*
X109357142Y-125674819D01*
X110261904Y-126579580D02*
X110214285Y-126627200D01*
X110214285Y-126627200D02*
X110071428Y-126674819D01*
X110071428Y-126674819D02*
X109976190Y-126674819D01*
X109976190Y-126674819D02*
X109833333Y-126627200D01*
X109833333Y-126627200D02*
X109738095Y-126531961D01*
X109738095Y-126531961D02*
X109690476Y-126436723D01*
X109690476Y-126436723D02*
X109642857Y-126246247D01*
X109642857Y-126246247D02*
X109642857Y-126103390D01*
X109642857Y-126103390D02*
X109690476Y-125912914D01*
X109690476Y-125912914D02*
X109738095Y-125817676D01*
X109738095Y-125817676D02*
X109833333Y-125722438D01*
X109833333Y-125722438D02*
X109976190Y-125674819D01*
X109976190Y-125674819D02*
X110071428Y-125674819D01*
X110071428Y-125674819D02*
X110214285Y-125722438D01*
X110214285Y-125722438D02*
X110261904Y-125770057D01*
X111261904Y-126579580D02*
X111214285Y-126627200D01*
X111214285Y-126627200D02*
X111071428Y-126674819D01*
X111071428Y-126674819D02*
X110976190Y-126674819D01*
X110976190Y-126674819D02*
X110833333Y-126627200D01*
X110833333Y-126627200D02*
X110738095Y-126531961D01*
X110738095Y-126531961D02*
X110690476Y-126436723D01*
X110690476Y-126436723D02*
X110642857Y-126246247D01*
X110642857Y-126246247D02*
X110642857Y-126103390D01*
X110642857Y-126103390D02*
X110690476Y-125912914D01*
X110690476Y-125912914D02*
X110738095Y-125817676D01*
X110738095Y-125817676D02*
X110833333Y-125722438D01*
X110833333Y-125722438D02*
X110976190Y-125674819D01*
X110976190Y-125674819D02*
X111071428Y-125674819D01*
X111071428Y-125674819D02*
X111214285Y-125722438D01*
X111214285Y-125722438D02*
X111261904Y-125770057D01*
X112214285Y-126674819D02*
X111642857Y-126674819D01*
X111928571Y-126674819D02*
X111928571Y-125674819D01*
X111928571Y-125674819D02*
X111833333Y-125817676D01*
X111833333Y-125817676D02*
X111738095Y-125912914D01*
X111738095Y-125912914D02*
X111642857Y-125960533D01*
X114578095Y-55494819D02*
X114578095Y-56304342D01*
X114578095Y-56304342D02*
X114625714Y-56399580D01*
X114625714Y-56399580D02*
X114673333Y-56447200D01*
X114673333Y-56447200D02*
X114768571Y-56494819D01*
X114768571Y-56494819D02*
X114959047Y-56494819D01*
X114959047Y-56494819D02*
X115054285Y-56447200D01*
X115054285Y-56447200D02*
X115101904Y-56399580D01*
X115101904Y-56399580D02*
X115149523Y-56304342D01*
X115149523Y-56304342D02*
X115149523Y-55494819D01*
X116149523Y-56494819D02*
X115578095Y-56494819D01*
X115863809Y-56494819D02*
X115863809Y-55494819D01*
X115863809Y-55494819D02*
X115768571Y-55637676D01*
X115768571Y-55637676D02*
X115673333Y-55732914D01*
X115673333Y-55732914D02*
X115578095Y-55780533D01*
X113997329Y-94767946D02*
X113997329Y-94434613D01*
X114521139Y-94291756D02*
X114521139Y-94767946D01*
X114521139Y-94767946D02*
X113521139Y-94767946D01*
X113521139Y-94767946D02*
X113521139Y-94291756D01*
X114473520Y-93910803D02*
X114521139Y-93767946D01*
X114521139Y-93767946D02*
X114521139Y-93529851D01*
X114521139Y-93529851D02*
X114473520Y-93434613D01*
X114473520Y-93434613D02*
X114425900Y-93386994D01*
X114425900Y-93386994D02*
X114330662Y-93339375D01*
X114330662Y-93339375D02*
X114235424Y-93339375D01*
X114235424Y-93339375D02*
X114140186Y-93386994D01*
X114140186Y-93386994D02*
X114092567Y-93434613D01*
X114092567Y-93434613D02*
X114044948Y-93529851D01*
X114044948Y-93529851D02*
X113997329Y-93720327D01*
X113997329Y-93720327D02*
X113949710Y-93815565D01*
X113949710Y-93815565D02*
X113902091Y-93863184D01*
X113902091Y-93863184D02*
X113806853Y-93910803D01*
X113806853Y-93910803D02*
X113711615Y-93910803D01*
X113711615Y-93910803D02*
X113616377Y-93863184D01*
X113616377Y-93863184D02*
X113568758Y-93815565D01*
X113568758Y-93815565D02*
X113521139Y-93720327D01*
X113521139Y-93720327D02*
X113521139Y-93482232D01*
X113521139Y-93482232D02*
X113568758Y-93339375D01*
X114521139Y-92910803D02*
X113521139Y-92910803D01*
X113521139Y-92910803D02*
X113521139Y-92529851D01*
X113521139Y-92529851D02*
X113568758Y-92434613D01*
X113568758Y-92434613D02*
X113616377Y-92386994D01*
X113616377Y-92386994D02*
X113711615Y-92339375D01*
X113711615Y-92339375D02*
X113854472Y-92339375D01*
X113854472Y-92339375D02*
X113949710Y-92386994D01*
X113949710Y-92386994D02*
X113997329Y-92434613D01*
X113997329Y-92434613D02*
X114044948Y-92529851D01*
X114044948Y-92529851D02*
X114044948Y-92910803D01*
X113521139Y-92006041D02*
X113521139Y-91386994D01*
X113521139Y-91386994D02*
X113902091Y-91720327D01*
X113902091Y-91720327D02*
X113902091Y-91577470D01*
X113902091Y-91577470D02*
X113949710Y-91482232D01*
X113949710Y-91482232D02*
X113997329Y-91434613D01*
X113997329Y-91434613D02*
X114092567Y-91386994D01*
X114092567Y-91386994D02*
X114330662Y-91386994D01*
X114330662Y-91386994D02*
X114425900Y-91434613D01*
X114425900Y-91434613D02*
X114473520Y-91482232D01*
X114473520Y-91482232D02*
X114521139Y-91577470D01*
X114521139Y-91577470D02*
X114521139Y-91863184D01*
X114521139Y-91863184D02*
X114473520Y-91958422D01*
X114473520Y-91958422D02*
X114425900Y-92006041D01*
X113616377Y-91006041D02*
X113568758Y-90958422D01*
X113568758Y-90958422D02*
X113521139Y-90863184D01*
X113521139Y-90863184D02*
X113521139Y-90625089D01*
X113521139Y-90625089D02*
X113568758Y-90529851D01*
X113568758Y-90529851D02*
X113616377Y-90482232D01*
X113616377Y-90482232D02*
X113711615Y-90434613D01*
X113711615Y-90434613D02*
X113806853Y-90434613D01*
X113806853Y-90434613D02*
X113949710Y-90482232D01*
X113949710Y-90482232D02*
X114521139Y-91053660D01*
X114521139Y-91053660D02*
X114521139Y-90434613D01*
X114140186Y-90006041D02*
X114140186Y-89244137D01*
X114473520Y-88815565D02*
X114521139Y-88672708D01*
X114521139Y-88672708D02*
X114521139Y-88434613D01*
X114521139Y-88434613D02*
X114473520Y-88339375D01*
X114473520Y-88339375D02*
X114425900Y-88291756D01*
X114425900Y-88291756D02*
X114330662Y-88244137D01*
X114330662Y-88244137D02*
X114235424Y-88244137D01*
X114235424Y-88244137D02*
X114140186Y-88291756D01*
X114140186Y-88291756D02*
X114092567Y-88339375D01*
X114092567Y-88339375D02*
X114044948Y-88434613D01*
X114044948Y-88434613D02*
X113997329Y-88625089D01*
X113997329Y-88625089D02*
X113949710Y-88720327D01*
X113949710Y-88720327D02*
X113902091Y-88767946D01*
X113902091Y-88767946D02*
X113806853Y-88815565D01*
X113806853Y-88815565D02*
X113711615Y-88815565D01*
X113711615Y-88815565D02*
X113616377Y-88767946D01*
X113616377Y-88767946D02*
X113568758Y-88720327D01*
X113568758Y-88720327D02*
X113521139Y-88625089D01*
X113521139Y-88625089D02*
X113521139Y-88386994D01*
X113521139Y-88386994D02*
X113568758Y-88244137D01*
X113521139Y-87910803D02*
X113521139Y-87291756D01*
X113521139Y-87291756D02*
X113902091Y-87625089D01*
X113902091Y-87625089D02*
X113902091Y-87482232D01*
X113902091Y-87482232D02*
X113949710Y-87386994D01*
X113949710Y-87386994D02*
X113997329Y-87339375D01*
X113997329Y-87339375D02*
X114092567Y-87291756D01*
X114092567Y-87291756D02*
X114330662Y-87291756D01*
X114330662Y-87291756D02*
X114425900Y-87339375D01*
X114425900Y-87339375D02*
X114473520Y-87386994D01*
X114473520Y-87386994D02*
X114521139Y-87482232D01*
X114521139Y-87482232D02*
X114521139Y-87767946D01*
X114521139Y-87767946D02*
X114473520Y-87863184D01*
X114473520Y-87863184D02*
X114425900Y-87910803D01*
X114140186Y-86863184D02*
X114140186Y-86101280D01*
X114521139Y-85625089D02*
X113521139Y-85625089D01*
X113521139Y-85625089D02*
X113521139Y-85386994D01*
X113521139Y-85386994D02*
X113568758Y-85244137D01*
X113568758Y-85244137D02*
X113663996Y-85148899D01*
X113663996Y-85148899D02*
X113759234Y-85101280D01*
X113759234Y-85101280D02*
X113949710Y-85053661D01*
X113949710Y-85053661D02*
X114092567Y-85053661D01*
X114092567Y-85053661D02*
X114283043Y-85101280D01*
X114283043Y-85101280D02*
X114378281Y-85148899D01*
X114378281Y-85148899D02*
X114473520Y-85244137D01*
X114473520Y-85244137D02*
X114521139Y-85386994D01*
X114521139Y-85386994D02*
X114521139Y-85625089D01*
X114473520Y-84244137D02*
X114521139Y-84339375D01*
X114521139Y-84339375D02*
X114521139Y-84529851D01*
X114521139Y-84529851D02*
X114473520Y-84625089D01*
X114473520Y-84625089D02*
X114378281Y-84672708D01*
X114378281Y-84672708D02*
X113997329Y-84672708D01*
X113997329Y-84672708D02*
X113902091Y-84625089D01*
X113902091Y-84625089D02*
X113854472Y-84529851D01*
X113854472Y-84529851D02*
X113854472Y-84339375D01*
X113854472Y-84339375D02*
X113902091Y-84244137D01*
X113902091Y-84244137D02*
X113997329Y-84196518D01*
X113997329Y-84196518D02*
X114092567Y-84196518D01*
X114092567Y-84196518D02*
X114187805Y-84672708D01*
X113854472Y-83863184D02*
X114521139Y-83625089D01*
X114521139Y-83625089D02*
X113854472Y-83386994D01*
X114521139Y-83006041D02*
X113521139Y-83006041D01*
X114521139Y-82434613D02*
X113949710Y-82863184D01*
X113521139Y-82434613D02*
X114092567Y-83006041D01*
X114521139Y-82006041D02*
X113854472Y-82006041D01*
X113521139Y-82006041D02*
X113568758Y-82053660D01*
X113568758Y-82053660D02*
X113616377Y-82006041D01*
X113616377Y-82006041D02*
X113568758Y-81958422D01*
X113568758Y-81958422D02*
X113521139Y-82006041D01*
X113521139Y-82006041D02*
X113616377Y-82006041D01*
X113854472Y-81672708D02*
X113854472Y-81291756D01*
X113521139Y-81529851D02*
X114378281Y-81529851D01*
X114378281Y-81529851D02*
X114473520Y-81482232D01*
X114473520Y-81482232D02*
X114521139Y-81386994D01*
X114521139Y-81386994D02*
X114521139Y-81291756D01*
X114425900Y-80386994D02*
X114473520Y-80434613D01*
X114473520Y-80434613D02*
X114521139Y-80577470D01*
X114521139Y-80577470D02*
X114521139Y-80672708D01*
X114521139Y-80672708D02*
X114473520Y-80815565D01*
X114473520Y-80815565D02*
X114378281Y-80910803D01*
X114378281Y-80910803D02*
X114283043Y-80958422D01*
X114283043Y-80958422D02*
X114092567Y-81006041D01*
X114092567Y-81006041D02*
X113949710Y-81006041D01*
X113949710Y-81006041D02*
X113759234Y-80958422D01*
X113759234Y-80958422D02*
X113663996Y-80910803D01*
X113663996Y-80910803D02*
X113568758Y-80815565D01*
X113568758Y-80815565D02*
X113521139Y-80672708D01*
X113521139Y-80672708D02*
X113521139Y-80577470D01*
X113521139Y-80577470D02*
X113568758Y-80434613D01*
X113568758Y-80434613D02*
X113616377Y-80386994D01*
X104770588Y-85582438D02*
X104675350Y-85534819D01*
X104675350Y-85534819D02*
X104532493Y-85534819D01*
X104532493Y-85534819D02*
X104389636Y-85582438D01*
X104389636Y-85582438D02*
X104294398Y-85677676D01*
X104294398Y-85677676D02*
X104246779Y-85772914D01*
X104246779Y-85772914D02*
X104199160Y-85963390D01*
X104199160Y-85963390D02*
X104199160Y-86106247D01*
X104199160Y-86106247D02*
X104246779Y-86296723D01*
X104246779Y-86296723D02*
X104294398Y-86391961D01*
X104294398Y-86391961D02*
X104389636Y-86487200D01*
X104389636Y-86487200D02*
X104532493Y-86534819D01*
X104532493Y-86534819D02*
X104627731Y-86534819D01*
X104627731Y-86534819D02*
X104770588Y-86487200D01*
X104770588Y-86487200D02*
X104818207Y-86439580D01*
X104818207Y-86439580D02*
X104818207Y-86106247D01*
X104818207Y-86106247D02*
X104627731Y-86106247D01*
X105246779Y-86534819D02*
X105246779Y-85534819D01*
X105246779Y-85534819D02*
X105627731Y-85534819D01*
X105627731Y-85534819D02*
X105722969Y-85582438D01*
X105722969Y-85582438D02*
X105770588Y-85630057D01*
X105770588Y-85630057D02*
X105818207Y-85725295D01*
X105818207Y-85725295D02*
X105818207Y-85868152D01*
X105818207Y-85868152D02*
X105770588Y-85963390D01*
X105770588Y-85963390D02*
X105722969Y-86011009D01*
X105722969Y-86011009D02*
X105627731Y-86058628D01*
X105627731Y-86058628D02*
X105246779Y-86058628D01*
X106246779Y-86534819D02*
X106246779Y-85534819D01*
X106913445Y-85534819D02*
X107103921Y-85534819D01*
X107103921Y-85534819D02*
X107199159Y-85582438D01*
X107199159Y-85582438D02*
X107294397Y-85677676D01*
X107294397Y-85677676D02*
X107342016Y-85868152D01*
X107342016Y-85868152D02*
X107342016Y-86201485D01*
X107342016Y-86201485D02*
X107294397Y-86391961D01*
X107294397Y-86391961D02*
X107199159Y-86487200D01*
X107199159Y-86487200D02*
X107103921Y-86534819D01*
X107103921Y-86534819D02*
X106913445Y-86534819D01*
X106913445Y-86534819D02*
X106818207Y-86487200D01*
X106818207Y-86487200D02*
X106722969Y-86391961D01*
X106722969Y-86391961D02*
X106675350Y-86201485D01*
X106675350Y-86201485D02*
X106675350Y-85868152D01*
X106675350Y-85868152D02*
X106722969Y-85677676D01*
X106722969Y-85677676D02*
X106818207Y-85582438D01*
X106818207Y-85582438D02*
X106913445Y-85534819D01*
X107913445Y-85963390D02*
X107818207Y-85915771D01*
X107818207Y-85915771D02*
X107770588Y-85868152D01*
X107770588Y-85868152D02*
X107722969Y-85772914D01*
X107722969Y-85772914D02*
X107722969Y-85725295D01*
X107722969Y-85725295D02*
X107770588Y-85630057D01*
X107770588Y-85630057D02*
X107818207Y-85582438D01*
X107818207Y-85582438D02*
X107913445Y-85534819D01*
X107913445Y-85534819D02*
X108103921Y-85534819D01*
X108103921Y-85534819D02*
X108199159Y-85582438D01*
X108199159Y-85582438D02*
X108246778Y-85630057D01*
X108246778Y-85630057D02*
X108294397Y-85725295D01*
X108294397Y-85725295D02*
X108294397Y-85772914D01*
X108294397Y-85772914D02*
X108246778Y-85868152D01*
X108246778Y-85868152D02*
X108199159Y-85915771D01*
X108199159Y-85915771D02*
X108103921Y-85963390D01*
X108103921Y-85963390D02*
X107913445Y-85963390D01*
X107913445Y-85963390D02*
X107818207Y-86011009D01*
X107818207Y-86011009D02*
X107770588Y-86058628D01*
X107770588Y-86058628D02*
X107722969Y-86153866D01*
X107722969Y-86153866D02*
X107722969Y-86344342D01*
X107722969Y-86344342D02*
X107770588Y-86439580D01*
X107770588Y-86439580D02*
X107818207Y-86487200D01*
X107818207Y-86487200D02*
X107913445Y-86534819D01*
X107913445Y-86534819D02*
X108103921Y-86534819D01*
X108103921Y-86534819D02*
X108199159Y-86487200D01*
X108199159Y-86487200D02*
X108246778Y-86439580D01*
X108246778Y-86439580D02*
X108294397Y-86344342D01*
X108294397Y-86344342D02*
X108294397Y-86153866D01*
X108294397Y-86153866D02*
X108246778Y-86058628D01*
X108246778Y-86058628D02*
X108199159Y-86011009D01*
X108199159Y-86011009D02*
X108103921Y-85963390D01*
X104770588Y-77962438D02*
X104675350Y-77914819D01*
X104675350Y-77914819D02*
X104532493Y-77914819D01*
X104532493Y-77914819D02*
X104389636Y-77962438D01*
X104389636Y-77962438D02*
X104294398Y-78057676D01*
X104294398Y-78057676D02*
X104246779Y-78152914D01*
X104246779Y-78152914D02*
X104199160Y-78343390D01*
X104199160Y-78343390D02*
X104199160Y-78486247D01*
X104199160Y-78486247D02*
X104246779Y-78676723D01*
X104246779Y-78676723D02*
X104294398Y-78771961D01*
X104294398Y-78771961D02*
X104389636Y-78867200D01*
X104389636Y-78867200D02*
X104532493Y-78914819D01*
X104532493Y-78914819D02*
X104627731Y-78914819D01*
X104627731Y-78914819D02*
X104770588Y-78867200D01*
X104770588Y-78867200D02*
X104818207Y-78819580D01*
X104818207Y-78819580D02*
X104818207Y-78486247D01*
X104818207Y-78486247D02*
X104627731Y-78486247D01*
X105246779Y-78914819D02*
X105246779Y-77914819D01*
X105246779Y-77914819D02*
X105627731Y-77914819D01*
X105627731Y-77914819D02*
X105722969Y-77962438D01*
X105722969Y-77962438D02*
X105770588Y-78010057D01*
X105770588Y-78010057D02*
X105818207Y-78105295D01*
X105818207Y-78105295D02*
X105818207Y-78248152D01*
X105818207Y-78248152D02*
X105770588Y-78343390D01*
X105770588Y-78343390D02*
X105722969Y-78391009D01*
X105722969Y-78391009D02*
X105627731Y-78438628D01*
X105627731Y-78438628D02*
X105246779Y-78438628D01*
X106246779Y-78914819D02*
X106246779Y-77914819D01*
X106913445Y-77914819D02*
X107103921Y-77914819D01*
X107103921Y-77914819D02*
X107199159Y-77962438D01*
X107199159Y-77962438D02*
X107294397Y-78057676D01*
X107294397Y-78057676D02*
X107342016Y-78248152D01*
X107342016Y-78248152D02*
X107342016Y-78581485D01*
X107342016Y-78581485D02*
X107294397Y-78771961D01*
X107294397Y-78771961D02*
X107199159Y-78867200D01*
X107199159Y-78867200D02*
X107103921Y-78914819D01*
X107103921Y-78914819D02*
X106913445Y-78914819D01*
X106913445Y-78914819D02*
X106818207Y-78867200D01*
X106818207Y-78867200D02*
X106722969Y-78771961D01*
X106722969Y-78771961D02*
X106675350Y-78581485D01*
X106675350Y-78581485D02*
X106675350Y-78248152D01*
X106675350Y-78248152D02*
X106722969Y-78057676D01*
X106722969Y-78057676D02*
X106818207Y-77962438D01*
X106818207Y-77962438D02*
X106913445Y-77914819D01*
X108294397Y-78914819D02*
X107722969Y-78914819D01*
X108008683Y-78914819D02*
X108008683Y-77914819D01*
X108008683Y-77914819D02*
X107913445Y-78057676D01*
X107913445Y-78057676D02*
X107818207Y-78152914D01*
X107818207Y-78152914D02*
X107722969Y-78200533D01*
X109151540Y-77914819D02*
X108961064Y-77914819D01*
X108961064Y-77914819D02*
X108865826Y-77962438D01*
X108865826Y-77962438D02*
X108818207Y-78010057D01*
X108818207Y-78010057D02*
X108722969Y-78152914D01*
X108722969Y-78152914D02*
X108675350Y-78343390D01*
X108675350Y-78343390D02*
X108675350Y-78724342D01*
X108675350Y-78724342D02*
X108722969Y-78819580D01*
X108722969Y-78819580D02*
X108770588Y-78867200D01*
X108770588Y-78867200D02*
X108865826Y-78914819D01*
X108865826Y-78914819D02*
X109056302Y-78914819D01*
X109056302Y-78914819D02*
X109151540Y-78867200D01*
X109151540Y-78867200D02*
X109199159Y-78819580D01*
X109199159Y-78819580D02*
X109246778Y-78724342D01*
X109246778Y-78724342D02*
X109246778Y-78486247D01*
X109246778Y-78486247D02*
X109199159Y-78391009D01*
X109199159Y-78391009D02*
X109151540Y-78343390D01*
X109151540Y-78343390D02*
X109056302Y-78295771D01*
X109056302Y-78295771D02*
X108865826Y-78295771D01*
X108865826Y-78295771D02*
X108770588Y-78343390D01*
X108770588Y-78343390D02*
X108722969Y-78391009D01*
X108722969Y-78391009D02*
X108675350Y-78486247D01*
X119464649Y-95742438D02*
X119369411Y-95694819D01*
X119369411Y-95694819D02*
X119226554Y-95694819D01*
X119226554Y-95694819D02*
X119083697Y-95742438D01*
X119083697Y-95742438D02*
X118988459Y-95837676D01*
X118988459Y-95837676D02*
X118940840Y-95932914D01*
X118940840Y-95932914D02*
X118893221Y-96123390D01*
X118893221Y-96123390D02*
X118893221Y-96266247D01*
X118893221Y-96266247D02*
X118940840Y-96456723D01*
X118940840Y-96456723D02*
X118988459Y-96551961D01*
X118988459Y-96551961D02*
X119083697Y-96647200D01*
X119083697Y-96647200D02*
X119226554Y-96694819D01*
X119226554Y-96694819D02*
X119321792Y-96694819D01*
X119321792Y-96694819D02*
X119464649Y-96647200D01*
X119464649Y-96647200D02*
X119512268Y-96599580D01*
X119512268Y-96599580D02*
X119512268Y-96266247D01*
X119512268Y-96266247D02*
X119321792Y-96266247D01*
X119940840Y-96694819D02*
X119940840Y-95694819D01*
X119940840Y-95694819D02*
X120321792Y-95694819D01*
X120321792Y-95694819D02*
X120417030Y-95742438D01*
X120417030Y-95742438D02*
X120464649Y-95790057D01*
X120464649Y-95790057D02*
X120512268Y-95885295D01*
X120512268Y-95885295D02*
X120512268Y-96028152D01*
X120512268Y-96028152D02*
X120464649Y-96123390D01*
X120464649Y-96123390D02*
X120417030Y-96171009D01*
X120417030Y-96171009D02*
X120321792Y-96218628D01*
X120321792Y-96218628D02*
X119940840Y-96218628D01*
X120940840Y-96694819D02*
X120940840Y-95694819D01*
X121607506Y-95694819D02*
X121797982Y-95694819D01*
X121797982Y-95694819D02*
X121893220Y-95742438D01*
X121893220Y-95742438D02*
X121988458Y-95837676D01*
X121988458Y-95837676D02*
X122036077Y-96028152D01*
X122036077Y-96028152D02*
X122036077Y-96361485D01*
X122036077Y-96361485D02*
X121988458Y-96551961D01*
X121988458Y-96551961D02*
X121893220Y-96647200D01*
X121893220Y-96647200D02*
X121797982Y-96694819D01*
X121797982Y-96694819D02*
X121607506Y-96694819D01*
X121607506Y-96694819D02*
X121512268Y-96647200D01*
X121512268Y-96647200D02*
X121417030Y-96551961D01*
X121417030Y-96551961D02*
X121369411Y-96361485D01*
X121369411Y-96361485D02*
X121369411Y-96028152D01*
X121369411Y-96028152D02*
X121417030Y-95837676D01*
X121417030Y-95837676D02*
X121512268Y-95742438D01*
X121512268Y-95742438D02*
X121607506Y-95694819D01*
X122893220Y-96028152D02*
X122893220Y-96694819D01*
X122655125Y-95647200D02*
X122417030Y-96361485D01*
X122417030Y-96361485D02*
X123036077Y-96361485D01*
X123559887Y-96123390D02*
X123464649Y-96075771D01*
X123464649Y-96075771D02*
X123417030Y-96028152D01*
X123417030Y-96028152D02*
X123369411Y-95932914D01*
X123369411Y-95932914D02*
X123369411Y-95885295D01*
X123369411Y-95885295D02*
X123417030Y-95790057D01*
X123417030Y-95790057D02*
X123464649Y-95742438D01*
X123464649Y-95742438D02*
X123559887Y-95694819D01*
X123559887Y-95694819D02*
X123750363Y-95694819D01*
X123750363Y-95694819D02*
X123845601Y-95742438D01*
X123845601Y-95742438D02*
X123893220Y-95790057D01*
X123893220Y-95790057D02*
X123940839Y-95885295D01*
X123940839Y-95885295D02*
X123940839Y-95932914D01*
X123940839Y-95932914D02*
X123893220Y-96028152D01*
X123893220Y-96028152D02*
X123845601Y-96075771D01*
X123845601Y-96075771D02*
X123750363Y-96123390D01*
X123750363Y-96123390D02*
X123559887Y-96123390D01*
X123559887Y-96123390D02*
X123464649Y-96171009D01*
X123464649Y-96171009D02*
X123417030Y-96218628D01*
X123417030Y-96218628D02*
X123369411Y-96313866D01*
X123369411Y-96313866D02*
X123369411Y-96504342D01*
X123369411Y-96504342D02*
X123417030Y-96599580D01*
X123417030Y-96599580D02*
X123464649Y-96647200D01*
X123464649Y-96647200D02*
X123559887Y-96694819D01*
X123559887Y-96694819D02*
X123750363Y-96694819D01*
X123750363Y-96694819D02*
X123845601Y-96647200D01*
X123845601Y-96647200D02*
X123893220Y-96599580D01*
X123893220Y-96599580D02*
X123940839Y-96504342D01*
X123940839Y-96504342D02*
X123940839Y-96313866D01*
X123940839Y-96313866D02*
X123893220Y-96218628D01*
X123893220Y-96218628D02*
X123845601Y-96171009D01*
X123845601Y-96171009D02*
X123750363Y-96123390D01*
X104770588Y-88122438D02*
X104675350Y-88074819D01*
X104675350Y-88074819D02*
X104532493Y-88074819D01*
X104532493Y-88074819D02*
X104389636Y-88122438D01*
X104389636Y-88122438D02*
X104294398Y-88217676D01*
X104294398Y-88217676D02*
X104246779Y-88312914D01*
X104246779Y-88312914D02*
X104199160Y-88503390D01*
X104199160Y-88503390D02*
X104199160Y-88646247D01*
X104199160Y-88646247D02*
X104246779Y-88836723D01*
X104246779Y-88836723D02*
X104294398Y-88931961D01*
X104294398Y-88931961D02*
X104389636Y-89027200D01*
X104389636Y-89027200D02*
X104532493Y-89074819D01*
X104532493Y-89074819D02*
X104627731Y-89074819D01*
X104627731Y-89074819D02*
X104770588Y-89027200D01*
X104770588Y-89027200D02*
X104818207Y-88979580D01*
X104818207Y-88979580D02*
X104818207Y-88646247D01*
X104818207Y-88646247D02*
X104627731Y-88646247D01*
X105246779Y-89074819D02*
X105246779Y-88074819D01*
X105246779Y-88074819D02*
X105627731Y-88074819D01*
X105627731Y-88074819D02*
X105722969Y-88122438D01*
X105722969Y-88122438D02*
X105770588Y-88170057D01*
X105770588Y-88170057D02*
X105818207Y-88265295D01*
X105818207Y-88265295D02*
X105818207Y-88408152D01*
X105818207Y-88408152D02*
X105770588Y-88503390D01*
X105770588Y-88503390D02*
X105722969Y-88551009D01*
X105722969Y-88551009D02*
X105627731Y-88598628D01*
X105627731Y-88598628D02*
X105246779Y-88598628D01*
X106246779Y-89074819D02*
X106246779Y-88074819D01*
X106913445Y-88074819D02*
X107103921Y-88074819D01*
X107103921Y-88074819D02*
X107199159Y-88122438D01*
X107199159Y-88122438D02*
X107294397Y-88217676D01*
X107294397Y-88217676D02*
X107342016Y-88408152D01*
X107342016Y-88408152D02*
X107342016Y-88741485D01*
X107342016Y-88741485D02*
X107294397Y-88931961D01*
X107294397Y-88931961D02*
X107199159Y-89027200D01*
X107199159Y-89027200D02*
X107103921Y-89074819D01*
X107103921Y-89074819D02*
X106913445Y-89074819D01*
X106913445Y-89074819D02*
X106818207Y-89027200D01*
X106818207Y-89027200D02*
X106722969Y-88931961D01*
X106722969Y-88931961D02*
X106675350Y-88741485D01*
X106675350Y-88741485D02*
X106675350Y-88408152D01*
X106675350Y-88408152D02*
X106722969Y-88217676D01*
X106722969Y-88217676D02*
X106818207Y-88122438D01*
X106818207Y-88122438D02*
X106913445Y-88074819D01*
X107675350Y-88074819D02*
X108294397Y-88074819D01*
X108294397Y-88074819D02*
X107961064Y-88455771D01*
X107961064Y-88455771D02*
X108103921Y-88455771D01*
X108103921Y-88455771D02*
X108199159Y-88503390D01*
X108199159Y-88503390D02*
X108246778Y-88551009D01*
X108246778Y-88551009D02*
X108294397Y-88646247D01*
X108294397Y-88646247D02*
X108294397Y-88884342D01*
X108294397Y-88884342D02*
X108246778Y-88979580D01*
X108246778Y-88979580D02*
X108199159Y-89027200D01*
X108199159Y-89027200D02*
X108103921Y-89074819D01*
X108103921Y-89074819D02*
X107818207Y-89074819D01*
X107818207Y-89074819D02*
X107722969Y-89027200D01*
X107722969Y-89027200D02*
X107675350Y-88979580D01*
X120417030Y-90662438D02*
X120321792Y-90614819D01*
X120321792Y-90614819D02*
X120178935Y-90614819D01*
X120178935Y-90614819D02*
X120036078Y-90662438D01*
X120036078Y-90662438D02*
X119940840Y-90757676D01*
X119940840Y-90757676D02*
X119893221Y-90852914D01*
X119893221Y-90852914D02*
X119845602Y-91043390D01*
X119845602Y-91043390D02*
X119845602Y-91186247D01*
X119845602Y-91186247D02*
X119893221Y-91376723D01*
X119893221Y-91376723D02*
X119940840Y-91471961D01*
X119940840Y-91471961D02*
X120036078Y-91567200D01*
X120036078Y-91567200D02*
X120178935Y-91614819D01*
X120178935Y-91614819D02*
X120274173Y-91614819D01*
X120274173Y-91614819D02*
X120417030Y-91567200D01*
X120417030Y-91567200D02*
X120464649Y-91519580D01*
X120464649Y-91519580D02*
X120464649Y-91186247D01*
X120464649Y-91186247D02*
X120274173Y-91186247D01*
X120893221Y-91614819D02*
X120893221Y-90614819D01*
X120893221Y-90614819D02*
X121274173Y-90614819D01*
X121274173Y-90614819D02*
X121369411Y-90662438D01*
X121369411Y-90662438D02*
X121417030Y-90710057D01*
X121417030Y-90710057D02*
X121464649Y-90805295D01*
X121464649Y-90805295D02*
X121464649Y-90948152D01*
X121464649Y-90948152D02*
X121417030Y-91043390D01*
X121417030Y-91043390D02*
X121369411Y-91091009D01*
X121369411Y-91091009D02*
X121274173Y-91138628D01*
X121274173Y-91138628D02*
X120893221Y-91138628D01*
X121893221Y-91614819D02*
X121893221Y-90614819D01*
X122559887Y-90614819D02*
X122750363Y-90614819D01*
X122750363Y-90614819D02*
X122845601Y-90662438D01*
X122845601Y-90662438D02*
X122940839Y-90757676D01*
X122940839Y-90757676D02*
X122988458Y-90948152D01*
X122988458Y-90948152D02*
X122988458Y-91281485D01*
X122988458Y-91281485D02*
X122940839Y-91471961D01*
X122940839Y-91471961D02*
X122845601Y-91567200D01*
X122845601Y-91567200D02*
X122750363Y-91614819D01*
X122750363Y-91614819D02*
X122559887Y-91614819D01*
X122559887Y-91614819D02*
X122464649Y-91567200D01*
X122464649Y-91567200D02*
X122369411Y-91471961D01*
X122369411Y-91471961D02*
X122321792Y-91281485D01*
X122321792Y-91281485D02*
X122321792Y-90948152D01*
X122321792Y-90948152D02*
X122369411Y-90757676D01*
X122369411Y-90757676D02*
X122464649Y-90662438D01*
X122464649Y-90662438D02*
X122559887Y-90614819D01*
X123607506Y-90614819D02*
X123702744Y-90614819D01*
X123702744Y-90614819D02*
X123797982Y-90662438D01*
X123797982Y-90662438D02*
X123845601Y-90710057D01*
X123845601Y-90710057D02*
X123893220Y-90805295D01*
X123893220Y-90805295D02*
X123940839Y-90995771D01*
X123940839Y-90995771D02*
X123940839Y-91233866D01*
X123940839Y-91233866D02*
X123893220Y-91424342D01*
X123893220Y-91424342D02*
X123845601Y-91519580D01*
X123845601Y-91519580D02*
X123797982Y-91567200D01*
X123797982Y-91567200D02*
X123702744Y-91614819D01*
X123702744Y-91614819D02*
X123607506Y-91614819D01*
X123607506Y-91614819D02*
X123512268Y-91567200D01*
X123512268Y-91567200D02*
X123464649Y-91519580D01*
X123464649Y-91519580D02*
X123417030Y-91424342D01*
X123417030Y-91424342D02*
X123369411Y-91233866D01*
X123369411Y-91233866D02*
X123369411Y-90995771D01*
X123369411Y-90995771D02*
X123417030Y-90805295D01*
X123417030Y-90805295D02*
X123464649Y-90710057D01*
X123464649Y-90710057D02*
X123512268Y-90662438D01*
X123512268Y-90662438D02*
X123607506Y-90614819D01*
X105020908Y-110979718D02*
X104925670Y-110932099D01*
X104925670Y-110932099D02*
X104782813Y-110932099D01*
X104782813Y-110932099D02*
X104639956Y-110979718D01*
X104639956Y-110979718D02*
X104544718Y-111074956D01*
X104544718Y-111074956D02*
X104497099Y-111170194D01*
X104497099Y-111170194D02*
X104449480Y-111360670D01*
X104449480Y-111360670D02*
X104449480Y-111503527D01*
X104449480Y-111503527D02*
X104497099Y-111694003D01*
X104497099Y-111694003D02*
X104544718Y-111789241D01*
X104544718Y-111789241D02*
X104639956Y-111884480D01*
X104639956Y-111884480D02*
X104782813Y-111932099D01*
X104782813Y-111932099D02*
X104878051Y-111932099D01*
X104878051Y-111932099D02*
X105020908Y-111884480D01*
X105020908Y-111884480D02*
X105068527Y-111836860D01*
X105068527Y-111836860D02*
X105068527Y-111503527D01*
X105068527Y-111503527D02*
X104878051Y-111503527D01*
X105497099Y-111932099D02*
X105497099Y-110932099D01*
X105497099Y-110932099D02*
X106068527Y-111932099D01*
X106068527Y-111932099D02*
X106068527Y-110932099D01*
X106544718Y-111932099D02*
X106544718Y-110932099D01*
X106544718Y-110932099D02*
X106782813Y-110932099D01*
X106782813Y-110932099D02*
X106925670Y-110979718D01*
X106925670Y-110979718D02*
X107020908Y-111074956D01*
X107020908Y-111074956D02*
X107068527Y-111170194D01*
X107068527Y-111170194D02*
X107116146Y-111360670D01*
X107116146Y-111360670D02*
X107116146Y-111503527D01*
X107116146Y-111503527D02*
X107068527Y-111694003D01*
X107068527Y-111694003D02*
X107020908Y-111789241D01*
X107020908Y-111789241D02*
X106925670Y-111884480D01*
X106925670Y-111884480D02*
X106782813Y-111932099D01*
X106782813Y-111932099D02*
X106544718Y-111932099D01*
X119464649Y-83042438D02*
X119369411Y-82994819D01*
X119369411Y-82994819D02*
X119226554Y-82994819D01*
X119226554Y-82994819D02*
X119083697Y-83042438D01*
X119083697Y-83042438D02*
X118988459Y-83137676D01*
X118988459Y-83137676D02*
X118940840Y-83232914D01*
X118940840Y-83232914D02*
X118893221Y-83423390D01*
X118893221Y-83423390D02*
X118893221Y-83566247D01*
X118893221Y-83566247D02*
X118940840Y-83756723D01*
X118940840Y-83756723D02*
X118988459Y-83851961D01*
X118988459Y-83851961D02*
X119083697Y-83947200D01*
X119083697Y-83947200D02*
X119226554Y-83994819D01*
X119226554Y-83994819D02*
X119321792Y-83994819D01*
X119321792Y-83994819D02*
X119464649Y-83947200D01*
X119464649Y-83947200D02*
X119512268Y-83899580D01*
X119512268Y-83899580D02*
X119512268Y-83566247D01*
X119512268Y-83566247D02*
X119321792Y-83566247D01*
X119940840Y-83994819D02*
X119940840Y-82994819D01*
X119940840Y-82994819D02*
X120321792Y-82994819D01*
X120321792Y-82994819D02*
X120417030Y-83042438D01*
X120417030Y-83042438D02*
X120464649Y-83090057D01*
X120464649Y-83090057D02*
X120512268Y-83185295D01*
X120512268Y-83185295D02*
X120512268Y-83328152D01*
X120512268Y-83328152D02*
X120464649Y-83423390D01*
X120464649Y-83423390D02*
X120417030Y-83471009D01*
X120417030Y-83471009D02*
X120321792Y-83518628D01*
X120321792Y-83518628D02*
X119940840Y-83518628D01*
X120940840Y-83994819D02*
X120940840Y-82994819D01*
X121607506Y-82994819D02*
X121797982Y-82994819D01*
X121797982Y-82994819D02*
X121893220Y-83042438D01*
X121893220Y-83042438D02*
X121988458Y-83137676D01*
X121988458Y-83137676D02*
X122036077Y-83328152D01*
X122036077Y-83328152D02*
X122036077Y-83661485D01*
X122036077Y-83661485D02*
X121988458Y-83851961D01*
X121988458Y-83851961D02*
X121893220Y-83947200D01*
X121893220Y-83947200D02*
X121797982Y-83994819D01*
X121797982Y-83994819D02*
X121607506Y-83994819D01*
X121607506Y-83994819D02*
X121512268Y-83947200D01*
X121512268Y-83947200D02*
X121417030Y-83851961D01*
X121417030Y-83851961D02*
X121369411Y-83661485D01*
X121369411Y-83661485D02*
X121369411Y-83328152D01*
X121369411Y-83328152D02*
X121417030Y-83137676D01*
X121417030Y-83137676D02*
X121512268Y-83042438D01*
X121512268Y-83042438D02*
X121607506Y-82994819D01*
X122369411Y-82994819D02*
X122988458Y-82994819D01*
X122988458Y-82994819D02*
X122655125Y-83375771D01*
X122655125Y-83375771D02*
X122797982Y-83375771D01*
X122797982Y-83375771D02*
X122893220Y-83423390D01*
X122893220Y-83423390D02*
X122940839Y-83471009D01*
X122940839Y-83471009D02*
X122988458Y-83566247D01*
X122988458Y-83566247D02*
X122988458Y-83804342D01*
X122988458Y-83804342D02*
X122940839Y-83899580D01*
X122940839Y-83899580D02*
X122893220Y-83947200D01*
X122893220Y-83947200D02*
X122797982Y-83994819D01*
X122797982Y-83994819D02*
X122512268Y-83994819D01*
X122512268Y-83994819D02*
X122417030Y-83947200D01*
X122417030Y-83947200D02*
X122369411Y-83899580D01*
X123321792Y-82994819D02*
X123988458Y-82994819D01*
X123988458Y-82994819D02*
X123559887Y-83994819D01*
X119464649Y-80502438D02*
X119369411Y-80454819D01*
X119369411Y-80454819D02*
X119226554Y-80454819D01*
X119226554Y-80454819D02*
X119083697Y-80502438D01*
X119083697Y-80502438D02*
X118988459Y-80597676D01*
X118988459Y-80597676D02*
X118940840Y-80692914D01*
X118940840Y-80692914D02*
X118893221Y-80883390D01*
X118893221Y-80883390D02*
X118893221Y-81026247D01*
X118893221Y-81026247D02*
X118940840Y-81216723D01*
X118940840Y-81216723D02*
X118988459Y-81311961D01*
X118988459Y-81311961D02*
X119083697Y-81407200D01*
X119083697Y-81407200D02*
X119226554Y-81454819D01*
X119226554Y-81454819D02*
X119321792Y-81454819D01*
X119321792Y-81454819D02*
X119464649Y-81407200D01*
X119464649Y-81407200D02*
X119512268Y-81359580D01*
X119512268Y-81359580D02*
X119512268Y-81026247D01*
X119512268Y-81026247D02*
X119321792Y-81026247D01*
X119940840Y-81454819D02*
X119940840Y-80454819D01*
X119940840Y-80454819D02*
X120321792Y-80454819D01*
X120321792Y-80454819D02*
X120417030Y-80502438D01*
X120417030Y-80502438D02*
X120464649Y-80550057D01*
X120464649Y-80550057D02*
X120512268Y-80645295D01*
X120512268Y-80645295D02*
X120512268Y-80788152D01*
X120512268Y-80788152D02*
X120464649Y-80883390D01*
X120464649Y-80883390D02*
X120417030Y-80931009D01*
X120417030Y-80931009D02*
X120321792Y-80978628D01*
X120321792Y-80978628D02*
X119940840Y-80978628D01*
X120940840Y-81454819D02*
X120940840Y-80454819D01*
X121607506Y-80454819D02*
X121797982Y-80454819D01*
X121797982Y-80454819D02*
X121893220Y-80502438D01*
X121893220Y-80502438D02*
X121988458Y-80597676D01*
X121988458Y-80597676D02*
X122036077Y-80788152D01*
X122036077Y-80788152D02*
X122036077Y-81121485D01*
X122036077Y-81121485D02*
X121988458Y-81311961D01*
X121988458Y-81311961D02*
X121893220Y-81407200D01*
X121893220Y-81407200D02*
X121797982Y-81454819D01*
X121797982Y-81454819D02*
X121607506Y-81454819D01*
X121607506Y-81454819D02*
X121512268Y-81407200D01*
X121512268Y-81407200D02*
X121417030Y-81311961D01*
X121417030Y-81311961D02*
X121369411Y-81121485D01*
X121369411Y-81121485D02*
X121369411Y-80788152D01*
X121369411Y-80788152D02*
X121417030Y-80597676D01*
X121417030Y-80597676D02*
X121512268Y-80502438D01*
X121512268Y-80502438D02*
X121607506Y-80454819D01*
X122369411Y-80454819D02*
X122988458Y-80454819D01*
X122988458Y-80454819D02*
X122655125Y-80835771D01*
X122655125Y-80835771D02*
X122797982Y-80835771D01*
X122797982Y-80835771D02*
X122893220Y-80883390D01*
X122893220Y-80883390D02*
X122940839Y-80931009D01*
X122940839Y-80931009D02*
X122988458Y-81026247D01*
X122988458Y-81026247D02*
X122988458Y-81264342D01*
X122988458Y-81264342D02*
X122940839Y-81359580D01*
X122940839Y-81359580D02*
X122893220Y-81407200D01*
X122893220Y-81407200D02*
X122797982Y-81454819D01*
X122797982Y-81454819D02*
X122512268Y-81454819D01*
X122512268Y-81454819D02*
X122417030Y-81407200D01*
X122417030Y-81407200D02*
X122369411Y-81359580D01*
X123559887Y-80883390D02*
X123464649Y-80835771D01*
X123464649Y-80835771D02*
X123417030Y-80788152D01*
X123417030Y-80788152D02*
X123369411Y-80692914D01*
X123369411Y-80692914D02*
X123369411Y-80645295D01*
X123369411Y-80645295D02*
X123417030Y-80550057D01*
X123417030Y-80550057D02*
X123464649Y-80502438D01*
X123464649Y-80502438D02*
X123559887Y-80454819D01*
X123559887Y-80454819D02*
X123750363Y-80454819D01*
X123750363Y-80454819D02*
X123845601Y-80502438D01*
X123845601Y-80502438D02*
X123893220Y-80550057D01*
X123893220Y-80550057D02*
X123940839Y-80645295D01*
X123940839Y-80645295D02*
X123940839Y-80692914D01*
X123940839Y-80692914D02*
X123893220Y-80788152D01*
X123893220Y-80788152D02*
X123845601Y-80835771D01*
X123845601Y-80835771D02*
X123750363Y-80883390D01*
X123750363Y-80883390D02*
X123559887Y-80883390D01*
X123559887Y-80883390D02*
X123464649Y-80931009D01*
X123464649Y-80931009D02*
X123417030Y-80978628D01*
X123417030Y-80978628D02*
X123369411Y-81073866D01*
X123369411Y-81073866D02*
X123369411Y-81264342D01*
X123369411Y-81264342D02*
X123417030Y-81359580D01*
X123417030Y-81359580D02*
X123464649Y-81407200D01*
X123464649Y-81407200D02*
X123559887Y-81454819D01*
X123559887Y-81454819D02*
X123750363Y-81454819D01*
X123750363Y-81454819D02*
X123845601Y-81407200D01*
X123845601Y-81407200D02*
X123893220Y-81359580D01*
X123893220Y-81359580D02*
X123940839Y-81264342D01*
X123940839Y-81264342D02*
X123940839Y-81073866D01*
X123940839Y-81073866D02*
X123893220Y-80978628D01*
X123893220Y-80978628D02*
X123845601Y-80931009D01*
X123845601Y-80931009D02*
X123750363Y-80883390D01*
X120417030Y-67802438D02*
X120321792Y-67754819D01*
X120321792Y-67754819D02*
X120178935Y-67754819D01*
X120178935Y-67754819D02*
X120036078Y-67802438D01*
X120036078Y-67802438D02*
X119940840Y-67897676D01*
X119940840Y-67897676D02*
X119893221Y-67992914D01*
X119893221Y-67992914D02*
X119845602Y-68183390D01*
X119845602Y-68183390D02*
X119845602Y-68326247D01*
X119845602Y-68326247D02*
X119893221Y-68516723D01*
X119893221Y-68516723D02*
X119940840Y-68611961D01*
X119940840Y-68611961D02*
X120036078Y-68707200D01*
X120036078Y-68707200D02*
X120178935Y-68754819D01*
X120178935Y-68754819D02*
X120274173Y-68754819D01*
X120274173Y-68754819D02*
X120417030Y-68707200D01*
X120417030Y-68707200D02*
X120464649Y-68659580D01*
X120464649Y-68659580D02*
X120464649Y-68326247D01*
X120464649Y-68326247D02*
X120274173Y-68326247D01*
X120893221Y-68754819D02*
X120893221Y-67754819D01*
X120893221Y-67754819D02*
X121274173Y-67754819D01*
X121274173Y-67754819D02*
X121369411Y-67802438D01*
X121369411Y-67802438D02*
X121417030Y-67850057D01*
X121417030Y-67850057D02*
X121464649Y-67945295D01*
X121464649Y-67945295D02*
X121464649Y-68088152D01*
X121464649Y-68088152D02*
X121417030Y-68183390D01*
X121417030Y-68183390D02*
X121369411Y-68231009D01*
X121369411Y-68231009D02*
X121274173Y-68278628D01*
X121274173Y-68278628D02*
X120893221Y-68278628D01*
X121893221Y-68754819D02*
X121893221Y-67754819D01*
X122559887Y-67754819D02*
X122750363Y-67754819D01*
X122750363Y-67754819D02*
X122845601Y-67802438D01*
X122845601Y-67802438D02*
X122940839Y-67897676D01*
X122940839Y-67897676D02*
X122988458Y-68088152D01*
X122988458Y-68088152D02*
X122988458Y-68421485D01*
X122988458Y-68421485D02*
X122940839Y-68611961D01*
X122940839Y-68611961D02*
X122845601Y-68707200D01*
X122845601Y-68707200D02*
X122750363Y-68754819D01*
X122750363Y-68754819D02*
X122559887Y-68754819D01*
X122559887Y-68754819D02*
X122464649Y-68707200D01*
X122464649Y-68707200D02*
X122369411Y-68611961D01*
X122369411Y-68611961D02*
X122321792Y-68421485D01*
X122321792Y-68421485D02*
X122321792Y-68088152D01*
X122321792Y-68088152D02*
X122369411Y-67897676D01*
X122369411Y-67897676D02*
X122464649Y-67802438D01*
X122464649Y-67802438D02*
X122559887Y-67754819D01*
X123369411Y-67850057D02*
X123417030Y-67802438D01*
X123417030Y-67802438D02*
X123512268Y-67754819D01*
X123512268Y-67754819D02*
X123750363Y-67754819D01*
X123750363Y-67754819D02*
X123845601Y-67802438D01*
X123845601Y-67802438D02*
X123893220Y-67850057D01*
X123893220Y-67850057D02*
X123940839Y-67945295D01*
X123940839Y-67945295D02*
X123940839Y-68040533D01*
X123940839Y-68040533D02*
X123893220Y-68183390D01*
X123893220Y-68183390D02*
X123321792Y-68754819D01*
X123321792Y-68754819D02*
X123940839Y-68754819D01*
X104770588Y-72882438D02*
X104675350Y-72834819D01*
X104675350Y-72834819D02*
X104532493Y-72834819D01*
X104532493Y-72834819D02*
X104389636Y-72882438D01*
X104389636Y-72882438D02*
X104294398Y-72977676D01*
X104294398Y-72977676D02*
X104246779Y-73072914D01*
X104246779Y-73072914D02*
X104199160Y-73263390D01*
X104199160Y-73263390D02*
X104199160Y-73406247D01*
X104199160Y-73406247D02*
X104246779Y-73596723D01*
X104246779Y-73596723D02*
X104294398Y-73691961D01*
X104294398Y-73691961D02*
X104389636Y-73787200D01*
X104389636Y-73787200D02*
X104532493Y-73834819D01*
X104532493Y-73834819D02*
X104627731Y-73834819D01*
X104627731Y-73834819D02*
X104770588Y-73787200D01*
X104770588Y-73787200D02*
X104818207Y-73739580D01*
X104818207Y-73739580D02*
X104818207Y-73406247D01*
X104818207Y-73406247D02*
X104627731Y-73406247D01*
X105246779Y-73834819D02*
X105246779Y-72834819D01*
X105246779Y-72834819D02*
X105627731Y-72834819D01*
X105627731Y-72834819D02*
X105722969Y-72882438D01*
X105722969Y-72882438D02*
X105770588Y-72930057D01*
X105770588Y-72930057D02*
X105818207Y-73025295D01*
X105818207Y-73025295D02*
X105818207Y-73168152D01*
X105818207Y-73168152D02*
X105770588Y-73263390D01*
X105770588Y-73263390D02*
X105722969Y-73311009D01*
X105722969Y-73311009D02*
X105627731Y-73358628D01*
X105627731Y-73358628D02*
X105246779Y-73358628D01*
X106246779Y-73834819D02*
X106246779Y-72834819D01*
X106913445Y-72834819D02*
X107103921Y-72834819D01*
X107103921Y-72834819D02*
X107199159Y-72882438D01*
X107199159Y-72882438D02*
X107294397Y-72977676D01*
X107294397Y-72977676D02*
X107342016Y-73168152D01*
X107342016Y-73168152D02*
X107342016Y-73501485D01*
X107342016Y-73501485D02*
X107294397Y-73691961D01*
X107294397Y-73691961D02*
X107199159Y-73787200D01*
X107199159Y-73787200D02*
X107103921Y-73834819D01*
X107103921Y-73834819D02*
X106913445Y-73834819D01*
X106913445Y-73834819D02*
X106818207Y-73787200D01*
X106818207Y-73787200D02*
X106722969Y-73691961D01*
X106722969Y-73691961D02*
X106675350Y-73501485D01*
X106675350Y-73501485D02*
X106675350Y-73168152D01*
X106675350Y-73168152D02*
X106722969Y-72977676D01*
X106722969Y-72977676D02*
X106818207Y-72882438D01*
X106818207Y-72882438D02*
X106913445Y-72834819D01*
X107675350Y-72834819D02*
X108342016Y-72834819D01*
X108342016Y-72834819D02*
X107913445Y-73834819D01*
X119464649Y-105902438D02*
X119369411Y-105854819D01*
X119369411Y-105854819D02*
X119226554Y-105854819D01*
X119226554Y-105854819D02*
X119083697Y-105902438D01*
X119083697Y-105902438D02*
X118988459Y-105997676D01*
X118988459Y-105997676D02*
X118940840Y-106092914D01*
X118940840Y-106092914D02*
X118893221Y-106283390D01*
X118893221Y-106283390D02*
X118893221Y-106426247D01*
X118893221Y-106426247D02*
X118940840Y-106616723D01*
X118940840Y-106616723D02*
X118988459Y-106711961D01*
X118988459Y-106711961D02*
X119083697Y-106807200D01*
X119083697Y-106807200D02*
X119226554Y-106854819D01*
X119226554Y-106854819D02*
X119321792Y-106854819D01*
X119321792Y-106854819D02*
X119464649Y-106807200D01*
X119464649Y-106807200D02*
X119512268Y-106759580D01*
X119512268Y-106759580D02*
X119512268Y-106426247D01*
X119512268Y-106426247D02*
X119321792Y-106426247D01*
X119940840Y-106854819D02*
X119940840Y-105854819D01*
X119940840Y-105854819D02*
X120321792Y-105854819D01*
X120321792Y-105854819D02*
X120417030Y-105902438D01*
X120417030Y-105902438D02*
X120464649Y-105950057D01*
X120464649Y-105950057D02*
X120512268Y-106045295D01*
X120512268Y-106045295D02*
X120512268Y-106188152D01*
X120512268Y-106188152D02*
X120464649Y-106283390D01*
X120464649Y-106283390D02*
X120417030Y-106331009D01*
X120417030Y-106331009D02*
X120321792Y-106378628D01*
X120321792Y-106378628D02*
X119940840Y-106378628D01*
X120940840Y-106854819D02*
X120940840Y-105854819D01*
X121607506Y-105854819D02*
X121797982Y-105854819D01*
X121797982Y-105854819D02*
X121893220Y-105902438D01*
X121893220Y-105902438D02*
X121988458Y-105997676D01*
X121988458Y-105997676D02*
X122036077Y-106188152D01*
X122036077Y-106188152D02*
X122036077Y-106521485D01*
X122036077Y-106521485D02*
X121988458Y-106711961D01*
X121988458Y-106711961D02*
X121893220Y-106807200D01*
X121893220Y-106807200D02*
X121797982Y-106854819D01*
X121797982Y-106854819D02*
X121607506Y-106854819D01*
X121607506Y-106854819D02*
X121512268Y-106807200D01*
X121512268Y-106807200D02*
X121417030Y-106711961D01*
X121417030Y-106711961D02*
X121369411Y-106521485D01*
X121369411Y-106521485D02*
X121369411Y-106188152D01*
X121369411Y-106188152D02*
X121417030Y-105997676D01*
X121417030Y-105997676D02*
X121512268Y-105902438D01*
X121512268Y-105902438D02*
X121607506Y-105854819D01*
X122988458Y-106854819D02*
X122417030Y-106854819D01*
X122702744Y-106854819D02*
X122702744Y-105854819D01*
X122702744Y-105854819D02*
X122607506Y-105997676D01*
X122607506Y-105997676D02*
X122512268Y-106092914D01*
X122512268Y-106092914D02*
X122417030Y-106140533D01*
X123464649Y-106854819D02*
X123655125Y-106854819D01*
X123655125Y-106854819D02*
X123750363Y-106807200D01*
X123750363Y-106807200D02*
X123797982Y-106759580D01*
X123797982Y-106759580D02*
X123893220Y-106616723D01*
X123893220Y-106616723D02*
X123940839Y-106426247D01*
X123940839Y-106426247D02*
X123940839Y-106045295D01*
X123940839Y-106045295D02*
X123893220Y-105950057D01*
X123893220Y-105950057D02*
X123845601Y-105902438D01*
X123845601Y-105902438D02*
X123750363Y-105854819D01*
X123750363Y-105854819D02*
X123559887Y-105854819D01*
X123559887Y-105854819D02*
X123464649Y-105902438D01*
X123464649Y-105902438D02*
X123417030Y-105950057D01*
X123417030Y-105950057D02*
X123369411Y-106045295D01*
X123369411Y-106045295D02*
X123369411Y-106283390D01*
X123369411Y-106283390D02*
X123417030Y-106378628D01*
X123417030Y-106378628D02*
X123464649Y-106426247D01*
X123464649Y-106426247D02*
X123559887Y-106473866D01*
X123559887Y-106473866D02*
X123750363Y-106473866D01*
X123750363Y-106473866D02*
X123845601Y-106426247D01*
X123845601Y-106426247D02*
X123893220Y-106378628D01*
X123893220Y-106378628D02*
X123940839Y-106283390D01*
X119464649Y-93202438D02*
X119369411Y-93154819D01*
X119369411Y-93154819D02*
X119226554Y-93154819D01*
X119226554Y-93154819D02*
X119083697Y-93202438D01*
X119083697Y-93202438D02*
X118988459Y-93297676D01*
X118988459Y-93297676D02*
X118940840Y-93392914D01*
X118940840Y-93392914D02*
X118893221Y-93583390D01*
X118893221Y-93583390D02*
X118893221Y-93726247D01*
X118893221Y-93726247D02*
X118940840Y-93916723D01*
X118940840Y-93916723D02*
X118988459Y-94011961D01*
X118988459Y-94011961D02*
X119083697Y-94107200D01*
X119083697Y-94107200D02*
X119226554Y-94154819D01*
X119226554Y-94154819D02*
X119321792Y-94154819D01*
X119321792Y-94154819D02*
X119464649Y-94107200D01*
X119464649Y-94107200D02*
X119512268Y-94059580D01*
X119512268Y-94059580D02*
X119512268Y-93726247D01*
X119512268Y-93726247D02*
X119321792Y-93726247D01*
X119940840Y-94154819D02*
X119940840Y-93154819D01*
X119940840Y-93154819D02*
X120321792Y-93154819D01*
X120321792Y-93154819D02*
X120417030Y-93202438D01*
X120417030Y-93202438D02*
X120464649Y-93250057D01*
X120464649Y-93250057D02*
X120512268Y-93345295D01*
X120512268Y-93345295D02*
X120512268Y-93488152D01*
X120512268Y-93488152D02*
X120464649Y-93583390D01*
X120464649Y-93583390D02*
X120417030Y-93631009D01*
X120417030Y-93631009D02*
X120321792Y-93678628D01*
X120321792Y-93678628D02*
X119940840Y-93678628D01*
X120940840Y-94154819D02*
X120940840Y-93154819D01*
X121607506Y-93154819D02*
X121797982Y-93154819D01*
X121797982Y-93154819D02*
X121893220Y-93202438D01*
X121893220Y-93202438D02*
X121988458Y-93297676D01*
X121988458Y-93297676D02*
X122036077Y-93488152D01*
X122036077Y-93488152D02*
X122036077Y-93821485D01*
X122036077Y-93821485D02*
X121988458Y-94011961D01*
X121988458Y-94011961D02*
X121893220Y-94107200D01*
X121893220Y-94107200D02*
X121797982Y-94154819D01*
X121797982Y-94154819D02*
X121607506Y-94154819D01*
X121607506Y-94154819D02*
X121512268Y-94107200D01*
X121512268Y-94107200D02*
X121417030Y-94011961D01*
X121417030Y-94011961D02*
X121369411Y-93821485D01*
X121369411Y-93821485D02*
X121369411Y-93488152D01*
X121369411Y-93488152D02*
X121417030Y-93297676D01*
X121417030Y-93297676D02*
X121512268Y-93202438D01*
X121512268Y-93202438D02*
X121607506Y-93154819D01*
X122893220Y-93488152D02*
X122893220Y-94154819D01*
X122655125Y-93107200D02*
X122417030Y-93821485D01*
X122417030Y-93821485D02*
X123036077Y-93821485D01*
X123893220Y-93154819D02*
X123417030Y-93154819D01*
X123417030Y-93154819D02*
X123369411Y-93631009D01*
X123369411Y-93631009D02*
X123417030Y-93583390D01*
X123417030Y-93583390D02*
X123512268Y-93535771D01*
X123512268Y-93535771D02*
X123750363Y-93535771D01*
X123750363Y-93535771D02*
X123845601Y-93583390D01*
X123845601Y-93583390D02*
X123893220Y-93631009D01*
X123893220Y-93631009D02*
X123940839Y-93726247D01*
X123940839Y-93726247D02*
X123940839Y-93964342D01*
X123940839Y-93964342D02*
X123893220Y-94059580D01*
X123893220Y-94059580D02*
X123845601Y-94107200D01*
X123845601Y-94107200D02*
X123750363Y-94154819D01*
X123750363Y-94154819D02*
X123512268Y-94154819D01*
X123512268Y-94154819D02*
X123417030Y-94107200D01*
X123417030Y-94107200D02*
X123369411Y-94059580D01*
X119464649Y-88122438D02*
X119369411Y-88074819D01*
X119369411Y-88074819D02*
X119226554Y-88074819D01*
X119226554Y-88074819D02*
X119083697Y-88122438D01*
X119083697Y-88122438D02*
X118988459Y-88217676D01*
X118988459Y-88217676D02*
X118940840Y-88312914D01*
X118940840Y-88312914D02*
X118893221Y-88503390D01*
X118893221Y-88503390D02*
X118893221Y-88646247D01*
X118893221Y-88646247D02*
X118940840Y-88836723D01*
X118940840Y-88836723D02*
X118988459Y-88931961D01*
X118988459Y-88931961D02*
X119083697Y-89027200D01*
X119083697Y-89027200D02*
X119226554Y-89074819D01*
X119226554Y-89074819D02*
X119321792Y-89074819D01*
X119321792Y-89074819D02*
X119464649Y-89027200D01*
X119464649Y-89027200D02*
X119512268Y-88979580D01*
X119512268Y-88979580D02*
X119512268Y-88646247D01*
X119512268Y-88646247D02*
X119321792Y-88646247D01*
X119940840Y-89074819D02*
X119940840Y-88074819D01*
X119940840Y-88074819D02*
X120321792Y-88074819D01*
X120321792Y-88074819D02*
X120417030Y-88122438D01*
X120417030Y-88122438D02*
X120464649Y-88170057D01*
X120464649Y-88170057D02*
X120512268Y-88265295D01*
X120512268Y-88265295D02*
X120512268Y-88408152D01*
X120512268Y-88408152D02*
X120464649Y-88503390D01*
X120464649Y-88503390D02*
X120417030Y-88551009D01*
X120417030Y-88551009D02*
X120321792Y-88598628D01*
X120321792Y-88598628D02*
X119940840Y-88598628D01*
X120940840Y-89074819D02*
X120940840Y-88074819D01*
X121607506Y-88074819D02*
X121797982Y-88074819D01*
X121797982Y-88074819D02*
X121893220Y-88122438D01*
X121893220Y-88122438D02*
X121988458Y-88217676D01*
X121988458Y-88217676D02*
X122036077Y-88408152D01*
X122036077Y-88408152D02*
X122036077Y-88741485D01*
X122036077Y-88741485D02*
X121988458Y-88931961D01*
X121988458Y-88931961D02*
X121893220Y-89027200D01*
X121893220Y-89027200D02*
X121797982Y-89074819D01*
X121797982Y-89074819D02*
X121607506Y-89074819D01*
X121607506Y-89074819D02*
X121512268Y-89027200D01*
X121512268Y-89027200D02*
X121417030Y-88931961D01*
X121417030Y-88931961D02*
X121369411Y-88741485D01*
X121369411Y-88741485D02*
X121369411Y-88408152D01*
X121369411Y-88408152D02*
X121417030Y-88217676D01*
X121417030Y-88217676D02*
X121512268Y-88122438D01*
X121512268Y-88122438D02*
X121607506Y-88074819D01*
X122369411Y-88074819D02*
X122988458Y-88074819D01*
X122988458Y-88074819D02*
X122655125Y-88455771D01*
X122655125Y-88455771D02*
X122797982Y-88455771D01*
X122797982Y-88455771D02*
X122893220Y-88503390D01*
X122893220Y-88503390D02*
X122940839Y-88551009D01*
X122940839Y-88551009D02*
X122988458Y-88646247D01*
X122988458Y-88646247D02*
X122988458Y-88884342D01*
X122988458Y-88884342D02*
X122940839Y-88979580D01*
X122940839Y-88979580D02*
X122893220Y-89027200D01*
X122893220Y-89027200D02*
X122797982Y-89074819D01*
X122797982Y-89074819D02*
X122512268Y-89074819D01*
X122512268Y-89074819D02*
X122417030Y-89027200D01*
X122417030Y-89027200D02*
X122369411Y-88979580D01*
X123893220Y-88074819D02*
X123417030Y-88074819D01*
X123417030Y-88074819D02*
X123369411Y-88551009D01*
X123369411Y-88551009D02*
X123417030Y-88503390D01*
X123417030Y-88503390D02*
X123512268Y-88455771D01*
X123512268Y-88455771D02*
X123750363Y-88455771D01*
X123750363Y-88455771D02*
X123845601Y-88503390D01*
X123845601Y-88503390D02*
X123893220Y-88551009D01*
X123893220Y-88551009D02*
X123940839Y-88646247D01*
X123940839Y-88646247D02*
X123940839Y-88884342D01*
X123940839Y-88884342D02*
X123893220Y-88979580D01*
X123893220Y-88979580D02*
X123845601Y-89027200D01*
X123845601Y-89027200D02*
X123750363Y-89074819D01*
X123750363Y-89074819D02*
X123512268Y-89074819D01*
X123512268Y-89074819D02*
X123417030Y-89027200D01*
X123417030Y-89027200D02*
X123369411Y-88979580D01*
X104770588Y-100822438D02*
X104675350Y-100774819D01*
X104675350Y-100774819D02*
X104532493Y-100774819D01*
X104532493Y-100774819D02*
X104389636Y-100822438D01*
X104389636Y-100822438D02*
X104294398Y-100917676D01*
X104294398Y-100917676D02*
X104246779Y-101012914D01*
X104246779Y-101012914D02*
X104199160Y-101203390D01*
X104199160Y-101203390D02*
X104199160Y-101346247D01*
X104199160Y-101346247D02*
X104246779Y-101536723D01*
X104246779Y-101536723D02*
X104294398Y-101631961D01*
X104294398Y-101631961D02*
X104389636Y-101727200D01*
X104389636Y-101727200D02*
X104532493Y-101774819D01*
X104532493Y-101774819D02*
X104627731Y-101774819D01*
X104627731Y-101774819D02*
X104770588Y-101727200D01*
X104770588Y-101727200D02*
X104818207Y-101679580D01*
X104818207Y-101679580D02*
X104818207Y-101346247D01*
X104818207Y-101346247D02*
X104627731Y-101346247D01*
X105246779Y-101774819D02*
X105246779Y-100774819D01*
X105246779Y-100774819D02*
X105627731Y-100774819D01*
X105627731Y-100774819D02*
X105722969Y-100822438D01*
X105722969Y-100822438D02*
X105770588Y-100870057D01*
X105770588Y-100870057D02*
X105818207Y-100965295D01*
X105818207Y-100965295D02*
X105818207Y-101108152D01*
X105818207Y-101108152D02*
X105770588Y-101203390D01*
X105770588Y-101203390D02*
X105722969Y-101251009D01*
X105722969Y-101251009D02*
X105627731Y-101298628D01*
X105627731Y-101298628D02*
X105246779Y-101298628D01*
X106246779Y-101774819D02*
X106246779Y-100774819D01*
X106913445Y-100774819D02*
X107103921Y-100774819D01*
X107103921Y-100774819D02*
X107199159Y-100822438D01*
X107199159Y-100822438D02*
X107294397Y-100917676D01*
X107294397Y-100917676D02*
X107342016Y-101108152D01*
X107342016Y-101108152D02*
X107342016Y-101441485D01*
X107342016Y-101441485D02*
X107294397Y-101631961D01*
X107294397Y-101631961D02*
X107199159Y-101727200D01*
X107199159Y-101727200D02*
X107103921Y-101774819D01*
X107103921Y-101774819D02*
X106913445Y-101774819D01*
X106913445Y-101774819D02*
X106818207Y-101727200D01*
X106818207Y-101727200D02*
X106722969Y-101631961D01*
X106722969Y-101631961D02*
X106675350Y-101441485D01*
X106675350Y-101441485D02*
X106675350Y-101108152D01*
X106675350Y-101108152D02*
X106722969Y-100917676D01*
X106722969Y-100917676D02*
X106818207Y-100822438D01*
X106818207Y-100822438D02*
X106913445Y-100774819D01*
X108294397Y-101774819D02*
X107722969Y-101774819D01*
X108008683Y-101774819D02*
X108008683Y-100774819D01*
X108008683Y-100774819D02*
X107913445Y-100917676D01*
X107913445Y-100917676D02*
X107818207Y-101012914D01*
X107818207Y-101012914D02*
X107722969Y-101060533D01*
X108675350Y-100870057D02*
X108722969Y-100822438D01*
X108722969Y-100822438D02*
X108818207Y-100774819D01*
X108818207Y-100774819D02*
X109056302Y-100774819D01*
X109056302Y-100774819D02*
X109151540Y-100822438D01*
X109151540Y-100822438D02*
X109199159Y-100870057D01*
X109199159Y-100870057D02*
X109246778Y-100965295D01*
X109246778Y-100965295D02*
X109246778Y-101060533D01*
X109246778Y-101060533D02*
X109199159Y-101203390D01*
X109199159Y-101203390D02*
X108627731Y-101774819D01*
X108627731Y-101774819D02*
X109246778Y-101774819D01*
X121845601Y-108442438D02*
X121750363Y-108394819D01*
X121750363Y-108394819D02*
X121607506Y-108394819D01*
X121607506Y-108394819D02*
X121464649Y-108442438D01*
X121464649Y-108442438D02*
X121369411Y-108537676D01*
X121369411Y-108537676D02*
X121321792Y-108632914D01*
X121321792Y-108632914D02*
X121274173Y-108823390D01*
X121274173Y-108823390D02*
X121274173Y-108966247D01*
X121274173Y-108966247D02*
X121321792Y-109156723D01*
X121321792Y-109156723D02*
X121369411Y-109251961D01*
X121369411Y-109251961D02*
X121464649Y-109347200D01*
X121464649Y-109347200D02*
X121607506Y-109394819D01*
X121607506Y-109394819D02*
X121702744Y-109394819D01*
X121702744Y-109394819D02*
X121845601Y-109347200D01*
X121845601Y-109347200D02*
X121893220Y-109299580D01*
X121893220Y-109299580D02*
X121893220Y-108966247D01*
X121893220Y-108966247D02*
X121702744Y-108966247D01*
X122321792Y-109394819D02*
X122321792Y-108394819D01*
X122321792Y-108394819D02*
X122893220Y-109394819D01*
X122893220Y-109394819D02*
X122893220Y-108394819D01*
X123369411Y-109394819D02*
X123369411Y-108394819D01*
X123369411Y-108394819D02*
X123607506Y-108394819D01*
X123607506Y-108394819D02*
X123750363Y-108442438D01*
X123750363Y-108442438D02*
X123845601Y-108537676D01*
X123845601Y-108537676D02*
X123893220Y-108632914D01*
X123893220Y-108632914D02*
X123940839Y-108823390D01*
X123940839Y-108823390D02*
X123940839Y-108966247D01*
X123940839Y-108966247D02*
X123893220Y-109156723D01*
X123893220Y-109156723D02*
X123845601Y-109251961D01*
X123845601Y-109251961D02*
X123750363Y-109347200D01*
X123750363Y-109347200D02*
X123607506Y-109394819D01*
X123607506Y-109394819D02*
X123369411Y-109394819D01*
X119464649Y-98282438D02*
X119369411Y-98234819D01*
X119369411Y-98234819D02*
X119226554Y-98234819D01*
X119226554Y-98234819D02*
X119083697Y-98282438D01*
X119083697Y-98282438D02*
X118988459Y-98377676D01*
X118988459Y-98377676D02*
X118940840Y-98472914D01*
X118940840Y-98472914D02*
X118893221Y-98663390D01*
X118893221Y-98663390D02*
X118893221Y-98806247D01*
X118893221Y-98806247D02*
X118940840Y-98996723D01*
X118940840Y-98996723D02*
X118988459Y-99091961D01*
X118988459Y-99091961D02*
X119083697Y-99187200D01*
X119083697Y-99187200D02*
X119226554Y-99234819D01*
X119226554Y-99234819D02*
X119321792Y-99234819D01*
X119321792Y-99234819D02*
X119464649Y-99187200D01*
X119464649Y-99187200D02*
X119512268Y-99139580D01*
X119512268Y-99139580D02*
X119512268Y-98806247D01*
X119512268Y-98806247D02*
X119321792Y-98806247D01*
X119940840Y-99234819D02*
X119940840Y-98234819D01*
X119940840Y-98234819D02*
X120321792Y-98234819D01*
X120321792Y-98234819D02*
X120417030Y-98282438D01*
X120417030Y-98282438D02*
X120464649Y-98330057D01*
X120464649Y-98330057D02*
X120512268Y-98425295D01*
X120512268Y-98425295D02*
X120512268Y-98568152D01*
X120512268Y-98568152D02*
X120464649Y-98663390D01*
X120464649Y-98663390D02*
X120417030Y-98711009D01*
X120417030Y-98711009D02*
X120321792Y-98758628D01*
X120321792Y-98758628D02*
X119940840Y-98758628D01*
X120940840Y-99234819D02*
X120940840Y-98234819D01*
X121607506Y-98234819D02*
X121797982Y-98234819D01*
X121797982Y-98234819D02*
X121893220Y-98282438D01*
X121893220Y-98282438D02*
X121988458Y-98377676D01*
X121988458Y-98377676D02*
X122036077Y-98568152D01*
X122036077Y-98568152D02*
X122036077Y-98901485D01*
X122036077Y-98901485D02*
X121988458Y-99091961D01*
X121988458Y-99091961D02*
X121893220Y-99187200D01*
X121893220Y-99187200D02*
X121797982Y-99234819D01*
X121797982Y-99234819D02*
X121607506Y-99234819D01*
X121607506Y-99234819D02*
X121512268Y-99187200D01*
X121512268Y-99187200D02*
X121417030Y-99091961D01*
X121417030Y-99091961D02*
X121369411Y-98901485D01*
X121369411Y-98901485D02*
X121369411Y-98568152D01*
X121369411Y-98568152D02*
X121417030Y-98377676D01*
X121417030Y-98377676D02*
X121512268Y-98282438D01*
X121512268Y-98282438D02*
X121607506Y-98234819D01*
X122893220Y-98568152D02*
X122893220Y-99234819D01*
X122655125Y-98187200D02*
X122417030Y-98901485D01*
X122417030Y-98901485D02*
X123036077Y-98901485D01*
X123321792Y-98234819D02*
X123988458Y-98234819D01*
X123988458Y-98234819D02*
X123559887Y-99234819D01*
X119464649Y-100822438D02*
X119369411Y-100774819D01*
X119369411Y-100774819D02*
X119226554Y-100774819D01*
X119226554Y-100774819D02*
X119083697Y-100822438D01*
X119083697Y-100822438D02*
X118988459Y-100917676D01*
X118988459Y-100917676D02*
X118940840Y-101012914D01*
X118940840Y-101012914D02*
X118893221Y-101203390D01*
X118893221Y-101203390D02*
X118893221Y-101346247D01*
X118893221Y-101346247D02*
X118940840Y-101536723D01*
X118940840Y-101536723D02*
X118988459Y-101631961D01*
X118988459Y-101631961D02*
X119083697Y-101727200D01*
X119083697Y-101727200D02*
X119226554Y-101774819D01*
X119226554Y-101774819D02*
X119321792Y-101774819D01*
X119321792Y-101774819D02*
X119464649Y-101727200D01*
X119464649Y-101727200D02*
X119512268Y-101679580D01*
X119512268Y-101679580D02*
X119512268Y-101346247D01*
X119512268Y-101346247D02*
X119321792Y-101346247D01*
X119940840Y-101774819D02*
X119940840Y-100774819D01*
X119940840Y-100774819D02*
X120321792Y-100774819D01*
X120321792Y-100774819D02*
X120417030Y-100822438D01*
X120417030Y-100822438D02*
X120464649Y-100870057D01*
X120464649Y-100870057D02*
X120512268Y-100965295D01*
X120512268Y-100965295D02*
X120512268Y-101108152D01*
X120512268Y-101108152D02*
X120464649Y-101203390D01*
X120464649Y-101203390D02*
X120417030Y-101251009D01*
X120417030Y-101251009D02*
X120321792Y-101298628D01*
X120321792Y-101298628D02*
X119940840Y-101298628D01*
X120940840Y-101774819D02*
X120940840Y-100774819D01*
X121607506Y-100774819D02*
X121797982Y-100774819D01*
X121797982Y-100774819D02*
X121893220Y-100822438D01*
X121893220Y-100822438D02*
X121988458Y-100917676D01*
X121988458Y-100917676D02*
X122036077Y-101108152D01*
X122036077Y-101108152D02*
X122036077Y-101441485D01*
X122036077Y-101441485D02*
X121988458Y-101631961D01*
X121988458Y-101631961D02*
X121893220Y-101727200D01*
X121893220Y-101727200D02*
X121797982Y-101774819D01*
X121797982Y-101774819D02*
X121607506Y-101774819D01*
X121607506Y-101774819D02*
X121512268Y-101727200D01*
X121512268Y-101727200D02*
X121417030Y-101631961D01*
X121417030Y-101631961D02*
X121369411Y-101441485D01*
X121369411Y-101441485D02*
X121369411Y-101108152D01*
X121369411Y-101108152D02*
X121417030Y-100917676D01*
X121417030Y-100917676D02*
X121512268Y-100822438D01*
X121512268Y-100822438D02*
X121607506Y-100774819D01*
X122417030Y-100870057D02*
X122464649Y-100822438D01*
X122464649Y-100822438D02*
X122559887Y-100774819D01*
X122559887Y-100774819D02*
X122797982Y-100774819D01*
X122797982Y-100774819D02*
X122893220Y-100822438D01*
X122893220Y-100822438D02*
X122940839Y-100870057D01*
X122940839Y-100870057D02*
X122988458Y-100965295D01*
X122988458Y-100965295D02*
X122988458Y-101060533D01*
X122988458Y-101060533D02*
X122940839Y-101203390D01*
X122940839Y-101203390D02*
X122369411Y-101774819D01*
X122369411Y-101774819D02*
X122988458Y-101774819D01*
X123940839Y-101774819D02*
X123369411Y-101774819D01*
X123655125Y-101774819D02*
X123655125Y-100774819D01*
X123655125Y-100774819D02*
X123559887Y-100917676D01*
X123559887Y-100917676D02*
X123464649Y-101012914D01*
X123464649Y-101012914D02*
X123369411Y-101060533D01*
X104770588Y-65262438D02*
X104675350Y-65214819D01*
X104675350Y-65214819D02*
X104532493Y-65214819D01*
X104532493Y-65214819D02*
X104389636Y-65262438D01*
X104389636Y-65262438D02*
X104294398Y-65357676D01*
X104294398Y-65357676D02*
X104246779Y-65452914D01*
X104246779Y-65452914D02*
X104199160Y-65643390D01*
X104199160Y-65643390D02*
X104199160Y-65786247D01*
X104199160Y-65786247D02*
X104246779Y-65976723D01*
X104246779Y-65976723D02*
X104294398Y-66071961D01*
X104294398Y-66071961D02*
X104389636Y-66167200D01*
X104389636Y-66167200D02*
X104532493Y-66214819D01*
X104532493Y-66214819D02*
X104627731Y-66214819D01*
X104627731Y-66214819D02*
X104770588Y-66167200D01*
X104770588Y-66167200D02*
X104818207Y-66119580D01*
X104818207Y-66119580D02*
X104818207Y-65786247D01*
X104818207Y-65786247D02*
X104627731Y-65786247D01*
X105246779Y-66214819D02*
X105246779Y-65214819D01*
X105246779Y-65214819D02*
X105627731Y-65214819D01*
X105627731Y-65214819D02*
X105722969Y-65262438D01*
X105722969Y-65262438D02*
X105770588Y-65310057D01*
X105770588Y-65310057D02*
X105818207Y-65405295D01*
X105818207Y-65405295D02*
X105818207Y-65548152D01*
X105818207Y-65548152D02*
X105770588Y-65643390D01*
X105770588Y-65643390D02*
X105722969Y-65691009D01*
X105722969Y-65691009D02*
X105627731Y-65738628D01*
X105627731Y-65738628D02*
X105246779Y-65738628D01*
X106246779Y-66214819D02*
X106246779Y-65214819D01*
X106913445Y-65214819D02*
X107103921Y-65214819D01*
X107103921Y-65214819D02*
X107199159Y-65262438D01*
X107199159Y-65262438D02*
X107294397Y-65357676D01*
X107294397Y-65357676D02*
X107342016Y-65548152D01*
X107342016Y-65548152D02*
X107342016Y-65881485D01*
X107342016Y-65881485D02*
X107294397Y-66071961D01*
X107294397Y-66071961D02*
X107199159Y-66167200D01*
X107199159Y-66167200D02*
X107103921Y-66214819D01*
X107103921Y-66214819D02*
X106913445Y-66214819D01*
X106913445Y-66214819D02*
X106818207Y-66167200D01*
X106818207Y-66167200D02*
X106722969Y-66071961D01*
X106722969Y-66071961D02*
X106675350Y-65881485D01*
X106675350Y-65881485D02*
X106675350Y-65548152D01*
X106675350Y-65548152D02*
X106722969Y-65357676D01*
X106722969Y-65357676D02*
X106818207Y-65262438D01*
X106818207Y-65262438D02*
X106913445Y-65214819D01*
X108199159Y-65548152D02*
X108199159Y-66214819D01*
X107961064Y-65167200D02*
X107722969Y-65881485D01*
X107722969Y-65881485D02*
X108342016Y-65881485D01*
X114464649Y-75422438D02*
X114369411Y-75374819D01*
X114369411Y-75374819D02*
X114226554Y-75374819D01*
X114226554Y-75374819D02*
X114083697Y-75422438D01*
X114083697Y-75422438D02*
X113988459Y-75517676D01*
X113988459Y-75517676D02*
X113940840Y-75612914D01*
X113940840Y-75612914D02*
X113893221Y-75803390D01*
X113893221Y-75803390D02*
X113893221Y-75946247D01*
X113893221Y-75946247D02*
X113940840Y-76136723D01*
X113940840Y-76136723D02*
X113988459Y-76231961D01*
X113988459Y-76231961D02*
X114083697Y-76327200D01*
X114083697Y-76327200D02*
X114226554Y-76374819D01*
X114226554Y-76374819D02*
X114321792Y-76374819D01*
X114321792Y-76374819D02*
X114464649Y-76327200D01*
X114464649Y-76327200D02*
X114512268Y-76279580D01*
X114512268Y-76279580D02*
X114512268Y-75946247D01*
X114512268Y-75946247D02*
X114321792Y-75946247D01*
X114940840Y-76374819D02*
X114940840Y-75374819D01*
X114940840Y-75374819D02*
X115321792Y-75374819D01*
X115321792Y-75374819D02*
X115417030Y-75422438D01*
X115417030Y-75422438D02*
X115464649Y-75470057D01*
X115464649Y-75470057D02*
X115512268Y-75565295D01*
X115512268Y-75565295D02*
X115512268Y-75708152D01*
X115512268Y-75708152D02*
X115464649Y-75803390D01*
X115464649Y-75803390D02*
X115417030Y-75851009D01*
X115417030Y-75851009D02*
X115321792Y-75898628D01*
X115321792Y-75898628D02*
X114940840Y-75898628D01*
X115940840Y-76374819D02*
X115940840Y-75374819D01*
X116607506Y-75374819D02*
X116797982Y-75374819D01*
X116797982Y-75374819D02*
X116893220Y-75422438D01*
X116893220Y-75422438D02*
X116988458Y-75517676D01*
X116988458Y-75517676D02*
X117036077Y-75708152D01*
X117036077Y-75708152D02*
X117036077Y-76041485D01*
X117036077Y-76041485D02*
X116988458Y-76231961D01*
X116988458Y-76231961D02*
X116893220Y-76327200D01*
X116893220Y-76327200D02*
X116797982Y-76374819D01*
X116797982Y-76374819D02*
X116607506Y-76374819D01*
X116607506Y-76374819D02*
X116512268Y-76327200D01*
X116512268Y-76327200D02*
X116417030Y-76231961D01*
X116417030Y-76231961D02*
X116369411Y-76041485D01*
X116369411Y-76041485D02*
X116369411Y-75708152D01*
X116369411Y-75708152D02*
X116417030Y-75517676D01*
X116417030Y-75517676D02*
X116512268Y-75422438D01*
X116512268Y-75422438D02*
X116607506Y-75374819D01*
X117893220Y-75708152D02*
X117893220Y-76374819D01*
X117655125Y-75327200D02*
X117417030Y-76041485D01*
X117417030Y-76041485D02*
X118036077Y-76041485D01*
X118607506Y-75374819D02*
X118702744Y-75374819D01*
X118702744Y-75374819D02*
X118797982Y-75422438D01*
X118797982Y-75422438D02*
X118845601Y-75470057D01*
X118845601Y-75470057D02*
X118893220Y-75565295D01*
X118893220Y-75565295D02*
X118940839Y-75755771D01*
X118940839Y-75755771D02*
X118940839Y-75993866D01*
X118940839Y-75993866D02*
X118893220Y-76184342D01*
X118893220Y-76184342D02*
X118845601Y-76279580D01*
X118845601Y-76279580D02*
X118797982Y-76327200D01*
X118797982Y-76327200D02*
X118702744Y-76374819D01*
X118702744Y-76374819D02*
X118607506Y-76374819D01*
X118607506Y-76374819D02*
X118512268Y-76327200D01*
X118512268Y-76327200D02*
X118464649Y-76279580D01*
X118464649Y-76279580D02*
X118417030Y-76184342D01*
X118417030Y-76184342D02*
X118369411Y-75993866D01*
X118369411Y-75993866D02*
X118369411Y-75755771D01*
X118369411Y-75755771D02*
X118417030Y-75565295D01*
X118417030Y-75565295D02*
X118464649Y-75470057D01*
X118464649Y-75470057D02*
X118512268Y-75422438D01*
X118512268Y-75422438D02*
X118607506Y-75374819D01*
X120083696Y-75327200D02*
X119226554Y-76612914D01*
X120417030Y-76374819D02*
X120417030Y-75374819D01*
X120417030Y-75374819D02*
X120750363Y-76089104D01*
X120750363Y-76089104D02*
X121083696Y-75374819D01*
X121083696Y-75374819D02*
X121083696Y-76374819D01*
X121417030Y-75374819D02*
X121988458Y-75374819D01*
X121702744Y-76374819D02*
X121702744Y-75374819D01*
X122321792Y-76374819D02*
X122321792Y-75374819D01*
X122321792Y-75374819D02*
X122559887Y-75374819D01*
X122559887Y-75374819D02*
X122702744Y-75422438D01*
X122702744Y-75422438D02*
X122797982Y-75517676D01*
X122797982Y-75517676D02*
X122845601Y-75612914D01*
X122845601Y-75612914D02*
X122893220Y-75803390D01*
X122893220Y-75803390D02*
X122893220Y-75946247D01*
X122893220Y-75946247D02*
X122845601Y-76136723D01*
X122845601Y-76136723D02*
X122797982Y-76231961D01*
X122797982Y-76231961D02*
X122702744Y-76327200D01*
X122702744Y-76327200D02*
X122559887Y-76374819D01*
X122559887Y-76374819D02*
X122321792Y-76374819D01*
X123512268Y-75374819D02*
X123702744Y-75374819D01*
X123702744Y-75374819D02*
X123797982Y-75422438D01*
X123797982Y-75422438D02*
X123893220Y-75517676D01*
X123893220Y-75517676D02*
X123940839Y-75708152D01*
X123940839Y-75708152D02*
X123940839Y-76041485D01*
X123940839Y-76041485D02*
X123893220Y-76231961D01*
X123893220Y-76231961D02*
X123797982Y-76327200D01*
X123797982Y-76327200D02*
X123702744Y-76374819D01*
X123702744Y-76374819D02*
X123512268Y-76374819D01*
X123512268Y-76374819D02*
X123417030Y-76327200D01*
X123417030Y-76327200D02*
X123321792Y-76231961D01*
X123321792Y-76231961D02*
X123274173Y-76041485D01*
X123274173Y-76041485D02*
X123274173Y-75708152D01*
X123274173Y-75708152D02*
X123321792Y-75517676D01*
X123321792Y-75517676D02*
X123417030Y-75422438D01*
X123417030Y-75422438D02*
X123512268Y-75374819D01*
X113464649Y-62722438D02*
X113369411Y-62674819D01*
X113369411Y-62674819D02*
X113226554Y-62674819D01*
X113226554Y-62674819D02*
X113083697Y-62722438D01*
X113083697Y-62722438D02*
X112988459Y-62817676D01*
X112988459Y-62817676D02*
X112940840Y-62912914D01*
X112940840Y-62912914D02*
X112893221Y-63103390D01*
X112893221Y-63103390D02*
X112893221Y-63246247D01*
X112893221Y-63246247D02*
X112940840Y-63436723D01*
X112940840Y-63436723D02*
X112988459Y-63531961D01*
X112988459Y-63531961D02*
X113083697Y-63627200D01*
X113083697Y-63627200D02*
X113226554Y-63674819D01*
X113226554Y-63674819D02*
X113321792Y-63674819D01*
X113321792Y-63674819D02*
X113464649Y-63627200D01*
X113464649Y-63627200D02*
X113512268Y-63579580D01*
X113512268Y-63579580D02*
X113512268Y-63246247D01*
X113512268Y-63246247D02*
X113321792Y-63246247D01*
X113940840Y-63674819D02*
X113940840Y-62674819D01*
X113940840Y-62674819D02*
X114321792Y-62674819D01*
X114321792Y-62674819D02*
X114417030Y-62722438D01*
X114417030Y-62722438D02*
X114464649Y-62770057D01*
X114464649Y-62770057D02*
X114512268Y-62865295D01*
X114512268Y-62865295D02*
X114512268Y-63008152D01*
X114512268Y-63008152D02*
X114464649Y-63103390D01*
X114464649Y-63103390D02*
X114417030Y-63151009D01*
X114417030Y-63151009D02*
X114321792Y-63198628D01*
X114321792Y-63198628D02*
X113940840Y-63198628D01*
X114940840Y-63674819D02*
X114940840Y-62674819D01*
X115607506Y-62674819D02*
X115797982Y-62674819D01*
X115797982Y-62674819D02*
X115893220Y-62722438D01*
X115893220Y-62722438D02*
X115988458Y-62817676D01*
X115988458Y-62817676D02*
X116036077Y-63008152D01*
X116036077Y-63008152D02*
X116036077Y-63341485D01*
X116036077Y-63341485D02*
X115988458Y-63531961D01*
X115988458Y-63531961D02*
X115893220Y-63627200D01*
X115893220Y-63627200D02*
X115797982Y-63674819D01*
X115797982Y-63674819D02*
X115607506Y-63674819D01*
X115607506Y-63674819D02*
X115512268Y-63627200D01*
X115512268Y-63627200D02*
X115417030Y-63531961D01*
X115417030Y-63531961D02*
X115369411Y-63341485D01*
X115369411Y-63341485D02*
X115369411Y-63008152D01*
X115369411Y-63008152D02*
X115417030Y-62817676D01*
X115417030Y-62817676D02*
X115512268Y-62722438D01*
X115512268Y-62722438D02*
X115607506Y-62674819D01*
X116893220Y-63008152D02*
X116893220Y-63674819D01*
X116655125Y-62627200D02*
X116417030Y-63341485D01*
X116417030Y-63341485D02*
X117036077Y-63341485D01*
X117845601Y-63008152D02*
X117845601Y-63674819D01*
X117607506Y-62627200D02*
X117369411Y-63341485D01*
X117369411Y-63341485D02*
X117988458Y-63341485D01*
X119083696Y-62627200D02*
X118226554Y-63912914D01*
X119417030Y-62674819D02*
X119417030Y-63484342D01*
X119417030Y-63484342D02*
X119464649Y-63579580D01*
X119464649Y-63579580D02*
X119512268Y-63627200D01*
X119512268Y-63627200D02*
X119607506Y-63674819D01*
X119607506Y-63674819D02*
X119797982Y-63674819D01*
X119797982Y-63674819D02*
X119893220Y-63627200D01*
X119893220Y-63627200D02*
X119940839Y-63579580D01*
X119940839Y-63579580D02*
X119988458Y-63484342D01*
X119988458Y-63484342D02*
X119988458Y-62674819D01*
X120655125Y-62674819D02*
X120750363Y-62674819D01*
X120750363Y-62674819D02*
X120845601Y-62722438D01*
X120845601Y-62722438D02*
X120893220Y-62770057D01*
X120893220Y-62770057D02*
X120940839Y-62865295D01*
X120940839Y-62865295D02*
X120988458Y-63055771D01*
X120988458Y-63055771D02*
X120988458Y-63293866D01*
X120988458Y-63293866D02*
X120940839Y-63484342D01*
X120940839Y-63484342D02*
X120893220Y-63579580D01*
X120893220Y-63579580D02*
X120845601Y-63627200D01*
X120845601Y-63627200D02*
X120750363Y-63674819D01*
X120750363Y-63674819D02*
X120655125Y-63674819D01*
X120655125Y-63674819D02*
X120559887Y-63627200D01*
X120559887Y-63627200D02*
X120512268Y-63579580D01*
X120512268Y-63579580D02*
X120464649Y-63484342D01*
X120464649Y-63484342D02*
X120417030Y-63293866D01*
X120417030Y-63293866D02*
X120417030Y-63055771D01*
X120417030Y-63055771D02*
X120464649Y-62865295D01*
X120464649Y-62865295D02*
X120512268Y-62770057D01*
X120512268Y-62770057D02*
X120559887Y-62722438D01*
X120559887Y-62722438D02*
X120655125Y-62674819D01*
X121988458Y-63674819D02*
X121655125Y-63198628D01*
X121417030Y-63674819D02*
X121417030Y-62674819D01*
X121417030Y-62674819D02*
X121797982Y-62674819D01*
X121797982Y-62674819D02*
X121893220Y-62722438D01*
X121893220Y-62722438D02*
X121940839Y-62770057D01*
X121940839Y-62770057D02*
X121988458Y-62865295D01*
X121988458Y-62865295D02*
X121988458Y-63008152D01*
X121988458Y-63008152D02*
X121940839Y-63103390D01*
X121940839Y-63103390D02*
X121893220Y-63151009D01*
X121893220Y-63151009D02*
X121797982Y-63198628D01*
X121797982Y-63198628D02*
X121417030Y-63198628D01*
X122321792Y-62674819D02*
X122988458Y-63674819D01*
X122988458Y-62674819D02*
X122321792Y-63674819D01*
X123369411Y-63674819D02*
X123369411Y-62674819D01*
X123369411Y-62674819D02*
X123607506Y-62674819D01*
X123607506Y-62674819D02*
X123750363Y-62722438D01*
X123750363Y-62722438D02*
X123845601Y-62817676D01*
X123845601Y-62817676D02*
X123893220Y-62912914D01*
X123893220Y-62912914D02*
X123940839Y-63103390D01*
X123940839Y-63103390D02*
X123940839Y-63246247D01*
X123940839Y-63246247D02*
X123893220Y-63436723D01*
X123893220Y-63436723D02*
X123845601Y-63531961D01*
X123845601Y-63531961D02*
X123750363Y-63627200D01*
X123750363Y-63627200D02*
X123607506Y-63674819D01*
X123607506Y-63674819D02*
X123369411Y-63674819D01*
X104770588Y-105902438D02*
X104675350Y-105854819D01*
X104675350Y-105854819D02*
X104532493Y-105854819D01*
X104532493Y-105854819D02*
X104389636Y-105902438D01*
X104389636Y-105902438D02*
X104294398Y-105997676D01*
X104294398Y-105997676D02*
X104246779Y-106092914D01*
X104246779Y-106092914D02*
X104199160Y-106283390D01*
X104199160Y-106283390D02*
X104199160Y-106426247D01*
X104199160Y-106426247D02*
X104246779Y-106616723D01*
X104246779Y-106616723D02*
X104294398Y-106711961D01*
X104294398Y-106711961D02*
X104389636Y-106807200D01*
X104389636Y-106807200D02*
X104532493Y-106854819D01*
X104532493Y-106854819D02*
X104627731Y-106854819D01*
X104627731Y-106854819D02*
X104770588Y-106807200D01*
X104770588Y-106807200D02*
X104818207Y-106759580D01*
X104818207Y-106759580D02*
X104818207Y-106426247D01*
X104818207Y-106426247D02*
X104627731Y-106426247D01*
X105246779Y-106854819D02*
X105246779Y-105854819D01*
X105246779Y-105854819D02*
X105627731Y-105854819D01*
X105627731Y-105854819D02*
X105722969Y-105902438D01*
X105722969Y-105902438D02*
X105770588Y-105950057D01*
X105770588Y-105950057D02*
X105818207Y-106045295D01*
X105818207Y-106045295D02*
X105818207Y-106188152D01*
X105818207Y-106188152D02*
X105770588Y-106283390D01*
X105770588Y-106283390D02*
X105722969Y-106331009D01*
X105722969Y-106331009D02*
X105627731Y-106378628D01*
X105627731Y-106378628D02*
X105246779Y-106378628D01*
X106246779Y-106854819D02*
X106246779Y-105854819D01*
X106913445Y-105854819D02*
X107103921Y-105854819D01*
X107103921Y-105854819D02*
X107199159Y-105902438D01*
X107199159Y-105902438D02*
X107294397Y-105997676D01*
X107294397Y-105997676D02*
X107342016Y-106188152D01*
X107342016Y-106188152D02*
X107342016Y-106521485D01*
X107342016Y-106521485D02*
X107294397Y-106711961D01*
X107294397Y-106711961D02*
X107199159Y-106807200D01*
X107199159Y-106807200D02*
X107103921Y-106854819D01*
X107103921Y-106854819D02*
X106913445Y-106854819D01*
X106913445Y-106854819D02*
X106818207Y-106807200D01*
X106818207Y-106807200D02*
X106722969Y-106711961D01*
X106722969Y-106711961D02*
X106675350Y-106521485D01*
X106675350Y-106521485D02*
X106675350Y-106188152D01*
X106675350Y-106188152D02*
X106722969Y-105997676D01*
X106722969Y-105997676D02*
X106818207Y-105902438D01*
X106818207Y-105902438D02*
X106913445Y-105854819D01*
X108294397Y-106854819D02*
X107722969Y-106854819D01*
X108008683Y-106854819D02*
X108008683Y-105854819D01*
X108008683Y-105854819D02*
X107913445Y-105997676D01*
X107913445Y-105997676D02*
X107818207Y-106092914D01*
X107818207Y-106092914D02*
X107722969Y-106140533D01*
X109151540Y-106188152D02*
X109151540Y-106854819D01*
X108913445Y-105807200D02*
X108675350Y-106521485D01*
X108675350Y-106521485D02*
X109294397Y-106521485D01*
X104770588Y-70342438D02*
X104675350Y-70294819D01*
X104675350Y-70294819D02*
X104532493Y-70294819D01*
X104532493Y-70294819D02*
X104389636Y-70342438D01*
X104389636Y-70342438D02*
X104294398Y-70437676D01*
X104294398Y-70437676D02*
X104246779Y-70532914D01*
X104246779Y-70532914D02*
X104199160Y-70723390D01*
X104199160Y-70723390D02*
X104199160Y-70866247D01*
X104199160Y-70866247D02*
X104246779Y-71056723D01*
X104246779Y-71056723D02*
X104294398Y-71151961D01*
X104294398Y-71151961D02*
X104389636Y-71247200D01*
X104389636Y-71247200D02*
X104532493Y-71294819D01*
X104532493Y-71294819D02*
X104627731Y-71294819D01*
X104627731Y-71294819D02*
X104770588Y-71247200D01*
X104770588Y-71247200D02*
X104818207Y-71199580D01*
X104818207Y-71199580D02*
X104818207Y-70866247D01*
X104818207Y-70866247D02*
X104627731Y-70866247D01*
X105246779Y-71294819D02*
X105246779Y-70294819D01*
X105246779Y-70294819D02*
X105627731Y-70294819D01*
X105627731Y-70294819D02*
X105722969Y-70342438D01*
X105722969Y-70342438D02*
X105770588Y-70390057D01*
X105770588Y-70390057D02*
X105818207Y-70485295D01*
X105818207Y-70485295D02*
X105818207Y-70628152D01*
X105818207Y-70628152D02*
X105770588Y-70723390D01*
X105770588Y-70723390D02*
X105722969Y-70771009D01*
X105722969Y-70771009D02*
X105627731Y-70818628D01*
X105627731Y-70818628D02*
X105246779Y-70818628D01*
X106246779Y-71294819D02*
X106246779Y-70294819D01*
X106913445Y-70294819D02*
X107103921Y-70294819D01*
X107103921Y-70294819D02*
X107199159Y-70342438D01*
X107199159Y-70342438D02*
X107294397Y-70437676D01*
X107294397Y-70437676D02*
X107342016Y-70628152D01*
X107342016Y-70628152D02*
X107342016Y-70961485D01*
X107342016Y-70961485D02*
X107294397Y-71151961D01*
X107294397Y-71151961D02*
X107199159Y-71247200D01*
X107199159Y-71247200D02*
X107103921Y-71294819D01*
X107103921Y-71294819D02*
X106913445Y-71294819D01*
X106913445Y-71294819D02*
X106818207Y-71247200D01*
X106818207Y-71247200D02*
X106722969Y-71151961D01*
X106722969Y-71151961D02*
X106675350Y-70961485D01*
X106675350Y-70961485D02*
X106675350Y-70628152D01*
X106675350Y-70628152D02*
X106722969Y-70437676D01*
X106722969Y-70437676D02*
X106818207Y-70342438D01*
X106818207Y-70342438D02*
X106913445Y-70294819D01*
X108199159Y-70294819D02*
X108008683Y-70294819D01*
X108008683Y-70294819D02*
X107913445Y-70342438D01*
X107913445Y-70342438D02*
X107865826Y-70390057D01*
X107865826Y-70390057D02*
X107770588Y-70532914D01*
X107770588Y-70532914D02*
X107722969Y-70723390D01*
X107722969Y-70723390D02*
X107722969Y-71104342D01*
X107722969Y-71104342D02*
X107770588Y-71199580D01*
X107770588Y-71199580D02*
X107818207Y-71247200D01*
X107818207Y-71247200D02*
X107913445Y-71294819D01*
X107913445Y-71294819D02*
X108103921Y-71294819D01*
X108103921Y-71294819D02*
X108199159Y-71247200D01*
X108199159Y-71247200D02*
X108246778Y-71199580D01*
X108246778Y-71199580D02*
X108294397Y-71104342D01*
X108294397Y-71104342D02*
X108294397Y-70866247D01*
X108294397Y-70866247D02*
X108246778Y-70771009D01*
X108246778Y-70771009D02*
X108199159Y-70723390D01*
X108199159Y-70723390D02*
X108103921Y-70675771D01*
X108103921Y-70675771D02*
X107913445Y-70675771D01*
X107913445Y-70675771D02*
X107818207Y-70723390D01*
X107818207Y-70723390D02*
X107770588Y-70771009D01*
X107770588Y-70771009D02*
X107722969Y-70866247D01*
X104973289Y-108392099D02*
X104497099Y-108392099D01*
X104497099Y-108392099D02*
X104449480Y-108868289D01*
X104449480Y-108868289D02*
X104497099Y-108820670D01*
X104497099Y-108820670D02*
X104592337Y-108773051D01*
X104592337Y-108773051D02*
X104830432Y-108773051D01*
X104830432Y-108773051D02*
X104925670Y-108820670D01*
X104925670Y-108820670D02*
X104973289Y-108868289D01*
X104973289Y-108868289D02*
X105020908Y-108963527D01*
X105020908Y-108963527D02*
X105020908Y-109201622D01*
X105020908Y-109201622D02*
X104973289Y-109296860D01*
X104973289Y-109296860D02*
X104925670Y-109344480D01*
X104925670Y-109344480D02*
X104830432Y-109392099D01*
X104830432Y-109392099D02*
X104592337Y-109392099D01*
X104592337Y-109392099D02*
X104497099Y-109344480D01*
X104497099Y-109344480D02*
X104449480Y-109296860D01*
X105306623Y-108392099D02*
X105639956Y-109392099D01*
X105639956Y-109392099D02*
X105973289Y-108392099D01*
X104770588Y-67802438D02*
X104675350Y-67754819D01*
X104675350Y-67754819D02*
X104532493Y-67754819D01*
X104532493Y-67754819D02*
X104389636Y-67802438D01*
X104389636Y-67802438D02*
X104294398Y-67897676D01*
X104294398Y-67897676D02*
X104246779Y-67992914D01*
X104246779Y-67992914D02*
X104199160Y-68183390D01*
X104199160Y-68183390D02*
X104199160Y-68326247D01*
X104199160Y-68326247D02*
X104246779Y-68516723D01*
X104246779Y-68516723D02*
X104294398Y-68611961D01*
X104294398Y-68611961D02*
X104389636Y-68707200D01*
X104389636Y-68707200D02*
X104532493Y-68754819D01*
X104532493Y-68754819D02*
X104627731Y-68754819D01*
X104627731Y-68754819D02*
X104770588Y-68707200D01*
X104770588Y-68707200D02*
X104818207Y-68659580D01*
X104818207Y-68659580D02*
X104818207Y-68326247D01*
X104818207Y-68326247D02*
X104627731Y-68326247D01*
X105246779Y-68754819D02*
X105246779Y-67754819D01*
X105246779Y-67754819D02*
X105627731Y-67754819D01*
X105627731Y-67754819D02*
X105722969Y-67802438D01*
X105722969Y-67802438D02*
X105770588Y-67850057D01*
X105770588Y-67850057D02*
X105818207Y-67945295D01*
X105818207Y-67945295D02*
X105818207Y-68088152D01*
X105818207Y-68088152D02*
X105770588Y-68183390D01*
X105770588Y-68183390D02*
X105722969Y-68231009D01*
X105722969Y-68231009D02*
X105627731Y-68278628D01*
X105627731Y-68278628D02*
X105246779Y-68278628D01*
X106246779Y-68754819D02*
X106246779Y-67754819D01*
X106913445Y-67754819D02*
X107103921Y-67754819D01*
X107103921Y-67754819D02*
X107199159Y-67802438D01*
X107199159Y-67802438D02*
X107294397Y-67897676D01*
X107294397Y-67897676D02*
X107342016Y-68088152D01*
X107342016Y-68088152D02*
X107342016Y-68421485D01*
X107342016Y-68421485D02*
X107294397Y-68611961D01*
X107294397Y-68611961D02*
X107199159Y-68707200D01*
X107199159Y-68707200D02*
X107103921Y-68754819D01*
X107103921Y-68754819D02*
X106913445Y-68754819D01*
X106913445Y-68754819D02*
X106818207Y-68707200D01*
X106818207Y-68707200D02*
X106722969Y-68611961D01*
X106722969Y-68611961D02*
X106675350Y-68421485D01*
X106675350Y-68421485D02*
X106675350Y-68088152D01*
X106675350Y-68088152D02*
X106722969Y-67897676D01*
X106722969Y-67897676D02*
X106818207Y-67802438D01*
X106818207Y-67802438D02*
X106913445Y-67754819D01*
X108246778Y-67754819D02*
X107770588Y-67754819D01*
X107770588Y-67754819D02*
X107722969Y-68231009D01*
X107722969Y-68231009D02*
X107770588Y-68183390D01*
X107770588Y-68183390D02*
X107865826Y-68135771D01*
X107865826Y-68135771D02*
X108103921Y-68135771D01*
X108103921Y-68135771D02*
X108199159Y-68183390D01*
X108199159Y-68183390D02*
X108246778Y-68231009D01*
X108246778Y-68231009D02*
X108294397Y-68326247D01*
X108294397Y-68326247D02*
X108294397Y-68564342D01*
X108294397Y-68564342D02*
X108246778Y-68659580D01*
X108246778Y-68659580D02*
X108199159Y-68707200D01*
X108199159Y-68707200D02*
X108103921Y-68754819D01*
X108103921Y-68754819D02*
X107865826Y-68754819D01*
X107865826Y-68754819D02*
X107770588Y-68707200D01*
X107770588Y-68707200D02*
X107722969Y-68659580D01*
X104770588Y-83042438D02*
X104675350Y-82994819D01*
X104675350Y-82994819D02*
X104532493Y-82994819D01*
X104532493Y-82994819D02*
X104389636Y-83042438D01*
X104389636Y-83042438D02*
X104294398Y-83137676D01*
X104294398Y-83137676D02*
X104246779Y-83232914D01*
X104246779Y-83232914D02*
X104199160Y-83423390D01*
X104199160Y-83423390D02*
X104199160Y-83566247D01*
X104199160Y-83566247D02*
X104246779Y-83756723D01*
X104246779Y-83756723D02*
X104294398Y-83851961D01*
X104294398Y-83851961D02*
X104389636Y-83947200D01*
X104389636Y-83947200D02*
X104532493Y-83994819D01*
X104532493Y-83994819D02*
X104627731Y-83994819D01*
X104627731Y-83994819D02*
X104770588Y-83947200D01*
X104770588Y-83947200D02*
X104818207Y-83899580D01*
X104818207Y-83899580D02*
X104818207Y-83566247D01*
X104818207Y-83566247D02*
X104627731Y-83566247D01*
X105246779Y-83994819D02*
X105246779Y-82994819D01*
X105246779Y-82994819D02*
X105627731Y-82994819D01*
X105627731Y-82994819D02*
X105722969Y-83042438D01*
X105722969Y-83042438D02*
X105770588Y-83090057D01*
X105770588Y-83090057D02*
X105818207Y-83185295D01*
X105818207Y-83185295D02*
X105818207Y-83328152D01*
X105818207Y-83328152D02*
X105770588Y-83423390D01*
X105770588Y-83423390D02*
X105722969Y-83471009D01*
X105722969Y-83471009D02*
X105627731Y-83518628D01*
X105627731Y-83518628D02*
X105246779Y-83518628D01*
X106246779Y-83994819D02*
X106246779Y-82994819D01*
X106913445Y-82994819D02*
X107103921Y-82994819D01*
X107103921Y-82994819D02*
X107199159Y-83042438D01*
X107199159Y-83042438D02*
X107294397Y-83137676D01*
X107294397Y-83137676D02*
X107342016Y-83328152D01*
X107342016Y-83328152D02*
X107342016Y-83661485D01*
X107342016Y-83661485D02*
X107294397Y-83851961D01*
X107294397Y-83851961D02*
X107199159Y-83947200D01*
X107199159Y-83947200D02*
X107103921Y-83994819D01*
X107103921Y-83994819D02*
X106913445Y-83994819D01*
X106913445Y-83994819D02*
X106818207Y-83947200D01*
X106818207Y-83947200D02*
X106722969Y-83851961D01*
X106722969Y-83851961D02*
X106675350Y-83661485D01*
X106675350Y-83661485D02*
X106675350Y-83328152D01*
X106675350Y-83328152D02*
X106722969Y-83137676D01*
X106722969Y-83137676D02*
X106818207Y-83042438D01*
X106818207Y-83042438D02*
X106913445Y-82994819D01*
X108294397Y-83994819D02*
X107722969Y-83994819D01*
X108008683Y-83994819D02*
X108008683Y-82994819D01*
X108008683Y-82994819D02*
X107913445Y-83137676D01*
X107913445Y-83137676D02*
X107818207Y-83232914D01*
X107818207Y-83232914D02*
X107722969Y-83280533D01*
X108865826Y-83423390D02*
X108770588Y-83375771D01*
X108770588Y-83375771D02*
X108722969Y-83328152D01*
X108722969Y-83328152D02*
X108675350Y-83232914D01*
X108675350Y-83232914D02*
X108675350Y-83185295D01*
X108675350Y-83185295D02*
X108722969Y-83090057D01*
X108722969Y-83090057D02*
X108770588Y-83042438D01*
X108770588Y-83042438D02*
X108865826Y-82994819D01*
X108865826Y-82994819D02*
X109056302Y-82994819D01*
X109056302Y-82994819D02*
X109151540Y-83042438D01*
X109151540Y-83042438D02*
X109199159Y-83090057D01*
X109199159Y-83090057D02*
X109246778Y-83185295D01*
X109246778Y-83185295D02*
X109246778Y-83232914D01*
X109246778Y-83232914D02*
X109199159Y-83328152D01*
X109199159Y-83328152D02*
X109151540Y-83375771D01*
X109151540Y-83375771D02*
X109056302Y-83423390D01*
X109056302Y-83423390D02*
X108865826Y-83423390D01*
X108865826Y-83423390D02*
X108770588Y-83471009D01*
X108770588Y-83471009D02*
X108722969Y-83518628D01*
X108722969Y-83518628D02*
X108675350Y-83613866D01*
X108675350Y-83613866D02*
X108675350Y-83804342D01*
X108675350Y-83804342D02*
X108722969Y-83899580D01*
X108722969Y-83899580D02*
X108770588Y-83947200D01*
X108770588Y-83947200D02*
X108865826Y-83994819D01*
X108865826Y-83994819D02*
X109056302Y-83994819D01*
X109056302Y-83994819D02*
X109151540Y-83947200D01*
X109151540Y-83947200D02*
X109199159Y-83899580D01*
X109199159Y-83899580D02*
X109246778Y-83804342D01*
X109246778Y-83804342D02*
X109246778Y-83613866D01*
X109246778Y-83613866D02*
X109199159Y-83518628D01*
X109199159Y-83518628D02*
X109151540Y-83471009D01*
X109151540Y-83471009D02*
X109056302Y-83423390D01*
X104770588Y-93202438D02*
X104675350Y-93154819D01*
X104675350Y-93154819D02*
X104532493Y-93154819D01*
X104532493Y-93154819D02*
X104389636Y-93202438D01*
X104389636Y-93202438D02*
X104294398Y-93297676D01*
X104294398Y-93297676D02*
X104246779Y-93392914D01*
X104246779Y-93392914D02*
X104199160Y-93583390D01*
X104199160Y-93583390D02*
X104199160Y-93726247D01*
X104199160Y-93726247D02*
X104246779Y-93916723D01*
X104246779Y-93916723D02*
X104294398Y-94011961D01*
X104294398Y-94011961D02*
X104389636Y-94107200D01*
X104389636Y-94107200D02*
X104532493Y-94154819D01*
X104532493Y-94154819D02*
X104627731Y-94154819D01*
X104627731Y-94154819D02*
X104770588Y-94107200D01*
X104770588Y-94107200D02*
X104818207Y-94059580D01*
X104818207Y-94059580D02*
X104818207Y-93726247D01*
X104818207Y-93726247D02*
X104627731Y-93726247D01*
X105246779Y-94154819D02*
X105246779Y-93154819D01*
X105246779Y-93154819D02*
X105627731Y-93154819D01*
X105627731Y-93154819D02*
X105722969Y-93202438D01*
X105722969Y-93202438D02*
X105770588Y-93250057D01*
X105770588Y-93250057D02*
X105818207Y-93345295D01*
X105818207Y-93345295D02*
X105818207Y-93488152D01*
X105818207Y-93488152D02*
X105770588Y-93583390D01*
X105770588Y-93583390D02*
X105722969Y-93631009D01*
X105722969Y-93631009D02*
X105627731Y-93678628D01*
X105627731Y-93678628D02*
X105246779Y-93678628D01*
X106246779Y-94154819D02*
X106246779Y-93154819D01*
X106913445Y-93154819D02*
X107103921Y-93154819D01*
X107103921Y-93154819D02*
X107199159Y-93202438D01*
X107199159Y-93202438D02*
X107294397Y-93297676D01*
X107294397Y-93297676D02*
X107342016Y-93488152D01*
X107342016Y-93488152D02*
X107342016Y-93821485D01*
X107342016Y-93821485D02*
X107294397Y-94011961D01*
X107294397Y-94011961D02*
X107199159Y-94107200D01*
X107199159Y-94107200D02*
X107103921Y-94154819D01*
X107103921Y-94154819D02*
X106913445Y-94154819D01*
X106913445Y-94154819D02*
X106818207Y-94107200D01*
X106818207Y-94107200D02*
X106722969Y-94011961D01*
X106722969Y-94011961D02*
X106675350Y-93821485D01*
X106675350Y-93821485D02*
X106675350Y-93488152D01*
X106675350Y-93488152D02*
X106722969Y-93297676D01*
X106722969Y-93297676D02*
X106818207Y-93202438D01*
X106818207Y-93202438D02*
X106913445Y-93154819D01*
X107818207Y-94154819D02*
X108008683Y-94154819D01*
X108008683Y-94154819D02*
X108103921Y-94107200D01*
X108103921Y-94107200D02*
X108151540Y-94059580D01*
X108151540Y-94059580D02*
X108246778Y-93916723D01*
X108246778Y-93916723D02*
X108294397Y-93726247D01*
X108294397Y-93726247D02*
X108294397Y-93345295D01*
X108294397Y-93345295D02*
X108246778Y-93250057D01*
X108246778Y-93250057D02*
X108199159Y-93202438D01*
X108199159Y-93202438D02*
X108103921Y-93154819D01*
X108103921Y-93154819D02*
X107913445Y-93154819D01*
X107913445Y-93154819D02*
X107818207Y-93202438D01*
X107818207Y-93202438D02*
X107770588Y-93250057D01*
X107770588Y-93250057D02*
X107722969Y-93345295D01*
X107722969Y-93345295D02*
X107722969Y-93583390D01*
X107722969Y-93583390D02*
X107770588Y-93678628D01*
X107770588Y-93678628D02*
X107818207Y-93726247D01*
X107818207Y-93726247D02*
X107913445Y-93773866D01*
X107913445Y-93773866D02*
X108103921Y-93773866D01*
X108103921Y-93773866D02*
X108199159Y-93726247D01*
X108199159Y-93726247D02*
X108246778Y-93678628D01*
X108246778Y-93678628D02*
X108294397Y-93583390D01*
X121845601Y-57642438D02*
X121750363Y-57594819D01*
X121750363Y-57594819D02*
X121607506Y-57594819D01*
X121607506Y-57594819D02*
X121464649Y-57642438D01*
X121464649Y-57642438D02*
X121369411Y-57737676D01*
X121369411Y-57737676D02*
X121321792Y-57832914D01*
X121321792Y-57832914D02*
X121274173Y-58023390D01*
X121274173Y-58023390D02*
X121274173Y-58166247D01*
X121274173Y-58166247D02*
X121321792Y-58356723D01*
X121321792Y-58356723D02*
X121369411Y-58451961D01*
X121369411Y-58451961D02*
X121464649Y-58547200D01*
X121464649Y-58547200D02*
X121607506Y-58594819D01*
X121607506Y-58594819D02*
X121702744Y-58594819D01*
X121702744Y-58594819D02*
X121845601Y-58547200D01*
X121845601Y-58547200D02*
X121893220Y-58499580D01*
X121893220Y-58499580D02*
X121893220Y-58166247D01*
X121893220Y-58166247D02*
X121702744Y-58166247D01*
X122321792Y-58594819D02*
X122321792Y-57594819D01*
X122321792Y-57594819D02*
X122893220Y-58594819D01*
X122893220Y-58594819D02*
X122893220Y-57594819D01*
X123369411Y-58594819D02*
X123369411Y-57594819D01*
X123369411Y-57594819D02*
X123607506Y-57594819D01*
X123607506Y-57594819D02*
X123750363Y-57642438D01*
X123750363Y-57642438D02*
X123845601Y-57737676D01*
X123845601Y-57737676D02*
X123893220Y-57832914D01*
X123893220Y-57832914D02*
X123940839Y-58023390D01*
X123940839Y-58023390D02*
X123940839Y-58166247D01*
X123940839Y-58166247D02*
X123893220Y-58356723D01*
X123893220Y-58356723D02*
X123845601Y-58451961D01*
X123845601Y-58451961D02*
X123750363Y-58547200D01*
X123750363Y-58547200D02*
X123607506Y-58594819D01*
X123607506Y-58594819D02*
X123369411Y-58594819D01*
X104151541Y-60134819D02*
X104770588Y-60134819D01*
X104770588Y-60134819D02*
X104437255Y-60515771D01*
X104437255Y-60515771D02*
X104580112Y-60515771D01*
X104580112Y-60515771D02*
X104675350Y-60563390D01*
X104675350Y-60563390D02*
X104722969Y-60611009D01*
X104722969Y-60611009D02*
X104770588Y-60706247D01*
X104770588Y-60706247D02*
X104770588Y-60944342D01*
X104770588Y-60944342D02*
X104722969Y-61039580D01*
X104722969Y-61039580D02*
X104675350Y-61087200D01*
X104675350Y-61087200D02*
X104580112Y-61134819D01*
X104580112Y-61134819D02*
X104294398Y-61134819D01*
X104294398Y-61134819D02*
X104199160Y-61087200D01*
X104199160Y-61087200D02*
X104151541Y-61039580D01*
X105056303Y-60134819D02*
X105389636Y-61134819D01*
X105389636Y-61134819D02*
X105722969Y-60134819D01*
X105961065Y-60134819D02*
X106580112Y-60134819D01*
X106580112Y-60134819D02*
X106246779Y-60515771D01*
X106246779Y-60515771D02*
X106389636Y-60515771D01*
X106389636Y-60515771D02*
X106484874Y-60563390D01*
X106484874Y-60563390D02*
X106532493Y-60611009D01*
X106532493Y-60611009D02*
X106580112Y-60706247D01*
X106580112Y-60706247D02*
X106580112Y-60944342D01*
X106580112Y-60944342D02*
X106532493Y-61039580D01*
X106532493Y-61039580D02*
X106484874Y-61087200D01*
X106484874Y-61087200D02*
X106389636Y-61134819D01*
X106389636Y-61134819D02*
X106103922Y-61134819D01*
X106103922Y-61134819D02*
X106008684Y-61087200D01*
X106008684Y-61087200D02*
X105961065Y-61039580D01*
X120417030Y-65262438D02*
X120321792Y-65214819D01*
X120321792Y-65214819D02*
X120178935Y-65214819D01*
X120178935Y-65214819D02*
X120036078Y-65262438D01*
X120036078Y-65262438D02*
X119940840Y-65357676D01*
X119940840Y-65357676D02*
X119893221Y-65452914D01*
X119893221Y-65452914D02*
X119845602Y-65643390D01*
X119845602Y-65643390D02*
X119845602Y-65786247D01*
X119845602Y-65786247D02*
X119893221Y-65976723D01*
X119893221Y-65976723D02*
X119940840Y-66071961D01*
X119940840Y-66071961D02*
X120036078Y-66167200D01*
X120036078Y-66167200D02*
X120178935Y-66214819D01*
X120178935Y-66214819D02*
X120274173Y-66214819D01*
X120274173Y-66214819D02*
X120417030Y-66167200D01*
X120417030Y-66167200D02*
X120464649Y-66119580D01*
X120464649Y-66119580D02*
X120464649Y-65786247D01*
X120464649Y-65786247D02*
X120274173Y-65786247D01*
X120893221Y-66214819D02*
X120893221Y-65214819D01*
X120893221Y-65214819D02*
X121274173Y-65214819D01*
X121274173Y-65214819D02*
X121369411Y-65262438D01*
X121369411Y-65262438D02*
X121417030Y-65310057D01*
X121417030Y-65310057D02*
X121464649Y-65405295D01*
X121464649Y-65405295D02*
X121464649Y-65548152D01*
X121464649Y-65548152D02*
X121417030Y-65643390D01*
X121417030Y-65643390D02*
X121369411Y-65691009D01*
X121369411Y-65691009D02*
X121274173Y-65738628D01*
X121274173Y-65738628D02*
X120893221Y-65738628D01*
X121893221Y-66214819D02*
X121893221Y-65214819D01*
X122559887Y-65214819D02*
X122750363Y-65214819D01*
X122750363Y-65214819D02*
X122845601Y-65262438D01*
X122845601Y-65262438D02*
X122940839Y-65357676D01*
X122940839Y-65357676D02*
X122988458Y-65548152D01*
X122988458Y-65548152D02*
X122988458Y-65881485D01*
X122988458Y-65881485D02*
X122940839Y-66071961D01*
X122940839Y-66071961D02*
X122845601Y-66167200D01*
X122845601Y-66167200D02*
X122750363Y-66214819D01*
X122750363Y-66214819D02*
X122559887Y-66214819D01*
X122559887Y-66214819D02*
X122464649Y-66167200D01*
X122464649Y-66167200D02*
X122369411Y-66071961D01*
X122369411Y-66071961D02*
X122321792Y-65881485D01*
X122321792Y-65881485D02*
X122321792Y-65548152D01*
X122321792Y-65548152D02*
X122369411Y-65357676D01*
X122369411Y-65357676D02*
X122464649Y-65262438D01*
X122464649Y-65262438D02*
X122559887Y-65214819D01*
X123940839Y-66214819D02*
X123369411Y-66214819D01*
X123655125Y-66214819D02*
X123655125Y-65214819D01*
X123655125Y-65214819D02*
X123559887Y-65357676D01*
X123559887Y-65357676D02*
X123464649Y-65452914D01*
X123464649Y-65452914D02*
X123369411Y-65500533D01*
X114512268Y-77962438D02*
X114417030Y-77914819D01*
X114417030Y-77914819D02*
X114274173Y-77914819D01*
X114274173Y-77914819D02*
X114131316Y-77962438D01*
X114131316Y-77962438D02*
X114036078Y-78057676D01*
X114036078Y-78057676D02*
X113988459Y-78152914D01*
X113988459Y-78152914D02*
X113940840Y-78343390D01*
X113940840Y-78343390D02*
X113940840Y-78486247D01*
X113940840Y-78486247D02*
X113988459Y-78676723D01*
X113988459Y-78676723D02*
X114036078Y-78771961D01*
X114036078Y-78771961D02*
X114131316Y-78867200D01*
X114131316Y-78867200D02*
X114274173Y-78914819D01*
X114274173Y-78914819D02*
X114369411Y-78914819D01*
X114369411Y-78914819D02*
X114512268Y-78867200D01*
X114512268Y-78867200D02*
X114559887Y-78819580D01*
X114559887Y-78819580D02*
X114559887Y-78486247D01*
X114559887Y-78486247D02*
X114369411Y-78486247D01*
X114988459Y-78914819D02*
X114988459Y-77914819D01*
X114988459Y-77914819D02*
X115369411Y-77914819D01*
X115369411Y-77914819D02*
X115464649Y-77962438D01*
X115464649Y-77962438D02*
X115512268Y-78010057D01*
X115512268Y-78010057D02*
X115559887Y-78105295D01*
X115559887Y-78105295D02*
X115559887Y-78248152D01*
X115559887Y-78248152D02*
X115512268Y-78343390D01*
X115512268Y-78343390D02*
X115464649Y-78391009D01*
X115464649Y-78391009D02*
X115369411Y-78438628D01*
X115369411Y-78438628D02*
X114988459Y-78438628D01*
X115988459Y-78914819D02*
X115988459Y-77914819D01*
X116655125Y-77914819D02*
X116845601Y-77914819D01*
X116845601Y-77914819D02*
X116940839Y-77962438D01*
X116940839Y-77962438D02*
X117036077Y-78057676D01*
X117036077Y-78057676D02*
X117083696Y-78248152D01*
X117083696Y-78248152D02*
X117083696Y-78581485D01*
X117083696Y-78581485D02*
X117036077Y-78771961D01*
X117036077Y-78771961D02*
X116940839Y-78867200D01*
X116940839Y-78867200D02*
X116845601Y-78914819D01*
X116845601Y-78914819D02*
X116655125Y-78914819D01*
X116655125Y-78914819D02*
X116559887Y-78867200D01*
X116559887Y-78867200D02*
X116464649Y-78771961D01*
X116464649Y-78771961D02*
X116417030Y-78581485D01*
X116417030Y-78581485D02*
X116417030Y-78248152D01*
X116417030Y-78248152D02*
X116464649Y-78057676D01*
X116464649Y-78057676D02*
X116559887Y-77962438D01*
X116559887Y-77962438D02*
X116655125Y-77914819D01*
X117417030Y-77914819D02*
X118036077Y-77914819D01*
X118036077Y-77914819D02*
X117702744Y-78295771D01*
X117702744Y-78295771D02*
X117845601Y-78295771D01*
X117845601Y-78295771D02*
X117940839Y-78343390D01*
X117940839Y-78343390D02*
X117988458Y-78391009D01*
X117988458Y-78391009D02*
X118036077Y-78486247D01*
X118036077Y-78486247D02*
X118036077Y-78724342D01*
X118036077Y-78724342D02*
X117988458Y-78819580D01*
X117988458Y-78819580D02*
X117940839Y-78867200D01*
X117940839Y-78867200D02*
X117845601Y-78914819D01*
X117845601Y-78914819D02*
X117559887Y-78914819D01*
X117559887Y-78914819D02*
X117464649Y-78867200D01*
X117464649Y-78867200D02*
X117417030Y-78819580D01*
X118512268Y-78914819D02*
X118702744Y-78914819D01*
X118702744Y-78914819D02*
X118797982Y-78867200D01*
X118797982Y-78867200D02*
X118845601Y-78819580D01*
X118845601Y-78819580D02*
X118940839Y-78676723D01*
X118940839Y-78676723D02*
X118988458Y-78486247D01*
X118988458Y-78486247D02*
X118988458Y-78105295D01*
X118988458Y-78105295D02*
X118940839Y-78010057D01*
X118940839Y-78010057D02*
X118893220Y-77962438D01*
X118893220Y-77962438D02*
X118797982Y-77914819D01*
X118797982Y-77914819D02*
X118607506Y-77914819D01*
X118607506Y-77914819D02*
X118512268Y-77962438D01*
X118512268Y-77962438D02*
X118464649Y-78010057D01*
X118464649Y-78010057D02*
X118417030Y-78105295D01*
X118417030Y-78105295D02*
X118417030Y-78343390D01*
X118417030Y-78343390D02*
X118464649Y-78438628D01*
X118464649Y-78438628D02*
X118512268Y-78486247D01*
X118512268Y-78486247D02*
X118607506Y-78533866D01*
X118607506Y-78533866D02*
X118797982Y-78533866D01*
X118797982Y-78533866D02*
X118893220Y-78486247D01*
X118893220Y-78486247D02*
X118940839Y-78438628D01*
X118940839Y-78438628D02*
X118988458Y-78343390D01*
X120131315Y-77867200D02*
X119274173Y-79152914D01*
X120464649Y-78914819D02*
X120464649Y-77914819D01*
X120464649Y-77914819D02*
X120797982Y-78629104D01*
X120797982Y-78629104D02*
X121131315Y-77914819D01*
X121131315Y-77914819D02*
X121131315Y-78914819D01*
X121464649Y-77914819D02*
X122036077Y-77914819D01*
X121750363Y-78914819D02*
X121750363Y-77914819D01*
X122940839Y-78819580D02*
X122893220Y-78867200D01*
X122893220Y-78867200D02*
X122750363Y-78914819D01*
X122750363Y-78914819D02*
X122655125Y-78914819D01*
X122655125Y-78914819D02*
X122512268Y-78867200D01*
X122512268Y-78867200D02*
X122417030Y-78771961D01*
X122417030Y-78771961D02*
X122369411Y-78676723D01*
X122369411Y-78676723D02*
X122321792Y-78486247D01*
X122321792Y-78486247D02*
X122321792Y-78343390D01*
X122321792Y-78343390D02*
X122369411Y-78152914D01*
X122369411Y-78152914D02*
X122417030Y-78057676D01*
X122417030Y-78057676D02*
X122512268Y-77962438D01*
X122512268Y-77962438D02*
X122655125Y-77914819D01*
X122655125Y-77914819D02*
X122750363Y-77914819D01*
X122750363Y-77914819D02*
X122893220Y-77962438D01*
X122893220Y-77962438D02*
X122940839Y-78010057D01*
X123369411Y-78914819D02*
X123369411Y-77914819D01*
X123940839Y-78914819D02*
X123512268Y-78343390D01*
X123940839Y-77914819D02*
X123369411Y-78486247D01*
X113702744Y-60182438D02*
X113607506Y-60134819D01*
X113607506Y-60134819D02*
X113464649Y-60134819D01*
X113464649Y-60134819D02*
X113321792Y-60182438D01*
X113321792Y-60182438D02*
X113226554Y-60277676D01*
X113226554Y-60277676D02*
X113178935Y-60372914D01*
X113178935Y-60372914D02*
X113131316Y-60563390D01*
X113131316Y-60563390D02*
X113131316Y-60706247D01*
X113131316Y-60706247D02*
X113178935Y-60896723D01*
X113178935Y-60896723D02*
X113226554Y-60991961D01*
X113226554Y-60991961D02*
X113321792Y-61087200D01*
X113321792Y-61087200D02*
X113464649Y-61134819D01*
X113464649Y-61134819D02*
X113559887Y-61134819D01*
X113559887Y-61134819D02*
X113702744Y-61087200D01*
X113702744Y-61087200D02*
X113750363Y-61039580D01*
X113750363Y-61039580D02*
X113750363Y-60706247D01*
X113750363Y-60706247D02*
X113559887Y-60706247D01*
X114178935Y-61134819D02*
X114178935Y-60134819D01*
X114178935Y-60134819D02*
X114559887Y-60134819D01*
X114559887Y-60134819D02*
X114655125Y-60182438D01*
X114655125Y-60182438D02*
X114702744Y-60230057D01*
X114702744Y-60230057D02*
X114750363Y-60325295D01*
X114750363Y-60325295D02*
X114750363Y-60468152D01*
X114750363Y-60468152D02*
X114702744Y-60563390D01*
X114702744Y-60563390D02*
X114655125Y-60611009D01*
X114655125Y-60611009D02*
X114559887Y-60658628D01*
X114559887Y-60658628D02*
X114178935Y-60658628D01*
X115178935Y-61134819D02*
X115178935Y-60134819D01*
X115845601Y-60134819D02*
X116036077Y-60134819D01*
X116036077Y-60134819D02*
X116131315Y-60182438D01*
X116131315Y-60182438D02*
X116226553Y-60277676D01*
X116226553Y-60277676D02*
X116274172Y-60468152D01*
X116274172Y-60468152D02*
X116274172Y-60801485D01*
X116274172Y-60801485D02*
X116226553Y-60991961D01*
X116226553Y-60991961D02*
X116131315Y-61087200D01*
X116131315Y-61087200D02*
X116036077Y-61134819D01*
X116036077Y-61134819D02*
X115845601Y-61134819D01*
X115845601Y-61134819D02*
X115750363Y-61087200D01*
X115750363Y-61087200D02*
X115655125Y-60991961D01*
X115655125Y-60991961D02*
X115607506Y-60801485D01*
X115607506Y-60801485D02*
X115607506Y-60468152D01*
X115607506Y-60468152D02*
X115655125Y-60277676D01*
X115655125Y-60277676D02*
X115750363Y-60182438D01*
X115750363Y-60182438D02*
X115845601Y-60134819D01*
X117131315Y-60468152D02*
X117131315Y-61134819D01*
X116893220Y-60087200D02*
X116655125Y-60801485D01*
X116655125Y-60801485D02*
X117274172Y-60801485D01*
X117559887Y-60134819D02*
X118178934Y-60134819D01*
X118178934Y-60134819D02*
X117845601Y-60515771D01*
X117845601Y-60515771D02*
X117988458Y-60515771D01*
X117988458Y-60515771D02*
X118083696Y-60563390D01*
X118083696Y-60563390D02*
X118131315Y-60611009D01*
X118131315Y-60611009D02*
X118178934Y-60706247D01*
X118178934Y-60706247D02*
X118178934Y-60944342D01*
X118178934Y-60944342D02*
X118131315Y-61039580D01*
X118131315Y-61039580D02*
X118083696Y-61087200D01*
X118083696Y-61087200D02*
X117988458Y-61134819D01*
X117988458Y-61134819D02*
X117702744Y-61134819D01*
X117702744Y-61134819D02*
X117607506Y-61087200D01*
X117607506Y-61087200D02*
X117559887Y-61039580D01*
X119321791Y-60087200D02*
X118464649Y-61372914D01*
X119655125Y-60134819D02*
X119655125Y-60944342D01*
X119655125Y-60944342D02*
X119702744Y-61039580D01*
X119702744Y-61039580D02*
X119750363Y-61087200D01*
X119750363Y-61087200D02*
X119845601Y-61134819D01*
X119845601Y-61134819D02*
X120036077Y-61134819D01*
X120036077Y-61134819D02*
X120131315Y-61087200D01*
X120131315Y-61087200D02*
X120178934Y-61039580D01*
X120178934Y-61039580D02*
X120226553Y-60944342D01*
X120226553Y-60944342D02*
X120226553Y-60134819D01*
X120893220Y-60134819D02*
X120988458Y-60134819D01*
X120988458Y-60134819D02*
X121083696Y-60182438D01*
X121083696Y-60182438D02*
X121131315Y-60230057D01*
X121131315Y-60230057D02*
X121178934Y-60325295D01*
X121178934Y-60325295D02*
X121226553Y-60515771D01*
X121226553Y-60515771D02*
X121226553Y-60753866D01*
X121226553Y-60753866D02*
X121178934Y-60944342D01*
X121178934Y-60944342D02*
X121131315Y-61039580D01*
X121131315Y-61039580D02*
X121083696Y-61087200D01*
X121083696Y-61087200D02*
X120988458Y-61134819D01*
X120988458Y-61134819D02*
X120893220Y-61134819D01*
X120893220Y-61134819D02*
X120797982Y-61087200D01*
X120797982Y-61087200D02*
X120750363Y-61039580D01*
X120750363Y-61039580D02*
X120702744Y-60944342D01*
X120702744Y-60944342D02*
X120655125Y-60753866D01*
X120655125Y-60753866D02*
X120655125Y-60515771D01*
X120655125Y-60515771D02*
X120702744Y-60325295D01*
X120702744Y-60325295D02*
X120750363Y-60230057D01*
X120750363Y-60230057D02*
X120797982Y-60182438D01*
X120797982Y-60182438D02*
X120893220Y-60134819D01*
X121512268Y-60134819D02*
X122083696Y-60134819D01*
X121797982Y-61134819D02*
X121797982Y-60134819D01*
X122321792Y-60134819D02*
X122988458Y-61134819D01*
X122988458Y-60134819D02*
X122321792Y-61134819D01*
X123369411Y-61134819D02*
X123369411Y-60134819D01*
X123369411Y-60134819D02*
X123607506Y-60134819D01*
X123607506Y-60134819D02*
X123750363Y-60182438D01*
X123750363Y-60182438D02*
X123845601Y-60277676D01*
X123845601Y-60277676D02*
X123893220Y-60372914D01*
X123893220Y-60372914D02*
X123940839Y-60563390D01*
X123940839Y-60563390D02*
X123940839Y-60706247D01*
X123940839Y-60706247D02*
X123893220Y-60896723D01*
X123893220Y-60896723D02*
X123845601Y-60991961D01*
X123845601Y-60991961D02*
X123750363Y-61087200D01*
X123750363Y-61087200D02*
X123607506Y-61134819D01*
X123607506Y-61134819D02*
X123369411Y-61134819D01*
X104770588Y-90662438D02*
X104675350Y-90614819D01*
X104675350Y-90614819D02*
X104532493Y-90614819D01*
X104532493Y-90614819D02*
X104389636Y-90662438D01*
X104389636Y-90662438D02*
X104294398Y-90757676D01*
X104294398Y-90757676D02*
X104246779Y-90852914D01*
X104246779Y-90852914D02*
X104199160Y-91043390D01*
X104199160Y-91043390D02*
X104199160Y-91186247D01*
X104199160Y-91186247D02*
X104246779Y-91376723D01*
X104246779Y-91376723D02*
X104294398Y-91471961D01*
X104294398Y-91471961D02*
X104389636Y-91567200D01*
X104389636Y-91567200D02*
X104532493Y-91614819D01*
X104532493Y-91614819D02*
X104627731Y-91614819D01*
X104627731Y-91614819D02*
X104770588Y-91567200D01*
X104770588Y-91567200D02*
X104818207Y-91519580D01*
X104818207Y-91519580D02*
X104818207Y-91186247D01*
X104818207Y-91186247D02*
X104627731Y-91186247D01*
X105246779Y-91614819D02*
X105246779Y-90614819D01*
X105246779Y-90614819D02*
X105627731Y-90614819D01*
X105627731Y-90614819D02*
X105722969Y-90662438D01*
X105722969Y-90662438D02*
X105770588Y-90710057D01*
X105770588Y-90710057D02*
X105818207Y-90805295D01*
X105818207Y-90805295D02*
X105818207Y-90948152D01*
X105818207Y-90948152D02*
X105770588Y-91043390D01*
X105770588Y-91043390D02*
X105722969Y-91091009D01*
X105722969Y-91091009D02*
X105627731Y-91138628D01*
X105627731Y-91138628D02*
X105246779Y-91138628D01*
X106246779Y-91614819D02*
X106246779Y-90614819D01*
X106913445Y-90614819D02*
X107103921Y-90614819D01*
X107103921Y-90614819D02*
X107199159Y-90662438D01*
X107199159Y-90662438D02*
X107294397Y-90757676D01*
X107294397Y-90757676D02*
X107342016Y-90948152D01*
X107342016Y-90948152D02*
X107342016Y-91281485D01*
X107342016Y-91281485D02*
X107294397Y-91471961D01*
X107294397Y-91471961D02*
X107199159Y-91567200D01*
X107199159Y-91567200D02*
X107103921Y-91614819D01*
X107103921Y-91614819D02*
X106913445Y-91614819D01*
X106913445Y-91614819D02*
X106818207Y-91567200D01*
X106818207Y-91567200D02*
X106722969Y-91471961D01*
X106722969Y-91471961D02*
X106675350Y-91281485D01*
X106675350Y-91281485D02*
X106675350Y-90948152D01*
X106675350Y-90948152D02*
X106722969Y-90757676D01*
X106722969Y-90757676D02*
X106818207Y-90662438D01*
X106818207Y-90662438D02*
X106913445Y-90614819D01*
X108199159Y-90948152D02*
X108199159Y-91614819D01*
X107961064Y-90567200D02*
X107722969Y-91281485D01*
X107722969Y-91281485D02*
X108342016Y-91281485D01*
X109151540Y-90614819D02*
X108961064Y-90614819D01*
X108961064Y-90614819D02*
X108865826Y-90662438D01*
X108865826Y-90662438D02*
X108818207Y-90710057D01*
X108818207Y-90710057D02*
X108722969Y-90852914D01*
X108722969Y-90852914D02*
X108675350Y-91043390D01*
X108675350Y-91043390D02*
X108675350Y-91424342D01*
X108675350Y-91424342D02*
X108722969Y-91519580D01*
X108722969Y-91519580D02*
X108770588Y-91567200D01*
X108770588Y-91567200D02*
X108865826Y-91614819D01*
X108865826Y-91614819D02*
X109056302Y-91614819D01*
X109056302Y-91614819D02*
X109151540Y-91567200D01*
X109151540Y-91567200D02*
X109199159Y-91519580D01*
X109199159Y-91519580D02*
X109246778Y-91424342D01*
X109246778Y-91424342D02*
X109246778Y-91186247D01*
X109246778Y-91186247D02*
X109199159Y-91091009D01*
X109199159Y-91091009D02*
X109151540Y-91043390D01*
X109151540Y-91043390D02*
X109056302Y-90995771D01*
X109056302Y-90995771D02*
X108865826Y-90995771D01*
X108865826Y-90995771D02*
X108770588Y-91043390D01*
X108770588Y-91043390D02*
X108722969Y-91091009D01*
X108722969Y-91091009D02*
X108675350Y-91186247D01*
X104770588Y-80502438D02*
X104675350Y-80454819D01*
X104675350Y-80454819D02*
X104532493Y-80454819D01*
X104532493Y-80454819D02*
X104389636Y-80502438D01*
X104389636Y-80502438D02*
X104294398Y-80597676D01*
X104294398Y-80597676D02*
X104246779Y-80692914D01*
X104246779Y-80692914D02*
X104199160Y-80883390D01*
X104199160Y-80883390D02*
X104199160Y-81026247D01*
X104199160Y-81026247D02*
X104246779Y-81216723D01*
X104246779Y-81216723D02*
X104294398Y-81311961D01*
X104294398Y-81311961D02*
X104389636Y-81407200D01*
X104389636Y-81407200D02*
X104532493Y-81454819D01*
X104532493Y-81454819D02*
X104627731Y-81454819D01*
X104627731Y-81454819D02*
X104770588Y-81407200D01*
X104770588Y-81407200D02*
X104818207Y-81359580D01*
X104818207Y-81359580D02*
X104818207Y-81026247D01*
X104818207Y-81026247D02*
X104627731Y-81026247D01*
X105246779Y-81454819D02*
X105246779Y-80454819D01*
X105246779Y-80454819D02*
X105627731Y-80454819D01*
X105627731Y-80454819D02*
X105722969Y-80502438D01*
X105722969Y-80502438D02*
X105770588Y-80550057D01*
X105770588Y-80550057D02*
X105818207Y-80645295D01*
X105818207Y-80645295D02*
X105818207Y-80788152D01*
X105818207Y-80788152D02*
X105770588Y-80883390D01*
X105770588Y-80883390D02*
X105722969Y-80931009D01*
X105722969Y-80931009D02*
X105627731Y-80978628D01*
X105627731Y-80978628D02*
X105246779Y-80978628D01*
X106246779Y-81454819D02*
X106246779Y-80454819D01*
X106913445Y-80454819D02*
X107103921Y-80454819D01*
X107103921Y-80454819D02*
X107199159Y-80502438D01*
X107199159Y-80502438D02*
X107294397Y-80597676D01*
X107294397Y-80597676D02*
X107342016Y-80788152D01*
X107342016Y-80788152D02*
X107342016Y-81121485D01*
X107342016Y-81121485D02*
X107294397Y-81311961D01*
X107294397Y-81311961D02*
X107199159Y-81407200D01*
X107199159Y-81407200D02*
X107103921Y-81454819D01*
X107103921Y-81454819D02*
X106913445Y-81454819D01*
X106913445Y-81454819D02*
X106818207Y-81407200D01*
X106818207Y-81407200D02*
X106722969Y-81311961D01*
X106722969Y-81311961D02*
X106675350Y-81121485D01*
X106675350Y-81121485D02*
X106675350Y-80788152D01*
X106675350Y-80788152D02*
X106722969Y-80597676D01*
X106722969Y-80597676D02*
X106818207Y-80502438D01*
X106818207Y-80502438D02*
X106913445Y-80454819D01*
X108294397Y-81454819D02*
X107722969Y-81454819D01*
X108008683Y-81454819D02*
X108008683Y-80454819D01*
X108008683Y-80454819D02*
X107913445Y-80597676D01*
X107913445Y-80597676D02*
X107818207Y-80692914D01*
X107818207Y-80692914D02*
X107722969Y-80740533D01*
X108627731Y-80454819D02*
X109294397Y-80454819D01*
X109294397Y-80454819D02*
X108865826Y-81454819D01*
X104770588Y-75422438D02*
X104675350Y-75374819D01*
X104675350Y-75374819D02*
X104532493Y-75374819D01*
X104532493Y-75374819D02*
X104389636Y-75422438D01*
X104389636Y-75422438D02*
X104294398Y-75517676D01*
X104294398Y-75517676D02*
X104246779Y-75612914D01*
X104246779Y-75612914D02*
X104199160Y-75803390D01*
X104199160Y-75803390D02*
X104199160Y-75946247D01*
X104199160Y-75946247D02*
X104246779Y-76136723D01*
X104246779Y-76136723D02*
X104294398Y-76231961D01*
X104294398Y-76231961D02*
X104389636Y-76327200D01*
X104389636Y-76327200D02*
X104532493Y-76374819D01*
X104532493Y-76374819D02*
X104627731Y-76374819D01*
X104627731Y-76374819D02*
X104770588Y-76327200D01*
X104770588Y-76327200D02*
X104818207Y-76279580D01*
X104818207Y-76279580D02*
X104818207Y-75946247D01*
X104818207Y-75946247D02*
X104627731Y-75946247D01*
X105246779Y-76374819D02*
X105246779Y-75374819D01*
X105246779Y-75374819D02*
X105627731Y-75374819D01*
X105627731Y-75374819D02*
X105722969Y-75422438D01*
X105722969Y-75422438D02*
X105770588Y-75470057D01*
X105770588Y-75470057D02*
X105818207Y-75565295D01*
X105818207Y-75565295D02*
X105818207Y-75708152D01*
X105818207Y-75708152D02*
X105770588Y-75803390D01*
X105770588Y-75803390D02*
X105722969Y-75851009D01*
X105722969Y-75851009D02*
X105627731Y-75898628D01*
X105627731Y-75898628D02*
X105246779Y-75898628D01*
X106246779Y-76374819D02*
X106246779Y-75374819D01*
X106913445Y-75374819D02*
X107103921Y-75374819D01*
X107103921Y-75374819D02*
X107199159Y-75422438D01*
X107199159Y-75422438D02*
X107294397Y-75517676D01*
X107294397Y-75517676D02*
X107342016Y-75708152D01*
X107342016Y-75708152D02*
X107342016Y-76041485D01*
X107342016Y-76041485D02*
X107294397Y-76231961D01*
X107294397Y-76231961D02*
X107199159Y-76327200D01*
X107199159Y-76327200D02*
X107103921Y-76374819D01*
X107103921Y-76374819D02*
X106913445Y-76374819D01*
X106913445Y-76374819D02*
X106818207Y-76327200D01*
X106818207Y-76327200D02*
X106722969Y-76231961D01*
X106722969Y-76231961D02*
X106675350Y-76041485D01*
X106675350Y-76041485D02*
X106675350Y-75708152D01*
X106675350Y-75708152D02*
X106722969Y-75517676D01*
X106722969Y-75517676D02*
X106818207Y-75422438D01*
X106818207Y-75422438D02*
X106913445Y-75374819D01*
X108294397Y-76374819D02*
X107722969Y-76374819D01*
X108008683Y-76374819D02*
X108008683Y-75374819D01*
X108008683Y-75374819D02*
X107913445Y-75517676D01*
X107913445Y-75517676D02*
X107818207Y-75612914D01*
X107818207Y-75612914D02*
X107722969Y-75660533D01*
X109199159Y-75374819D02*
X108722969Y-75374819D01*
X108722969Y-75374819D02*
X108675350Y-75851009D01*
X108675350Y-75851009D02*
X108722969Y-75803390D01*
X108722969Y-75803390D02*
X108818207Y-75755771D01*
X108818207Y-75755771D02*
X109056302Y-75755771D01*
X109056302Y-75755771D02*
X109151540Y-75803390D01*
X109151540Y-75803390D02*
X109199159Y-75851009D01*
X109199159Y-75851009D02*
X109246778Y-75946247D01*
X109246778Y-75946247D02*
X109246778Y-76184342D01*
X109246778Y-76184342D02*
X109199159Y-76279580D01*
X109199159Y-76279580D02*
X109151540Y-76327200D01*
X109151540Y-76327200D02*
X109056302Y-76374819D01*
X109056302Y-76374819D02*
X108818207Y-76374819D01*
X108818207Y-76374819D02*
X108722969Y-76327200D01*
X108722969Y-76327200D02*
X108675350Y-76279580D01*
X104151541Y-57594819D02*
X104770588Y-57594819D01*
X104770588Y-57594819D02*
X104437255Y-57975771D01*
X104437255Y-57975771D02*
X104580112Y-57975771D01*
X104580112Y-57975771D02*
X104675350Y-58023390D01*
X104675350Y-58023390D02*
X104722969Y-58071009D01*
X104722969Y-58071009D02*
X104770588Y-58166247D01*
X104770588Y-58166247D02*
X104770588Y-58404342D01*
X104770588Y-58404342D02*
X104722969Y-58499580D01*
X104722969Y-58499580D02*
X104675350Y-58547200D01*
X104675350Y-58547200D02*
X104580112Y-58594819D01*
X104580112Y-58594819D02*
X104294398Y-58594819D01*
X104294398Y-58594819D02*
X104199160Y-58547200D01*
X104199160Y-58547200D02*
X104151541Y-58499580D01*
X105056303Y-57594819D02*
X105389636Y-58594819D01*
X105389636Y-58594819D02*
X105722969Y-57594819D01*
X105961065Y-57594819D02*
X106580112Y-57594819D01*
X106580112Y-57594819D02*
X106246779Y-57975771D01*
X106246779Y-57975771D02*
X106389636Y-57975771D01*
X106389636Y-57975771D02*
X106484874Y-58023390D01*
X106484874Y-58023390D02*
X106532493Y-58071009D01*
X106532493Y-58071009D02*
X106580112Y-58166247D01*
X106580112Y-58166247D02*
X106580112Y-58404342D01*
X106580112Y-58404342D02*
X106532493Y-58499580D01*
X106532493Y-58499580D02*
X106484874Y-58547200D01*
X106484874Y-58547200D02*
X106389636Y-58594819D01*
X106389636Y-58594819D02*
X106103922Y-58594819D01*
X106103922Y-58594819D02*
X106008684Y-58547200D01*
X106008684Y-58547200D02*
X105961065Y-58499580D01*
X104141921Y-63148289D02*
X104475254Y-63148289D01*
X104618111Y-63672099D02*
X104141921Y-63672099D01*
X104141921Y-63672099D02*
X104141921Y-62672099D01*
X104141921Y-62672099D02*
X104618111Y-62672099D01*
X105046683Y-63672099D02*
X105046683Y-62672099D01*
X105046683Y-62672099D02*
X105618111Y-63672099D01*
X105618111Y-63672099D02*
X105618111Y-62672099D01*
X106808587Y-62624480D02*
X105951445Y-63910194D01*
X107713349Y-63672099D02*
X107380016Y-63195908D01*
X107141921Y-63672099D02*
X107141921Y-62672099D01*
X107141921Y-62672099D02*
X107522873Y-62672099D01*
X107522873Y-62672099D02*
X107618111Y-62719718D01*
X107618111Y-62719718D02*
X107665730Y-62767337D01*
X107665730Y-62767337D02*
X107713349Y-62862575D01*
X107713349Y-62862575D02*
X107713349Y-63005432D01*
X107713349Y-63005432D02*
X107665730Y-63100670D01*
X107665730Y-63100670D02*
X107618111Y-63148289D01*
X107618111Y-63148289D02*
X107522873Y-63195908D01*
X107522873Y-63195908D02*
X107141921Y-63195908D01*
X108141921Y-63148289D02*
X108475254Y-63148289D01*
X108618111Y-63672099D02*
X108141921Y-63672099D01*
X108141921Y-63672099D02*
X108141921Y-62672099D01*
X108141921Y-62672099D02*
X108618111Y-62672099D01*
X108999064Y-63624480D02*
X109141921Y-63672099D01*
X109141921Y-63672099D02*
X109380016Y-63672099D01*
X109380016Y-63672099D02*
X109475254Y-63624480D01*
X109475254Y-63624480D02*
X109522873Y-63576860D01*
X109522873Y-63576860D02*
X109570492Y-63481622D01*
X109570492Y-63481622D02*
X109570492Y-63386384D01*
X109570492Y-63386384D02*
X109522873Y-63291146D01*
X109522873Y-63291146D02*
X109475254Y-63243527D01*
X109475254Y-63243527D02*
X109380016Y-63195908D01*
X109380016Y-63195908D02*
X109189540Y-63148289D01*
X109189540Y-63148289D02*
X109094302Y-63100670D01*
X109094302Y-63100670D02*
X109046683Y-63053051D01*
X109046683Y-63053051D02*
X108999064Y-62957813D01*
X108999064Y-62957813D02*
X108999064Y-62862575D01*
X108999064Y-62862575D02*
X109046683Y-62767337D01*
X109046683Y-62767337D02*
X109094302Y-62719718D01*
X109094302Y-62719718D02*
X109189540Y-62672099D01*
X109189540Y-62672099D02*
X109427635Y-62672099D01*
X109427635Y-62672099D02*
X109570492Y-62719718D01*
X109999064Y-63148289D02*
X110332397Y-63148289D01*
X110475254Y-63672099D02*
X109999064Y-63672099D01*
X109999064Y-63672099D02*
X109999064Y-62672099D01*
X109999064Y-62672099D02*
X110475254Y-62672099D01*
X110760969Y-62672099D02*
X111332397Y-62672099D01*
X111046683Y-63672099D02*
X111046683Y-62672099D01*
X104770588Y-95742438D02*
X104675350Y-95694819D01*
X104675350Y-95694819D02*
X104532493Y-95694819D01*
X104532493Y-95694819D02*
X104389636Y-95742438D01*
X104389636Y-95742438D02*
X104294398Y-95837676D01*
X104294398Y-95837676D02*
X104246779Y-95932914D01*
X104246779Y-95932914D02*
X104199160Y-96123390D01*
X104199160Y-96123390D02*
X104199160Y-96266247D01*
X104199160Y-96266247D02*
X104246779Y-96456723D01*
X104246779Y-96456723D02*
X104294398Y-96551961D01*
X104294398Y-96551961D02*
X104389636Y-96647200D01*
X104389636Y-96647200D02*
X104532493Y-96694819D01*
X104532493Y-96694819D02*
X104627731Y-96694819D01*
X104627731Y-96694819D02*
X104770588Y-96647200D01*
X104770588Y-96647200D02*
X104818207Y-96599580D01*
X104818207Y-96599580D02*
X104818207Y-96266247D01*
X104818207Y-96266247D02*
X104627731Y-96266247D01*
X105246779Y-96694819D02*
X105246779Y-95694819D01*
X105246779Y-95694819D02*
X105627731Y-95694819D01*
X105627731Y-95694819D02*
X105722969Y-95742438D01*
X105722969Y-95742438D02*
X105770588Y-95790057D01*
X105770588Y-95790057D02*
X105818207Y-95885295D01*
X105818207Y-95885295D02*
X105818207Y-96028152D01*
X105818207Y-96028152D02*
X105770588Y-96123390D01*
X105770588Y-96123390D02*
X105722969Y-96171009D01*
X105722969Y-96171009D02*
X105627731Y-96218628D01*
X105627731Y-96218628D02*
X105246779Y-96218628D01*
X106246779Y-96694819D02*
X106246779Y-95694819D01*
X106913445Y-95694819D02*
X107103921Y-95694819D01*
X107103921Y-95694819D02*
X107199159Y-95742438D01*
X107199159Y-95742438D02*
X107294397Y-95837676D01*
X107294397Y-95837676D02*
X107342016Y-96028152D01*
X107342016Y-96028152D02*
X107342016Y-96361485D01*
X107342016Y-96361485D02*
X107294397Y-96551961D01*
X107294397Y-96551961D02*
X107199159Y-96647200D01*
X107199159Y-96647200D02*
X107103921Y-96694819D01*
X107103921Y-96694819D02*
X106913445Y-96694819D01*
X106913445Y-96694819D02*
X106818207Y-96647200D01*
X106818207Y-96647200D02*
X106722969Y-96551961D01*
X106722969Y-96551961D02*
X106675350Y-96361485D01*
X106675350Y-96361485D02*
X106675350Y-96028152D01*
X106675350Y-96028152D02*
X106722969Y-95837676D01*
X106722969Y-95837676D02*
X106818207Y-95742438D01*
X106818207Y-95742438D02*
X106913445Y-95694819D01*
X108294397Y-96694819D02*
X107722969Y-96694819D01*
X108008683Y-96694819D02*
X108008683Y-95694819D01*
X108008683Y-95694819D02*
X107913445Y-95837676D01*
X107913445Y-95837676D02*
X107818207Y-95932914D01*
X107818207Y-95932914D02*
X107722969Y-95980533D01*
X108913445Y-95694819D02*
X109008683Y-95694819D01*
X109008683Y-95694819D02*
X109103921Y-95742438D01*
X109103921Y-95742438D02*
X109151540Y-95790057D01*
X109151540Y-95790057D02*
X109199159Y-95885295D01*
X109199159Y-95885295D02*
X109246778Y-96075771D01*
X109246778Y-96075771D02*
X109246778Y-96313866D01*
X109246778Y-96313866D02*
X109199159Y-96504342D01*
X109199159Y-96504342D02*
X109151540Y-96599580D01*
X109151540Y-96599580D02*
X109103921Y-96647200D01*
X109103921Y-96647200D02*
X109008683Y-96694819D01*
X109008683Y-96694819D02*
X108913445Y-96694819D01*
X108913445Y-96694819D02*
X108818207Y-96647200D01*
X108818207Y-96647200D02*
X108770588Y-96599580D01*
X108770588Y-96599580D02*
X108722969Y-96504342D01*
X108722969Y-96504342D02*
X108675350Y-96313866D01*
X108675350Y-96313866D02*
X108675350Y-96075771D01*
X108675350Y-96075771D02*
X108722969Y-95885295D01*
X108722969Y-95885295D02*
X108770588Y-95790057D01*
X108770588Y-95790057D02*
X108818207Y-95742438D01*
X108818207Y-95742438D02*
X108913445Y-95694819D01*
X104770588Y-98282438D02*
X104675350Y-98234819D01*
X104675350Y-98234819D02*
X104532493Y-98234819D01*
X104532493Y-98234819D02*
X104389636Y-98282438D01*
X104389636Y-98282438D02*
X104294398Y-98377676D01*
X104294398Y-98377676D02*
X104246779Y-98472914D01*
X104246779Y-98472914D02*
X104199160Y-98663390D01*
X104199160Y-98663390D02*
X104199160Y-98806247D01*
X104199160Y-98806247D02*
X104246779Y-98996723D01*
X104246779Y-98996723D02*
X104294398Y-99091961D01*
X104294398Y-99091961D02*
X104389636Y-99187200D01*
X104389636Y-99187200D02*
X104532493Y-99234819D01*
X104532493Y-99234819D02*
X104627731Y-99234819D01*
X104627731Y-99234819D02*
X104770588Y-99187200D01*
X104770588Y-99187200D02*
X104818207Y-99139580D01*
X104818207Y-99139580D02*
X104818207Y-98806247D01*
X104818207Y-98806247D02*
X104627731Y-98806247D01*
X105246779Y-99234819D02*
X105246779Y-98234819D01*
X105246779Y-98234819D02*
X105627731Y-98234819D01*
X105627731Y-98234819D02*
X105722969Y-98282438D01*
X105722969Y-98282438D02*
X105770588Y-98330057D01*
X105770588Y-98330057D02*
X105818207Y-98425295D01*
X105818207Y-98425295D02*
X105818207Y-98568152D01*
X105818207Y-98568152D02*
X105770588Y-98663390D01*
X105770588Y-98663390D02*
X105722969Y-98711009D01*
X105722969Y-98711009D02*
X105627731Y-98758628D01*
X105627731Y-98758628D02*
X105246779Y-98758628D01*
X106246779Y-99234819D02*
X106246779Y-98234819D01*
X106913445Y-98234819D02*
X107103921Y-98234819D01*
X107103921Y-98234819D02*
X107199159Y-98282438D01*
X107199159Y-98282438D02*
X107294397Y-98377676D01*
X107294397Y-98377676D02*
X107342016Y-98568152D01*
X107342016Y-98568152D02*
X107342016Y-98901485D01*
X107342016Y-98901485D02*
X107294397Y-99091961D01*
X107294397Y-99091961D02*
X107199159Y-99187200D01*
X107199159Y-99187200D02*
X107103921Y-99234819D01*
X107103921Y-99234819D02*
X106913445Y-99234819D01*
X106913445Y-99234819D02*
X106818207Y-99187200D01*
X106818207Y-99187200D02*
X106722969Y-99091961D01*
X106722969Y-99091961D02*
X106675350Y-98901485D01*
X106675350Y-98901485D02*
X106675350Y-98568152D01*
X106675350Y-98568152D02*
X106722969Y-98377676D01*
X106722969Y-98377676D02*
X106818207Y-98282438D01*
X106818207Y-98282438D02*
X106913445Y-98234819D01*
X108294397Y-99234819D02*
X107722969Y-99234819D01*
X108008683Y-99234819D02*
X108008683Y-98234819D01*
X108008683Y-98234819D02*
X107913445Y-98377676D01*
X107913445Y-98377676D02*
X107818207Y-98472914D01*
X107818207Y-98472914D02*
X107722969Y-98520533D01*
X109246778Y-99234819D02*
X108675350Y-99234819D01*
X108961064Y-99234819D02*
X108961064Y-98234819D01*
X108961064Y-98234819D02*
X108865826Y-98377676D01*
X108865826Y-98377676D02*
X108770588Y-98472914D01*
X108770588Y-98472914D02*
X108675350Y-98520533D01*
X114417030Y-70342438D02*
X114321792Y-70294819D01*
X114321792Y-70294819D02*
X114178935Y-70294819D01*
X114178935Y-70294819D02*
X114036078Y-70342438D01*
X114036078Y-70342438D02*
X113940840Y-70437676D01*
X113940840Y-70437676D02*
X113893221Y-70532914D01*
X113893221Y-70532914D02*
X113845602Y-70723390D01*
X113845602Y-70723390D02*
X113845602Y-70866247D01*
X113845602Y-70866247D02*
X113893221Y-71056723D01*
X113893221Y-71056723D02*
X113940840Y-71151961D01*
X113940840Y-71151961D02*
X114036078Y-71247200D01*
X114036078Y-71247200D02*
X114178935Y-71294819D01*
X114178935Y-71294819D02*
X114274173Y-71294819D01*
X114274173Y-71294819D02*
X114417030Y-71247200D01*
X114417030Y-71247200D02*
X114464649Y-71199580D01*
X114464649Y-71199580D02*
X114464649Y-70866247D01*
X114464649Y-70866247D02*
X114274173Y-70866247D01*
X114893221Y-71294819D02*
X114893221Y-70294819D01*
X114893221Y-70294819D02*
X115274173Y-70294819D01*
X115274173Y-70294819D02*
X115369411Y-70342438D01*
X115369411Y-70342438D02*
X115417030Y-70390057D01*
X115417030Y-70390057D02*
X115464649Y-70485295D01*
X115464649Y-70485295D02*
X115464649Y-70628152D01*
X115464649Y-70628152D02*
X115417030Y-70723390D01*
X115417030Y-70723390D02*
X115369411Y-70771009D01*
X115369411Y-70771009D02*
X115274173Y-70818628D01*
X115274173Y-70818628D02*
X114893221Y-70818628D01*
X115893221Y-71294819D02*
X115893221Y-70294819D01*
X116559887Y-70294819D02*
X116750363Y-70294819D01*
X116750363Y-70294819D02*
X116845601Y-70342438D01*
X116845601Y-70342438D02*
X116940839Y-70437676D01*
X116940839Y-70437676D02*
X116988458Y-70628152D01*
X116988458Y-70628152D02*
X116988458Y-70961485D01*
X116988458Y-70961485D02*
X116940839Y-71151961D01*
X116940839Y-71151961D02*
X116845601Y-71247200D01*
X116845601Y-71247200D02*
X116750363Y-71294819D01*
X116750363Y-71294819D02*
X116559887Y-71294819D01*
X116559887Y-71294819D02*
X116464649Y-71247200D01*
X116464649Y-71247200D02*
X116369411Y-71151961D01*
X116369411Y-71151961D02*
X116321792Y-70961485D01*
X116321792Y-70961485D02*
X116321792Y-70628152D01*
X116321792Y-70628152D02*
X116369411Y-70437676D01*
X116369411Y-70437676D02*
X116464649Y-70342438D01*
X116464649Y-70342438D02*
X116559887Y-70294819D01*
X117845601Y-70628152D02*
X117845601Y-71294819D01*
X117607506Y-70247200D02*
X117369411Y-70961485D01*
X117369411Y-70961485D02*
X117988458Y-70961485D01*
X118321792Y-70390057D02*
X118369411Y-70342438D01*
X118369411Y-70342438D02*
X118464649Y-70294819D01*
X118464649Y-70294819D02*
X118702744Y-70294819D01*
X118702744Y-70294819D02*
X118797982Y-70342438D01*
X118797982Y-70342438D02*
X118845601Y-70390057D01*
X118845601Y-70390057D02*
X118893220Y-70485295D01*
X118893220Y-70485295D02*
X118893220Y-70580533D01*
X118893220Y-70580533D02*
X118845601Y-70723390D01*
X118845601Y-70723390D02*
X118274173Y-71294819D01*
X118274173Y-71294819D02*
X118893220Y-71294819D01*
X120036077Y-70247200D02*
X119178935Y-71532914D01*
X120369411Y-71294819D02*
X120369411Y-70294819D01*
X120369411Y-70294819D02*
X120702744Y-71009104D01*
X120702744Y-71009104D02*
X121036077Y-70294819D01*
X121036077Y-70294819D02*
X121036077Y-71294819D01*
X121369411Y-70294819D02*
X121940839Y-70294819D01*
X121655125Y-71294819D02*
X121655125Y-70294819D01*
X122274173Y-71294819D02*
X122274173Y-70294819D01*
X122274173Y-70294819D02*
X122607506Y-71009104D01*
X122607506Y-71009104D02*
X122940839Y-70294819D01*
X122940839Y-70294819D02*
X122940839Y-71294819D01*
X123369411Y-71247200D02*
X123512268Y-71294819D01*
X123512268Y-71294819D02*
X123750363Y-71294819D01*
X123750363Y-71294819D02*
X123845601Y-71247200D01*
X123845601Y-71247200D02*
X123893220Y-71199580D01*
X123893220Y-71199580D02*
X123940839Y-71104342D01*
X123940839Y-71104342D02*
X123940839Y-71009104D01*
X123940839Y-71009104D02*
X123893220Y-70913866D01*
X123893220Y-70913866D02*
X123845601Y-70866247D01*
X123845601Y-70866247D02*
X123750363Y-70818628D01*
X123750363Y-70818628D02*
X123559887Y-70771009D01*
X123559887Y-70771009D02*
X123464649Y-70723390D01*
X123464649Y-70723390D02*
X123417030Y-70675771D01*
X123417030Y-70675771D02*
X123369411Y-70580533D01*
X123369411Y-70580533D02*
X123369411Y-70485295D01*
X123369411Y-70485295D02*
X123417030Y-70390057D01*
X123417030Y-70390057D02*
X123464649Y-70342438D01*
X123464649Y-70342438D02*
X123559887Y-70294819D01*
X123559887Y-70294819D02*
X123797982Y-70294819D01*
X123797982Y-70294819D02*
X123940839Y-70342438D01*
X119464649Y-103362438D02*
X119369411Y-103314819D01*
X119369411Y-103314819D02*
X119226554Y-103314819D01*
X119226554Y-103314819D02*
X119083697Y-103362438D01*
X119083697Y-103362438D02*
X118988459Y-103457676D01*
X118988459Y-103457676D02*
X118940840Y-103552914D01*
X118940840Y-103552914D02*
X118893221Y-103743390D01*
X118893221Y-103743390D02*
X118893221Y-103886247D01*
X118893221Y-103886247D02*
X118940840Y-104076723D01*
X118940840Y-104076723D02*
X118988459Y-104171961D01*
X118988459Y-104171961D02*
X119083697Y-104267200D01*
X119083697Y-104267200D02*
X119226554Y-104314819D01*
X119226554Y-104314819D02*
X119321792Y-104314819D01*
X119321792Y-104314819D02*
X119464649Y-104267200D01*
X119464649Y-104267200D02*
X119512268Y-104219580D01*
X119512268Y-104219580D02*
X119512268Y-103886247D01*
X119512268Y-103886247D02*
X119321792Y-103886247D01*
X119940840Y-104314819D02*
X119940840Y-103314819D01*
X119940840Y-103314819D02*
X120321792Y-103314819D01*
X120321792Y-103314819D02*
X120417030Y-103362438D01*
X120417030Y-103362438D02*
X120464649Y-103410057D01*
X120464649Y-103410057D02*
X120512268Y-103505295D01*
X120512268Y-103505295D02*
X120512268Y-103648152D01*
X120512268Y-103648152D02*
X120464649Y-103743390D01*
X120464649Y-103743390D02*
X120417030Y-103791009D01*
X120417030Y-103791009D02*
X120321792Y-103838628D01*
X120321792Y-103838628D02*
X119940840Y-103838628D01*
X120940840Y-104314819D02*
X120940840Y-103314819D01*
X121607506Y-103314819D02*
X121797982Y-103314819D01*
X121797982Y-103314819D02*
X121893220Y-103362438D01*
X121893220Y-103362438D02*
X121988458Y-103457676D01*
X121988458Y-103457676D02*
X122036077Y-103648152D01*
X122036077Y-103648152D02*
X122036077Y-103981485D01*
X122036077Y-103981485D02*
X121988458Y-104171961D01*
X121988458Y-104171961D02*
X121893220Y-104267200D01*
X121893220Y-104267200D02*
X121797982Y-104314819D01*
X121797982Y-104314819D02*
X121607506Y-104314819D01*
X121607506Y-104314819D02*
X121512268Y-104267200D01*
X121512268Y-104267200D02*
X121417030Y-104171961D01*
X121417030Y-104171961D02*
X121369411Y-103981485D01*
X121369411Y-103981485D02*
X121369411Y-103648152D01*
X121369411Y-103648152D02*
X121417030Y-103457676D01*
X121417030Y-103457676D02*
X121512268Y-103362438D01*
X121512268Y-103362438D02*
X121607506Y-103314819D01*
X122417030Y-103410057D02*
X122464649Y-103362438D01*
X122464649Y-103362438D02*
X122559887Y-103314819D01*
X122559887Y-103314819D02*
X122797982Y-103314819D01*
X122797982Y-103314819D02*
X122893220Y-103362438D01*
X122893220Y-103362438D02*
X122940839Y-103410057D01*
X122940839Y-103410057D02*
X122988458Y-103505295D01*
X122988458Y-103505295D02*
X122988458Y-103600533D01*
X122988458Y-103600533D02*
X122940839Y-103743390D01*
X122940839Y-103743390D02*
X122369411Y-104314819D01*
X122369411Y-104314819D02*
X122988458Y-104314819D01*
X123607506Y-103314819D02*
X123702744Y-103314819D01*
X123702744Y-103314819D02*
X123797982Y-103362438D01*
X123797982Y-103362438D02*
X123845601Y-103410057D01*
X123845601Y-103410057D02*
X123893220Y-103505295D01*
X123893220Y-103505295D02*
X123940839Y-103695771D01*
X123940839Y-103695771D02*
X123940839Y-103933866D01*
X123940839Y-103933866D02*
X123893220Y-104124342D01*
X123893220Y-104124342D02*
X123845601Y-104219580D01*
X123845601Y-104219580D02*
X123797982Y-104267200D01*
X123797982Y-104267200D02*
X123702744Y-104314819D01*
X123702744Y-104314819D02*
X123607506Y-104314819D01*
X123607506Y-104314819D02*
X123512268Y-104267200D01*
X123512268Y-104267200D02*
X123464649Y-104219580D01*
X123464649Y-104219580D02*
X123417030Y-104124342D01*
X123417030Y-104124342D02*
X123369411Y-103933866D01*
X123369411Y-103933866D02*
X123369411Y-103695771D01*
X123369411Y-103695771D02*
X123417030Y-103505295D01*
X123417030Y-103505295D02*
X123464649Y-103410057D01*
X123464649Y-103410057D02*
X123512268Y-103362438D01*
X123512268Y-103362438D02*
X123607506Y-103314819D01*
X119464649Y-85582438D02*
X119369411Y-85534819D01*
X119369411Y-85534819D02*
X119226554Y-85534819D01*
X119226554Y-85534819D02*
X119083697Y-85582438D01*
X119083697Y-85582438D02*
X118988459Y-85677676D01*
X118988459Y-85677676D02*
X118940840Y-85772914D01*
X118940840Y-85772914D02*
X118893221Y-85963390D01*
X118893221Y-85963390D02*
X118893221Y-86106247D01*
X118893221Y-86106247D02*
X118940840Y-86296723D01*
X118940840Y-86296723D02*
X118988459Y-86391961D01*
X118988459Y-86391961D02*
X119083697Y-86487200D01*
X119083697Y-86487200D02*
X119226554Y-86534819D01*
X119226554Y-86534819D02*
X119321792Y-86534819D01*
X119321792Y-86534819D02*
X119464649Y-86487200D01*
X119464649Y-86487200D02*
X119512268Y-86439580D01*
X119512268Y-86439580D02*
X119512268Y-86106247D01*
X119512268Y-86106247D02*
X119321792Y-86106247D01*
X119940840Y-86534819D02*
X119940840Y-85534819D01*
X119940840Y-85534819D02*
X120321792Y-85534819D01*
X120321792Y-85534819D02*
X120417030Y-85582438D01*
X120417030Y-85582438D02*
X120464649Y-85630057D01*
X120464649Y-85630057D02*
X120512268Y-85725295D01*
X120512268Y-85725295D02*
X120512268Y-85868152D01*
X120512268Y-85868152D02*
X120464649Y-85963390D01*
X120464649Y-85963390D02*
X120417030Y-86011009D01*
X120417030Y-86011009D02*
X120321792Y-86058628D01*
X120321792Y-86058628D02*
X119940840Y-86058628D01*
X120940840Y-86534819D02*
X120940840Y-85534819D01*
X121607506Y-85534819D02*
X121797982Y-85534819D01*
X121797982Y-85534819D02*
X121893220Y-85582438D01*
X121893220Y-85582438D02*
X121988458Y-85677676D01*
X121988458Y-85677676D02*
X122036077Y-85868152D01*
X122036077Y-85868152D02*
X122036077Y-86201485D01*
X122036077Y-86201485D02*
X121988458Y-86391961D01*
X121988458Y-86391961D02*
X121893220Y-86487200D01*
X121893220Y-86487200D02*
X121797982Y-86534819D01*
X121797982Y-86534819D02*
X121607506Y-86534819D01*
X121607506Y-86534819D02*
X121512268Y-86487200D01*
X121512268Y-86487200D02*
X121417030Y-86391961D01*
X121417030Y-86391961D02*
X121369411Y-86201485D01*
X121369411Y-86201485D02*
X121369411Y-85868152D01*
X121369411Y-85868152D02*
X121417030Y-85677676D01*
X121417030Y-85677676D02*
X121512268Y-85582438D01*
X121512268Y-85582438D02*
X121607506Y-85534819D01*
X122369411Y-85534819D02*
X122988458Y-85534819D01*
X122988458Y-85534819D02*
X122655125Y-85915771D01*
X122655125Y-85915771D02*
X122797982Y-85915771D01*
X122797982Y-85915771D02*
X122893220Y-85963390D01*
X122893220Y-85963390D02*
X122940839Y-86011009D01*
X122940839Y-86011009D02*
X122988458Y-86106247D01*
X122988458Y-86106247D02*
X122988458Y-86344342D01*
X122988458Y-86344342D02*
X122940839Y-86439580D01*
X122940839Y-86439580D02*
X122893220Y-86487200D01*
X122893220Y-86487200D02*
X122797982Y-86534819D01*
X122797982Y-86534819D02*
X122512268Y-86534819D01*
X122512268Y-86534819D02*
X122417030Y-86487200D01*
X122417030Y-86487200D02*
X122369411Y-86439580D01*
X123845601Y-85534819D02*
X123655125Y-85534819D01*
X123655125Y-85534819D02*
X123559887Y-85582438D01*
X123559887Y-85582438D02*
X123512268Y-85630057D01*
X123512268Y-85630057D02*
X123417030Y-85772914D01*
X123417030Y-85772914D02*
X123369411Y-85963390D01*
X123369411Y-85963390D02*
X123369411Y-86344342D01*
X123369411Y-86344342D02*
X123417030Y-86439580D01*
X123417030Y-86439580D02*
X123464649Y-86487200D01*
X123464649Y-86487200D02*
X123559887Y-86534819D01*
X123559887Y-86534819D02*
X123750363Y-86534819D01*
X123750363Y-86534819D02*
X123845601Y-86487200D01*
X123845601Y-86487200D02*
X123893220Y-86439580D01*
X123893220Y-86439580D02*
X123940839Y-86344342D01*
X123940839Y-86344342D02*
X123940839Y-86106247D01*
X123940839Y-86106247D02*
X123893220Y-86011009D01*
X123893220Y-86011009D02*
X123845601Y-85963390D01*
X123845601Y-85963390D02*
X123750363Y-85915771D01*
X123750363Y-85915771D02*
X123559887Y-85915771D01*
X123559887Y-85915771D02*
X123464649Y-85963390D01*
X123464649Y-85963390D02*
X123417030Y-86011009D01*
X123417030Y-86011009D02*
X123369411Y-86106247D01*
X121845601Y-110982438D02*
X121750363Y-110934819D01*
X121750363Y-110934819D02*
X121607506Y-110934819D01*
X121607506Y-110934819D02*
X121464649Y-110982438D01*
X121464649Y-110982438D02*
X121369411Y-111077676D01*
X121369411Y-111077676D02*
X121321792Y-111172914D01*
X121321792Y-111172914D02*
X121274173Y-111363390D01*
X121274173Y-111363390D02*
X121274173Y-111506247D01*
X121274173Y-111506247D02*
X121321792Y-111696723D01*
X121321792Y-111696723D02*
X121369411Y-111791961D01*
X121369411Y-111791961D02*
X121464649Y-111887200D01*
X121464649Y-111887200D02*
X121607506Y-111934819D01*
X121607506Y-111934819D02*
X121702744Y-111934819D01*
X121702744Y-111934819D02*
X121845601Y-111887200D01*
X121845601Y-111887200D02*
X121893220Y-111839580D01*
X121893220Y-111839580D02*
X121893220Y-111506247D01*
X121893220Y-111506247D02*
X121702744Y-111506247D01*
X122321792Y-111934819D02*
X122321792Y-110934819D01*
X122321792Y-110934819D02*
X122893220Y-111934819D01*
X122893220Y-111934819D02*
X122893220Y-110934819D01*
X123369411Y-111934819D02*
X123369411Y-110934819D01*
X123369411Y-110934819D02*
X123607506Y-110934819D01*
X123607506Y-110934819D02*
X123750363Y-110982438D01*
X123750363Y-110982438D02*
X123845601Y-111077676D01*
X123845601Y-111077676D02*
X123893220Y-111172914D01*
X123893220Y-111172914D02*
X123940839Y-111363390D01*
X123940839Y-111363390D02*
X123940839Y-111506247D01*
X123940839Y-111506247D02*
X123893220Y-111696723D01*
X123893220Y-111696723D02*
X123845601Y-111791961D01*
X123845601Y-111791961D02*
X123750363Y-111887200D01*
X123750363Y-111887200D02*
X123607506Y-111934819D01*
X123607506Y-111934819D02*
X123369411Y-111934819D01*
X115036078Y-72882438D02*
X114940840Y-72834819D01*
X114940840Y-72834819D02*
X114797983Y-72834819D01*
X114797983Y-72834819D02*
X114655126Y-72882438D01*
X114655126Y-72882438D02*
X114559888Y-72977676D01*
X114559888Y-72977676D02*
X114512269Y-73072914D01*
X114512269Y-73072914D02*
X114464650Y-73263390D01*
X114464650Y-73263390D02*
X114464650Y-73406247D01*
X114464650Y-73406247D02*
X114512269Y-73596723D01*
X114512269Y-73596723D02*
X114559888Y-73691961D01*
X114559888Y-73691961D02*
X114655126Y-73787200D01*
X114655126Y-73787200D02*
X114797983Y-73834819D01*
X114797983Y-73834819D02*
X114893221Y-73834819D01*
X114893221Y-73834819D02*
X115036078Y-73787200D01*
X115036078Y-73787200D02*
X115083697Y-73739580D01*
X115083697Y-73739580D02*
X115083697Y-73406247D01*
X115083697Y-73406247D02*
X114893221Y-73406247D01*
X115512269Y-73834819D02*
X115512269Y-72834819D01*
X115512269Y-72834819D02*
X115893221Y-72834819D01*
X115893221Y-72834819D02*
X115988459Y-72882438D01*
X115988459Y-72882438D02*
X116036078Y-72930057D01*
X116036078Y-72930057D02*
X116083697Y-73025295D01*
X116083697Y-73025295D02*
X116083697Y-73168152D01*
X116083697Y-73168152D02*
X116036078Y-73263390D01*
X116036078Y-73263390D02*
X115988459Y-73311009D01*
X115988459Y-73311009D02*
X115893221Y-73358628D01*
X115893221Y-73358628D02*
X115512269Y-73358628D01*
X116512269Y-73834819D02*
X116512269Y-72834819D01*
X117178935Y-72834819D02*
X117369411Y-72834819D01*
X117369411Y-72834819D02*
X117464649Y-72882438D01*
X117464649Y-72882438D02*
X117559887Y-72977676D01*
X117559887Y-72977676D02*
X117607506Y-73168152D01*
X117607506Y-73168152D02*
X117607506Y-73501485D01*
X117607506Y-73501485D02*
X117559887Y-73691961D01*
X117559887Y-73691961D02*
X117464649Y-73787200D01*
X117464649Y-73787200D02*
X117369411Y-73834819D01*
X117369411Y-73834819D02*
X117178935Y-73834819D01*
X117178935Y-73834819D02*
X117083697Y-73787200D01*
X117083697Y-73787200D02*
X116988459Y-73691961D01*
X116988459Y-73691961D02*
X116940840Y-73501485D01*
X116940840Y-73501485D02*
X116940840Y-73168152D01*
X116940840Y-73168152D02*
X116988459Y-72977676D01*
X116988459Y-72977676D02*
X117083697Y-72882438D01*
X117083697Y-72882438D02*
X117178935Y-72834819D01*
X118464649Y-73168152D02*
X118464649Y-73834819D01*
X118226554Y-72787200D02*
X117988459Y-73501485D01*
X117988459Y-73501485D02*
X118607506Y-73501485D01*
X119512268Y-73834819D02*
X118940840Y-73834819D01*
X119226554Y-73834819D02*
X119226554Y-72834819D01*
X119226554Y-72834819D02*
X119131316Y-72977676D01*
X119131316Y-72977676D02*
X119036078Y-73072914D01*
X119036078Y-73072914D02*
X118940840Y-73120533D01*
X120655125Y-72787200D02*
X119797983Y-74072914D01*
X120988459Y-73834819D02*
X120988459Y-72834819D01*
X120988459Y-72834819D02*
X121321792Y-73549104D01*
X121321792Y-73549104D02*
X121655125Y-72834819D01*
X121655125Y-72834819D02*
X121655125Y-73834819D01*
X121988459Y-72834819D02*
X122559887Y-72834819D01*
X122274173Y-73834819D02*
X122274173Y-72834819D01*
X122893221Y-73834819D02*
X122893221Y-72834819D01*
X122893221Y-72834819D02*
X123131316Y-72834819D01*
X123131316Y-72834819D02*
X123274173Y-72882438D01*
X123274173Y-72882438D02*
X123369411Y-72977676D01*
X123369411Y-72977676D02*
X123417030Y-73072914D01*
X123417030Y-73072914D02*
X123464649Y-73263390D01*
X123464649Y-73263390D02*
X123464649Y-73406247D01*
X123464649Y-73406247D02*
X123417030Y-73596723D01*
X123417030Y-73596723D02*
X123369411Y-73691961D01*
X123369411Y-73691961D02*
X123274173Y-73787200D01*
X123274173Y-73787200D02*
X123131316Y-73834819D01*
X123131316Y-73834819D02*
X122893221Y-73834819D01*
X123893221Y-73834819D02*
X123893221Y-72834819D01*
X104770588Y-103362438D02*
X104675350Y-103314819D01*
X104675350Y-103314819D02*
X104532493Y-103314819D01*
X104532493Y-103314819D02*
X104389636Y-103362438D01*
X104389636Y-103362438D02*
X104294398Y-103457676D01*
X104294398Y-103457676D02*
X104246779Y-103552914D01*
X104246779Y-103552914D02*
X104199160Y-103743390D01*
X104199160Y-103743390D02*
X104199160Y-103886247D01*
X104199160Y-103886247D02*
X104246779Y-104076723D01*
X104246779Y-104076723D02*
X104294398Y-104171961D01*
X104294398Y-104171961D02*
X104389636Y-104267200D01*
X104389636Y-104267200D02*
X104532493Y-104314819D01*
X104532493Y-104314819D02*
X104627731Y-104314819D01*
X104627731Y-104314819D02*
X104770588Y-104267200D01*
X104770588Y-104267200D02*
X104818207Y-104219580D01*
X104818207Y-104219580D02*
X104818207Y-103886247D01*
X104818207Y-103886247D02*
X104627731Y-103886247D01*
X105246779Y-104314819D02*
X105246779Y-103314819D01*
X105246779Y-103314819D02*
X105627731Y-103314819D01*
X105627731Y-103314819D02*
X105722969Y-103362438D01*
X105722969Y-103362438D02*
X105770588Y-103410057D01*
X105770588Y-103410057D02*
X105818207Y-103505295D01*
X105818207Y-103505295D02*
X105818207Y-103648152D01*
X105818207Y-103648152D02*
X105770588Y-103743390D01*
X105770588Y-103743390D02*
X105722969Y-103791009D01*
X105722969Y-103791009D02*
X105627731Y-103838628D01*
X105627731Y-103838628D02*
X105246779Y-103838628D01*
X106246779Y-104314819D02*
X106246779Y-103314819D01*
X106913445Y-103314819D02*
X107103921Y-103314819D01*
X107103921Y-103314819D02*
X107199159Y-103362438D01*
X107199159Y-103362438D02*
X107294397Y-103457676D01*
X107294397Y-103457676D02*
X107342016Y-103648152D01*
X107342016Y-103648152D02*
X107342016Y-103981485D01*
X107342016Y-103981485D02*
X107294397Y-104171961D01*
X107294397Y-104171961D02*
X107199159Y-104267200D01*
X107199159Y-104267200D02*
X107103921Y-104314819D01*
X107103921Y-104314819D02*
X106913445Y-104314819D01*
X106913445Y-104314819D02*
X106818207Y-104267200D01*
X106818207Y-104267200D02*
X106722969Y-104171961D01*
X106722969Y-104171961D02*
X106675350Y-103981485D01*
X106675350Y-103981485D02*
X106675350Y-103648152D01*
X106675350Y-103648152D02*
X106722969Y-103457676D01*
X106722969Y-103457676D02*
X106818207Y-103362438D01*
X106818207Y-103362438D02*
X106913445Y-103314819D01*
X108294397Y-104314819D02*
X107722969Y-104314819D01*
X108008683Y-104314819D02*
X108008683Y-103314819D01*
X108008683Y-103314819D02*
X107913445Y-103457676D01*
X107913445Y-103457676D02*
X107818207Y-103552914D01*
X107818207Y-103552914D02*
X107722969Y-103600533D01*
X108627731Y-103314819D02*
X109246778Y-103314819D01*
X109246778Y-103314819D02*
X108913445Y-103695771D01*
X108913445Y-103695771D02*
X109056302Y-103695771D01*
X109056302Y-103695771D02*
X109151540Y-103743390D01*
X109151540Y-103743390D02*
X109199159Y-103791009D01*
X109199159Y-103791009D02*
X109246778Y-103886247D01*
X109246778Y-103886247D02*
X109246778Y-104124342D01*
X109246778Y-104124342D02*
X109199159Y-104219580D01*
X109199159Y-104219580D02*
X109151540Y-104267200D01*
X109151540Y-104267200D02*
X109056302Y-104314819D01*
X109056302Y-104314819D02*
X108770588Y-104314819D01*
X108770588Y-104314819D02*
X108675350Y-104267200D01*
X108675350Y-104267200D02*
X108627731Y-104219580D01*
D12*
%TO.C,U1*%
X101140000Y-120937280D02*
X126999999Y-120937280D01*
X101140001Y-57040000D02*
X101140000Y-120937280D01*
X105100120Y-51126880D02*
X123083320Y-51126880D01*
X105100120Y-57019680D02*
X105100120Y-51126880D01*
X123083320Y-51126880D02*
X123083320Y-57019680D01*
X126999999Y-120937280D02*
X127000000Y-57040000D01*
X127000000Y-57040000D02*
X101140001Y-57040000D01*
%TD*%
M02*
