M48
; DRILL file {KiCad 9.0.2} date 2025-07-06T23:36:44+0200
; FORMAT={-:-/ absolute / metric / decimal}
; #@! TF.CreationDate,2025-07-06T23:36:44+02:00
; #@! TF.GenerationSoftware,Kicad,Pcbnew,9.0.2
; #@! TF.FileFunction,Plated,1,2,PTH
FMAT,2
METRIC
; #@! TA.AperFunction,Plated,PTH,ViaDrill
T1C0.300
; #@! TA.AperFunction,Plated,PTH,ComponentDrill
T2C0.800
; #@! TA.AperFunction,Plated,PTH,ComponentDrill
T3C1.150
%
G90
G05
T1
X112.0Y-111.0
X117.5Y-122.0
T2
X102.636Y-106.397
X102.636Y-108.937
X102.636Y-111.477
X102.64Y-58.14
X102.64Y-60.68
X102.64Y-63.22
X102.64Y-65.76
X102.64Y-68.3
X102.64Y-70.84
X102.64Y-73.38
X102.64Y-75.92
X102.64Y-78.46
X102.64Y-81.0
X102.64Y-83.54
X102.64Y-86.08
X102.64Y-88.62
X102.64Y-91.16
X102.64Y-93.7
X102.64Y-96.24
X102.64Y-98.78
X102.64Y-101.32
X102.64Y-103.86
X125.5Y-58.14
X125.5Y-60.68
X125.5Y-63.22
X125.5Y-65.76
X125.5Y-68.3
X125.5Y-70.84
X125.5Y-73.38
X125.5Y-75.92
X125.5Y-78.46
X125.5Y-81.0
X125.5Y-83.54
X125.5Y-86.08
X125.5Y-88.62
X125.5Y-91.16
X125.5Y-93.7
X125.5Y-96.24
X125.5Y-98.78
X125.5Y-101.32
X125.5Y-103.86
X125.5Y-106.4
X125.5Y-108.94
X125.5Y-111.48
T3
X102.5Y-124.5
X102.5Y-128.5
X106.5Y-124.5
X106.5Y-128.5
X110.5Y-124.5
X110.5Y-128.5
X114.5Y-124.5
M30
