%TF.GenerationSoftware,KiCad,Pcbnew,9.0.2*%
%TF.CreationDate,2025-07-06T23:36:37+02:00*%
%TF.ProjectId,wireless-nes-adapter,77697265-6c65-4737-932d-6e65732d6164,rev?*%
%TF.SameCoordinates,Original*%
%TF.FileFunction,Copper,L1,Top*%
%TF.FilePolarity,Positive*%
%FSLAX46Y46*%
G04 Gerber Fmt 4.6, Leading zero omitted, Abs format (unit mm)*
G04 Created by KiCad (PCBNEW 9.0.2) date 2025-07-06 23:36:37*
%MOMM*%
%LPD*%
G01*
G04 APERTURE LIST*
G04 Aperture macros list*
%AMRoundRect*
0 Rectangle with rounded corners*
0 $1 Rounding radius*
0 $2 $3 $4 $5 $6 $7 $8 $9 X,Y pos of 4 corners*
0 Add a 4 corners polygon primitive as box body*
4,1,4,$2,$3,$4,$5,$6,$7,$8,$9,$2,$3,0*
0 Add four circle primitives for the rounded corners*
1,1,$1+$1,$2,$3*
1,1,$1+$1,$4,$5*
1,1,$1+$1,$6,$7*
1,1,$1+$1,$8,$9*
0 Add four rect primitives between the rounded corners*
20,1,$1+$1,$2,$3,$4,$5,0*
20,1,$1+$1,$4,$5,$6,$7,0*
20,1,$1+$1,$6,$7,$8,$9,0*
20,1,$1+$1,$8,$9,$2,$3,0*%
G04 Aperture macros list end*
%TA.AperFunction,ComponentPad*%
%ADD10RoundRect,0.250000X-0.825000X-0.825000X0.825000X-0.825000X0.825000X0.825000X-0.825000X0.825000X0*%
%TD*%
%TA.AperFunction,ComponentPad*%
%ADD11R,2.000000X1.200000*%
%TD*%
%TA.AperFunction,ComponentPad*%
%ADD12O,2.000000X1.200000*%
%TD*%
%TA.AperFunction,ViaPad*%
%ADD13C,0.600000*%
%TD*%
%TA.AperFunction,Conductor*%
%ADD14C,0.200000*%
%TD*%
G04 APERTURE END LIST*
D10*
%TO.P,G1,1,Pin_1*%
%TO.N,Net-(G1-Pin_1)*%
X114500000Y-124500000D03*
%TD*%
%TO.P,N2,1,Pin_1*%
%TO.N,unconnected-(N2-Pin_1-Pad1)*%
X102500000Y-128500000D03*
%TD*%
%TO.P,N1,1,Pin_1*%
%TO.N,unconnected-(N1-Pin_1-Pad1)*%
X106500000Y-128500000D03*
%TD*%
%TO.P,D1,1,Pin_1*%
%TO.N,Net-(D1-Pin_1)*%
X102500000Y-124500000D03*
%TD*%
%TO.P,L1,1,Pin_1*%
%TO.N,Net-(L1-Pin_1)*%
X106500000Y-124500000D03*
%TD*%
%TO.P,C1,1,Pin_1*%
%TO.N,Net-(C1-Pin_1)*%
X110500000Y-124500000D03*
%TD*%
%TO.P,VCC1,1,Pin_1*%
%TO.N,Net-(U1-5V)*%
X110500000Y-128500000D03*
%TD*%
D11*
%TO.P,U1,1,3V3*%
%TO.N,Net-(U1-3V3-Pad1)*%
X102640000Y-58140000D03*
D12*
%TO.P,U1,2,3V3*%
X102640000Y-60680000D03*
%TO.P,U1,3,CHIP_PU*%
%TO.N,unconnected-(U1-CHIP_PU-Pad3)*%
X102640000Y-63220000D03*
%TO.P,U1,4,GPIO4/ADC1_CH3*%
%TO.N,unconnected-(U1-GPIO4{slash}ADC1_CH3-Pad4)*%
X102640000Y-65760000D03*
%TO.P,U1,5,GPIO5/ADC1_CH4*%
%TO.N,unconnected-(U1-GPIO5{slash}ADC1_CH4-Pad5)*%
X102640000Y-68300000D03*
%TO.P,U1,6,GPIO6/ADC1_CH5*%
%TO.N,unconnected-(U1-GPIO6{slash}ADC1_CH5-Pad6)*%
X102640000Y-70840000D03*
%TO.P,U1,7,GPIO7/ADC1_CH6*%
%TO.N,unconnected-(U1-GPIO7{slash}ADC1_CH6-Pad7)*%
X102640000Y-73380000D03*
%TO.P,U1,8,GPIO15/ADC2_CH4/32K_P*%
%TO.N,unconnected-(U1-GPIO15{slash}ADC2_CH4{slash}32K_P-Pad8)*%
X102640000Y-75920000D03*
%TO.P,U1,9,GPIO16/ADC2_CH5/32K_N*%
%TO.N,unconnected-(U1-GPIO16{slash}ADC2_CH5{slash}32K_N-Pad9)*%
X102640000Y-78460000D03*
%TO.P,U1,10,GPIO17/ADC2_CH6*%
%TO.N,unconnected-(U1-GPIO17{slash}ADC2_CH6-Pad10)*%
X102640000Y-81000000D03*
%TO.P,U1,11,GPIO18/ADC2_CH7*%
%TO.N,unconnected-(U1-GPIO18{slash}ADC2_CH7-Pad11)*%
X102640000Y-83540000D03*
%TO.P,U1,12,GPIO8/ADC1_CH7*%
%TO.N,unconnected-(U1-GPIO8{slash}ADC1_CH7-Pad12)*%
X102640000Y-86080000D03*
%TO.P,U1,13,GPIO3/ADC1_CH2*%
%TO.N,unconnected-(U1-GPIO3{slash}ADC1_CH2-Pad13)*%
X102640000Y-88620000D03*
%TO.P,U1,14,GPIO46*%
%TO.N,unconnected-(U1-GPIO46-Pad14)*%
X102640000Y-91160000D03*
%TO.P,U1,15,GPIO9/ADC1_CH8*%
%TO.N,unconnected-(U1-GPIO9{slash}ADC1_CH8-Pad15)*%
X102640000Y-93700000D03*
%TO.P,U1,16,GPIO10/ADC1_CH9*%
%TO.N,unconnected-(U1-GPIO10{slash}ADC1_CH9-Pad16)*%
X102640000Y-96240000D03*
%TO.P,U1,17,GPIO11/ADC2_CH0*%
%TO.N,unconnected-(U1-GPIO11{slash}ADC2_CH0-Pad17)*%
X102640000Y-98780000D03*
%TO.P,U1,18,GPIO12/ADC2_CH1*%
%TO.N,unconnected-(U1-GPIO12{slash}ADC2_CH1-Pad18)*%
X102640000Y-101320000D03*
%TO.P,U1,19,GPIO13/ADC2_CH2*%
%TO.N,unconnected-(U1-GPIO13{slash}ADC2_CH2-Pad19)*%
X102640000Y-103860000D03*
%TO.P,U1,20,GPIO14/ADC2_CH3*%
%TO.N,unconnected-(U1-GPIO14{slash}ADC2_CH3-Pad20)*%
X102636320Y-106397280D03*
%TO.P,U1,21,5V*%
%TO.N,Net-(U1-5V)*%
X102636320Y-108937280D03*
%TO.P,U1,22,GND*%
%TO.N,Net-(G1-Pin_1)*%
X102636320Y-111477280D03*
%TO.P,U1,23,GND*%
X125500000Y-111480000D03*
%TO.P,U1,24,GND*%
X125500000Y-108940000D03*
%TO.P,U1,25,GPIO19/USB_D-*%
%TO.N,unconnected-(U1-GPIO19{slash}USB_D--Pad25)*%
X125500000Y-106400000D03*
%TO.P,U1,26,GPIO20/USB_D+*%
%TO.N,unconnected-(U1-GPIO20{slash}USB_D+-Pad26)*%
X125500000Y-103860000D03*
%TO.P,U1,27,GPIO21*%
%TO.N,Net-(C1-Pin_1)*%
X125500000Y-101320000D03*
%TO.P,U1,28,GPIO47*%
%TO.N,unconnected-(U1-GPIO47-Pad28)*%
X125500000Y-98780000D03*
%TO.P,U1,29,GPIO48*%
%TO.N,unconnected-(U1-GPIO48-Pad29)*%
X125500000Y-96240000D03*
%TO.P,U1,30,GPIO45*%
%TO.N,unconnected-(U1-GPIO45-Pad30)*%
X125500000Y-93700000D03*
%TO.P,U1,31,GPIO0*%
%TO.N,unconnected-(U1-GPIO0-Pad31)*%
X125500000Y-91160000D03*
%TO.P,U1,32,GPIO35*%
%TO.N,Net-(L1-Pin_1)*%
X125500000Y-88620000D03*
%TO.P,U1,33,GPIO36*%
%TO.N,Net-(D1-Pin_1)*%
X125500000Y-86080000D03*
%TO.P,U1,34,GPIO37*%
%TO.N,unconnected-(U1-GPIO37-Pad34)*%
X125500000Y-83540000D03*
%TO.P,U1,35,GPIO38*%
%TO.N,unconnected-(U1-GPIO38-Pad35)*%
X125500000Y-81000000D03*
%TO.P,U1,36,GPIO39/MTCK*%
%TO.N,unconnected-(U1-GPIO39{slash}MTCK-Pad36)*%
X125500000Y-78460000D03*
%TO.P,U1,37,GPIO40/MTDO*%
%TO.N,unconnected-(U1-GPIO40{slash}MTDO-Pad37)*%
X125500000Y-75920000D03*
%TO.P,U1,38,GPIO41/MTDI*%
%TO.N,unconnected-(U1-GPIO41{slash}MTDI-Pad38)*%
X125500000Y-73380000D03*
%TO.P,U1,39,GPIO42/MTMS*%
%TO.N,unconnected-(U1-GPIO42{slash}MTMS-Pad39)*%
X125500000Y-70840000D03*
%TO.P,U1,40,GPIO2/ADC1_CH1*%
%TO.N,unconnected-(U1-GPIO2{slash}ADC1_CH1-Pad40)*%
X125500000Y-68300000D03*
%TO.P,U1,41,GPIO1/ADC1_CH0*%
%TO.N,unconnected-(U1-GPIO1{slash}ADC1_CH0-Pad41)*%
X125500000Y-65760000D03*
%TO.P,U1,42,GPIO44/U0RXD*%
%TO.N,unconnected-(U1-GPIO44{slash}U0RXD-Pad42)*%
X125500000Y-63220000D03*
%TO.P,U1,43,GPIO43/U0TXD*%
%TO.N,unconnected-(U1-GPIO43{slash}U0TXD-Pad43)*%
X125500000Y-60680000D03*
%TO.P,U1,44,GND*%
%TO.N,Net-(G1-Pin_1)*%
X125500000Y-58140000D03*
%TD*%
D13*
%TO.N,Net-(U1-5V)*%
X112000000Y-111000000D03*
X117500000Y-122000000D03*
%TD*%
D14*
%TO.N,Net-(U1-5V)*%
X117500000Y-126500000D02*
X117500000Y-122000000D01*
X112000000Y-111000000D02*
X111000000Y-111000000D01*
X111000000Y-111000000D02*
X108937280Y-108937280D01*
X108937280Y-108937280D02*
X102636320Y-108937280D01*
X110500000Y-128500000D02*
X115500000Y-128500000D01*
X115500000Y-128500000D02*
X117500000Y-126500000D01*
%TO.N,Net-(G1-Pin_1)*%
X114500000Y-124500000D02*
X114500000Y-121500000D01*
X114500000Y-121500000D02*
X115500000Y-120500000D01*
X115500000Y-120500000D02*
X124500000Y-120500000D01*
X124500000Y-120500000D02*
X125500000Y-119500000D01*
X125500000Y-119500000D02*
X125500000Y-111480000D01*
%TO.N,Net-(L1-Pin_1)*%
X106500000Y-124500000D02*
X106500000Y-121500000D01*
X122380000Y-88620000D02*
X125500000Y-88620000D01*
X106500000Y-121500000D02*
X109000000Y-119000000D01*
X109000000Y-119000000D02*
X116000000Y-119000000D01*
X116000000Y-119000000D02*
X116000000Y-95000000D01*
X116000000Y-95000000D02*
X122380000Y-88620000D01*
%TO.N,Net-(D1-Pin_1)*%
X102500000Y-124500000D02*
X102500000Y-123000000D01*
X115500000Y-118500000D02*
X115500000Y-93000000D01*
X102500000Y-123000000D02*
X107000000Y-118500000D01*
X115500000Y-93000000D02*
X122420000Y-86080000D01*
X107000000Y-118500000D02*
X115500000Y-118500000D01*
X122420000Y-86080000D02*
X125500000Y-86080000D01*
%TO.N,Net-(C1-Pin_1)*%
X110500000Y-124500000D02*
X110500000Y-121000000D01*
X110500000Y-121000000D02*
X112000000Y-119500000D01*
X112000000Y-119500000D02*
X116500000Y-119500000D01*
X116500000Y-119500000D02*
X116500000Y-104000000D01*
X116500000Y-104000000D02*
X119180000Y-101320000D01*
X119180000Y-101320000D02*
X125500000Y-101320000D01*
%TD*%
M02*
